<svg xmlns="http://www.w3.org/2000/svg" xmlns:xlink="http://www.w3.org/1999/xlink" width="100%" height="100%" version="1.1" viewBox="0 0 300 50" xml:space="preserve" style="fill-rule:evenodd;clip-rule:evenodd;stroke-linecap:round;stroke-linejoin:round;stroke-miterlimit:1.5"><path d="M47.133,29.659c-0.314,-0.157 17.389,-6.893 37.128,-5.64c19.739,1.254 50.358,8.911 45.117,10.026" style="fill:none;stroke:#ff880f;stroke-width:1px"/><g><path d="M139.914,28.047c0.728,-0.512 1.205,-1.356 1.205,-2.313c0,-1.099 -0.629,-2.049 -1.544,-2.517c0,-0.018 0.002,-0.035 0.002,-0.053c0,-1.325 -0.913,-2.433 -2.143,-2.74c-0.306,-1.229 -1.414,-2.142 -2.739,-2.142c-1.253,0 -2.313,0.815 -2.684,1.943c-0.487,-0.853 -1.403,-1.429 -2.456,-1.429c-0.957,0 -1.801,0.477 -2.312,1.204c-0.512,-0.727 -1.356,-1.204 -2.313,-1.204c-1.115,0 -2.077,0.647 -2.537,1.585c-1.332,0.229 -2.346,1.386 -2.346,2.783c0,0.283 0.043,0.556 0.121,0.813c-0.696,0.515 -1.149,1.339 -1.149,2.271c0,0.945 0.466,1.78 1.178,2.293c-0.413,0.491 -0.664,1.126 -0.664,1.818c0,1.411 1.034,2.577 2.386,2.789c-0.21,0.395 -0.33,0.845 -0.33,1.323c0,1.325 0.913,2.433 2.143,2.74c0.306,1.23 1.415,2.142 2.74,2.142c0.595,0 1.147,-0.185 1.603,-0.499c0.47,0.906 1.416,1.527 2.508,1.527c1.001,0 1.878,-0.521 2.381,-1.306c0.369,0.177 0.78,0.278 1.217,0.278c1.478,0 2.69,-1.135 2.814,-2.582c1.446,-0.124 2.582,-1.335 2.582,-2.814c0,-0.351 -0.067,-0.684 -0.183,-0.994c1.014,-0.43 1.725,-1.433 1.725,-2.604c0,-0.957 -0.477,-1.801 -1.205,-2.312Z" style="fill:#c62a6a;fill-rule:nonzero"/><g><path d="M129.543,11.601c0,0 0.022,0.008 0.054,0.021c0.032,-0.013 0.054,-0.021 0.054,-0.021l-0.108,0Z" style="fill:#659c35;fill-rule:nonzero"/><path d="M122.671,19.937c0.515,-0.69 1.332,-1.141 2.259,-1.141c0.957,0 1.801,0.477 2.313,1.204c0.511,-0.727 1.355,-1.204 2.312,-1.204c1.053,0 1.969,0.576 2.456,1.429c0.371,-1.128 1.431,-1.943 2.684,-1.943c0.991,0 1.861,0.511 2.364,1.284c1.195,-0.886 2.082,-2.007 2.518,-3.34c-5.101,-1.735 -6.689,0.514 -6.689,0.514c-0.309,-3.8 -2.899,-4.964 -3.291,-5.118c-0.392,0.154 -2.981,1.318 -3.29,5.118c0,0 -1.589,-2.249 -6.69,-0.514c0.5,1.526 1.587,2.776 3.054,3.711Z" style="fill:#659c35;fill-rule:nonzero"/></g><path d="M124.085,26.503c-0.638,0 -1.302,-0.237 -1.846,-0.827c-0.192,-0.209 -0.179,-0.534 0.03,-0.726c0.209,-0.193 0.534,-0.179 0.726,0.03c0.62,0.673 1.438,0.56 1.951,0.258c0.51,-0.3 1.004,-0.958 0.718,-1.824c-0.09,-0.269 0.057,-0.56 0.326,-0.649c0.27,-0.089 0.56,0.057 0.649,0.327c0.448,1.354 -0.266,2.499 -1.172,3.032c-0.398,0.234 -0.882,0.379 -1.382,0.379Z" style="fill:#e53384;fill-rule:nonzero"/><path d="M134.83,32.839c-0.638,0 -1.303,-0.237 -1.846,-0.827c-0.192,-0.209 -0.179,-0.534 0.03,-0.727c0.209,-0.192 0.534,-0.178 0.726,0.031c0.62,0.673 1.439,0.559 1.951,0.258c0.51,-0.3 1.004,-0.958 0.718,-1.824c-0.09,-0.269 0.057,-0.56 0.326,-0.649c0.269,-0.09 0.56,0.057 0.649,0.327c0.448,1.354 -0.266,2.498 -1.172,3.032c-0.398,0.234 -0.882,0.379 -1.382,0.379Z" style="fill:#e53384;fill-rule:nonzero"/><path d="M126.316,33.185c-0.116,0 -0.231,-0.007 -0.343,-0.022c-1.047,-0.133 -2.158,-0.905 -2.28,-2.33c-0.024,-0.282 0.185,-0.532 0.468,-0.556c0.282,-0.025 0.532,0.185 0.556,0.468c0.078,0.912 0.795,1.323 1.386,1.399c0.587,0.072 1.38,-0.144 1.683,-1.003c0.094,-0.268 0.389,-0.41 0.656,-0.314c0.267,0.095 0.408,0.388 0.313,0.655c-0.423,1.201 -1.476,1.703 -2.439,1.703Z" style="fill:#e53384;fill-rule:nonzero"/><path d="M130.942,28.386c-0.117,0 -0.231,-0.007 -0.344,-0.021c-1.046,-0.134 -2.157,-0.906 -2.279,-2.33c-0.024,-0.283 0.185,-0.532 0.468,-0.557c0.282,-0.024 0.532,0.185 0.556,0.469c0.078,0.911 0.795,1.323 1.386,1.398c0.586,0.075 1.38,-0.143 1.683,-1.004c0.094,-0.267 0.389,-0.409 0.656,-0.313c0.267,0.094 0.408,0.387 0.313,0.655c-0.423,1.201 -1.477,1.703 -2.439,1.703Z" style="fill:#e53384;fill-rule:nonzero"/><path d="M130.306,37.384c-0.67,0 -1.365,-0.257 -1.913,-0.899c-0.184,-0.216 -0.158,-0.541 0.058,-0.725c0.216,-0.184 0.541,-0.158 0.725,0.058c0.594,0.697 1.416,0.614 1.94,0.333c0.521,-0.28 1.04,-0.918 0.787,-1.795c-0.079,-0.273 0.079,-0.557 0.351,-0.636c0.273,-0.079 0.558,0.079 0.637,0.352c0.395,1.37 -0.362,2.487 -1.289,2.985c-0.38,0.204 -0.832,0.327 -1.296,0.327Z" style="fill:#e53384;fill-rule:nonzero"/><path d="M136.562,25.475c-0.493,0 -0.969,-0.141 -1.364,-0.37c-0.912,-0.53 -1.636,-1.673 -1.195,-3.032c0.087,-0.27 0.378,-0.418 0.647,-0.331c0.27,0.087 0.418,0.377 0.33,0.647c-0.282,0.871 0.219,1.528 0.734,1.827c0.512,0.297 1.327,0.405 1.941,-0.271c0.191,-0.209 0.515,-0.225 0.726,-0.034c0.21,0.191 0.225,0.516 0.035,0.726c-0.544,0.598 -1.212,0.838 -1.854,0.838Z" style="fill:#e53384;fill-rule:nonzero"/></g><clipPath id="_clip1"><rect id="weight" width="25.387" height="25.387" x="29.988" y="13.231"/></clipPath><g clip-path="url(#_clip1)"><path d="M37.429,15.411l-4.815,0c-1.45,0 -2.626,1.175 -2.626,2.626l0,17.946c0,1.451 1.176,2.626 2.626,2.626l20.135,0c1.45,0 2.626,-1.175 2.626,-2.626l0,-17.946c0,-1.451 -1.176,-2.626 -2.626,-2.626l-15.32,0l0,0Z" style="fill:#4398d1;fill-rule:nonzero"/><path d="M52.749,15.411l-1.029,0c-2.499,6.972 -7.34,16.79 -16.108,23.198l17.137,0c1.45,0 2.626,-1.175 2.626,-2.626l0,-17.946c0,-1.451 -1.176,-2.626 -2.626,-2.626Z" style="fill:#3e8cc7;fill-rule:nonzero"/><path d="M47.934,15.411c-2.911,-2.901 -7.622,-2.893 -10.523,0.018c-2.902,2.911 -2.893,7.622 0.018,10.523c2.911,2.901 7.622,2.893 10.523,-0.018c1.395,-1.4 2.175,-3.296 2.171,-5.271c-0.003,-1.972 -0.791,-3.862 -2.189,-5.252Z" style="fill:#fdb62f;fill-rule:nonzero"/><circle cx="42.681" cy="20.663" r="5.69" style="fill:#e5e5e5"/><path d="M43.119,19.429l0,-1.83l-0.875,0l0,1.83c-0.684,0.241 -1.042,0.992 -0.8,1.675c0.241,0.684 0.991,1.043 1.675,0.8c0.684,-0.241 1.042,-0.991 0.8,-1.675c-0.132,-0.374 -0.426,-0.668 -0.8,-0.8Z" style="fill:#de4c3c;fill-rule:nonzero"/><g><rect width=".875" height="1.751" x="42.244" y="24.603" style="fill:#cfcfcf"/><rect width=".875" height="1.751" x="42.244" y="14.973" style="fill:#cfcfcf"/><rect width="1.751" height=".875" x="46.621" y="20.225" style="fill:#cfcfcf"/><rect width="1.751" height=".875" x="36.991" y="20.225" style="fill:#cfcfcf"/><path d="M46.397,24.995l0.619,-0.619l-1.238,-1.238l-0.619,0.619l1.238,1.238Z" style="fill:#cfcfcf"/><path d="M39.585,18.187l0.619,-0.619l-1.238,-1.238l-0.619,0.619l1.238,1.238Z" style="fill:#cfcfcf"/><path d="M45.777,18.187l1.238,-1.238l-0.619,-0.619l-1.238,1.238l0.619,0.619Z" style="fill:#cfcfcf"/><path d="M38.967,24.996l1.238,-1.238l-0.619,-0.619l-1.238,1.238l0.619,0.619Z" style="fill:#cfcfcf"/></g><g><path d="M39.399,30.73c-0.363,0 -0.657,-0.294 -0.657,-0.656c0,-0.363 0.294,-0.657 0.657,-0.657c0.362,0 0.656,0.294 0.656,0.657c0,0.362 -0.294,0.656 -0.656,0.656Z" style="fill:#3f7db8;fill-rule:nonzero"/><path d="M39.399,33.794c-0.363,0 -0.657,-0.294 -0.657,-0.656c0,-0.363 0.294,-0.657 0.657,-0.657c0.362,0 0.656,0.294 0.656,0.657c0,0.362 -0.294,0.656 -0.656,0.656Z" style="fill:#3f7db8;fill-rule:nonzero"/><path d="M39.399,36.858c-0.363,0 -0.657,-0.294 -0.657,-0.656c0,-0.363 0.294,-0.657 0.657,-0.657c0.362,0 0.656,0.294 0.656,0.657c0,0.363 -0.294,0.656 -0.656,0.656Z" style="fill:#3f7db8;fill-rule:nonzero"/><path d="M37.21,28.98c-0.362,0 -0.656,-0.295 -0.656,-0.657c0,-0.362 0.294,-0.656 0.656,-0.656c0.363,0 0.657,0.294 0.657,0.656c0,0.362 -0.294,0.657 -0.657,0.657Z" style="fill:#3f7db8;fill-rule:nonzero"/><path d="M37.21,32.044c-0.362,0 -0.656,-0.295 -0.656,-0.657c0,-0.362 0.294,-0.657 0.656,-0.657c0.363,0 0.657,0.295 0.657,0.657c0,0.362 -0.294,0.657 -0.657,0.657Z" style="fill:#3f7db8;fill-rule:nonzero"/><path d="M37.21,35.108c-0.362,0 -0.656,-0.295 -0.656,-0.657c0,-0.362 0.294,-0.657 0.656,-0.657c0.363,0 0.657,0.295 0.657,0.657c0,0.362 -0.294,0.657 -0.657,0.657Z" style="fill:#3f7db8;fill-rule:nonzero"/><path d="M35.022,30.73c-0.363,0 -0.657,-0.294 -0.657,-0.656c0,-0.363 0.294,-0.657 0.657,-0.657c0.362,0 0.656,0.294 0.656,0.657c0,0.362 -0.294,0.656 -0.656,0.656Z" style="fill:#3f7db8;fill-rule:nonzero"/><path d="M35.022,33.794c-0.363,0 -0.657,-0.294 -0.657,-0.656c0,-0.363 0.294,-0.657 0.657,-0.657c0.362,0 0.656,0.294 0.656,0.657c0,0.362 -0.294,0.656 -0.656,0.656Z" style="fill:#3f7db8;fill-rule:nonzero"/><path d="M35.022,36.858c-0.363,0 -0.657,-0.294 -0.657,-0.656c0,-0.363 0.294,-0.657 0.657,-0.657c0.362,0 0.656,0.294 0.656,0.657c0,0.363 -0.294,0.656 -0.656,0.656Z" style="fill:#3f7db8;fill-rule:nonzero"/><path d="M32.833,28.98c-0.362,0 -0.657,-0.295 -0.657,-0.657c0,-0.362 0.295,-0.656 0.657,-0.656c0.362,0 0.657,0.294 0.657,0.656c0,0.362 -0.295,0.657 -0.657,0.657Z" style="fill:#3f7db8;fill-rule:nonzero"/><path d="M32.833,25.916c-0.362,0 -0.657,-0.294 -0.657,-0.657c0,-0.362 0.295,-0.656 0.657,-0.656c0.362,0 0.657,0.294 0.657,0.656c0,0.363 -0.295,0.657 -0.657,0.657Z" style="fill:#3f7db8;fill-rule:nonzero"/><path d="M32.833,32.044c-0.362,0 -0.657,-0.295 -0.657,-0.657c0,-0.362 0.295,-0.657 0.657,-0.657c0.362,0 0.657,0.295 0.657,0.657c0,0.362 -0.295,0.657 -0.657,0.657Z" style="fill:#3f7db8;fill-rule:nonzero"/><path d="M32.833,35.108c-0.362,0 -0.657,-0.295 -0.657,-0.657c0,-0.362 0.295,-0.657 0.657,-0.657c0.362,0 0.657,0.295 0.657,0.657c0,0.362 -0.295,0.657 -0.657,0.657Z" style="fill:#3f7db8;fill-rule:nonzero"/><path d="M35.022,27.666c-0.363,0 -0.657,-0.294 -0.657,-0.656c0,-0.362 0.294,-0.657 0.657,-0.657c0.362,0 0.656,0.295 0.656,0.657c0,0.363 -0.294,0.656 -0.656,0.656Z" style="fill:#3f7db8;fill-rule:nonzero"/><path d="M45.308,30.074c0,-0.363 0.294,-0.657 0.656,-0.657c0.363,0 0.657,0.294 0.657,0.657c0,0.362 -0.294,0.656 -0.657,0.656c-0.362,0 -0.656,-0.293 -0.656,-0.656Z" style="fill:#3f7db8;fill-rule:nonzero"/><path d="M45.308,33.138c0,-0.363 0.294,-0.657 0.656,-0.657c0.363,0 0.657,0.294 0.657,0.657c0,0.362 -0.294,0.656 -0.657,0.656c-0.362,0 -0.656,-0.293 -0.656,-0.656Z" style="fill:#3f7db8;fill-rule:nonzero"/><path d="M45.308,36.202c0,-0.363 0.294,-0.657 0.656,-0.657c0.363,0 0.657,0.294 0.657,0.657c0,0.362 -0.294,0.656 -0.657,0.656c-0.362,0 -0.656,-0.293 -0.656,-0.656Z" style="fill:#3f7db8;fill-rule:nonzero"/><path d="M47.496,28.323c0,-0.362 0.294,-0.656 0.657,-0.656c0.362,0 0.656,0.294 0.656,0.656c0,0.362 -0.294,0.657 -0.656,0.657c-0.363,0 -0.657,-0.294 -0.657,-0.657Z" style="fill:#3f7db8;fill-rule:nonzero"/><path d="M47.496,31.387c0,-0.362 0.294,-0.657 0.657,-0.657c0.362,0 0.656,0.295 0.656,0.657c0,0.362 -0.294,0.657 -0.656,0.657c-0.363,0 -0.657,-0.294 -0.657,-0.657Z" style="fill:#3f7db8;fill-rule:nonzero"/><path d="M47.496,34.451c0,-0.362 0.294,-0.657 0.657,-0.657c0.362,0 0.656,0.295 0.656,0.657c0,0.362 -0.294,0.657 -0.656,0.657c-0.363,0 -0.657,-0.294 -0.657,-0.657Z" style="fill:#3f7db8;fill-rule:nonzero"/><path d="M49.685,30.074c0,-0.363 0.294,-0.657 0.656,-0.657c0.363,0 0.657,0.294 0.657,0.657c0,0.362 -0.294,0.656 -0.657,0.656c-0.362,0 -0.656,-0.293 -0.656,-0.656Z" style="fill:#3f7db8;fill-rule:nonzero"/><path d="M49.685,33.138c0,-0.363 0.294,-0.657 0.656,-0.657c0.363,0 0.657,0.294 0.657,0.657c0,0.362 -0.294,0.656 -0.657,0.656c-0.362,0 -0.656,-0.293 -0.656,-0.656Z" style="fill:#3f7db8;fill-rule:nonzero"/><path d="M49.685,36.202c0,-0.363 0.294,-0.657 0.656,-0.657c0.363,0 0.657,0.294 0.657,0.657c0,0.362 -0.294,0.656 -0.657,0.656c-0.362,0 -0.656,-0.293 -0.656,-0.656Z" style="fill:#3f7db8;fill-rule:nonzero"/><path d="M51.873,28.323c0,-0.362 0.294,-0.656 0.657,-0.656c0.362,0 0.656,0.294 0.656,0.656c0,0.362 -0.294,0.657 -0.656,0.657c-0.363,0 -0.657,-0.294 -0.657,-0.657Z" style="fill:#3f7db8;fill-rule:nonzero"/><path d="M51.873,25.259c0,-0.362 0.294,-0.656 0.657,-0.656c0.362,0 0.656,0.294 0.656,0.656c0,0.362 -0.294,0.657 -0.656,0.657c-0.363,0 -0.657,-0.294 -0.657,-0.657Z" style="fill:#3f7db8;fill-rule:nonzero"/><path d="M51.873,31.387c0,-0.362 0.294,-0.657 0.657,-0.657c0.362,0 0.656,0.295 0.656,0.657c0,0.362 -0.294,0.657 -0.656,0.657c-0.363,0 -0.657,-0.294 -0.657,-0.657Z" style="fill:#3f7db8;fill-rule:nonzero"/><path d="M51.873,34.451c0,-0.362 0.294,-0.657 0.657,-0.657c0.362,0 0.656,0.295 0.656,0.657c0,0.362 -0.294,0.657 -0.656,0.657c-0.363,0 -0.657,-0.294 -0.657,-0.657Z" style="fill:#3f7db8;fill-rule:nonzero"/><path d="M49.685,27.01c0,-0.362 0.294,-0.657 0.656,-0.657c0.363,0 0.657,0.295 0.657,0.657c0,0.362 -0.294,0.656 -0.657,0.656c-0.362,0 -0.656,-0.293 -0.656,-0.656Z" style="fill:#3f7db8;fill-rule:nonzero"/><path d="M42.681,36.421c-0.241,0 -0.437,-0.196 -0.437,-0.438l0,-5.253c0,-0.241 0.196,-0.437 0.437,-0.437c0.242,0 0.438,0.196 0.438,0.437l0,5.253c0,0.242 -0.196,0.438 -0.438,0.438Z" style="fill:#3f7db8;fill-rule:nonzero"/></g></g><text x="183.991" y="33.025" style="font-family:'ArialMT','Arial',sans-serif;font-size:12px;fill:#e46508">Google Fit</text><path d="M149.181,29.435c0,0 28.298,-0.385 28.298,0" style="fill:none;stroke:#ff880f;stroke-width:1px"/><path d="M177.735,29.499l-5.486,-5.487l5.486,5.487Z" style="fill:none;stroke:#ff880f;stroke-width:1px"/><path d="M173.5,35.659l3.979,-5.968" style="fill:none;stroke:#ff880f;stroke-width:1px"/><text x="249.545" y="47.295" style="font-family:'ArialMT','Arial',sans-serif;font-size:7.015px;fill:#a4a4a4">blog.cptsai.com</text></svg>