<svg xmlns="http://www.w3.org/2000/svg" xmlns:xlink="http://www.w3.org/1999/xlink" width="100%" height="100%" version="1.1" viewBox="0 0 1293 479" xml:space="preserve" style="fill-rule:evenodd;clip-rule:evenodd;stroke-linecap:round;stroke-linejoin:round;stroke-miterlimit:1.5"><g id="Cluster" transform="matrix(1,0,0,1,75.9137,48.4615)"><rect width="1292.37" height="478.772" x="-75.914" y="-48.462" style="fill:none"/><g><g><g transform="matrix(1,0,0,1,185.632,35.9198) matrix(1,0,0,1,-19,-4) matrix(1.26222,0,0,1.43382,-29.1306,-111.406)"><rect width="140.625" height="170" x="120.625" y="148.75" style="fill:#ebebeb"/></g><g transform="matrix(1,0,0,1,185.632,35.9198) matrix(1,0,0,1,-19,-4) matrix(1,0,0,1,-173.125,-71)"><rect width="106" height="56" x="332" y="203.5" style="fill:#b2b2b2"/><g><text x="369.5" y="163.5" transform="matrix(1,0,0,1,-19.2461,73.1709)" style="font-family:'ArialMT','Arial',sans-serif;font-size:20px;fill:#fff">iptables</text></g></g></g><g><text x="135.668" y="316.232" transform="matrix(1,0,0,1,185.632,35.9198) matrix(1,0,0,1,80.6933,15.1586)" style="font-family:'ArialMT','Arial',sans-serif;font-size:20px;fill:#454545">Node1</text></g><g><g><g transform="matrix(1,0,0,1,185.632,35.9198) matrix(1,0,0,1,0.00699655,0) matrix(0.681034,0,0,1.11475,62.0631,-2.9381)"><rect width="92.8" height="48.8" x="145.668" y="213.832" style="fill:#62b6ce"/></g><g><text x="190.868" y="230.632" transform="matrix(1,0,0,1,185.632,35.9198) matrix(1,0,0,1,0.00699655,0) matrix(1,0,0,1,-20.29,39.0703)" style="font-family:'ArialMT','Arial',sans-serif;font-size:20px;fill:#fff">Pod1</text></g></g></g></g><g><g><g transform="matrix(1,0,0,1,185.632,35.9198) matrix(1,0,0,1,193.8,-4) matrix(1.26222,0,0,1.43382,-29.1306,-111.406)"><rect width="140.625" height="170" x="120.625" y="148.75" style="fill:#ebebeb"/></g><g transform="matrix(1,0,0,1,185.632,35.9198) matrix(1,0,0,1,193.8,-4) matrix(1,0,0,1,-173.125,-71)"><rect width="106" height="56" x="332" y="203.5" style="fill:#b2b2b2"/><g><text x="369.5" y="163.5" transform="matrix(1,0,0,1,-19.2461,73.1709)" style="font-family:'ArialMT','Arial',sans-serif;font-size:20px;fill:#fff">iptables</text></g></g></g><g><g><g transform="matrix(1,0,0,1,185.632,35.9198) matrix(1,0,0,1,-12.2749,0) matrix(1,0,0,1,189.76,8.01625) matrix(0.681034,0,0,1.11475,62.0631,-2.9381)"><rect width="92.8" height="48.8" x="145.668" y="213.832" style="fill:#62b6ce"/></g><g><text x="190.868" y="230.632" transform="matrix(1,0,0,1,185.632,35.9198) matrix(1,0,0,1,-12.2749,0) matrix(1,0,0,1,189.76,8.01625) matrix(1,0,0,1,-20.29,39.0703)" style="font-family:'ArialMT','Arial',sans-serif;font-size:20px;fill:#fff">Pod2</text></g></g><g><g transform="matrix(1,0,0,1,185.632,35.9198) matrix(1,0,0,1,-12.2749,0) matrix(1,0,0,1,260.403,8.01625) matrix(0.681034,0,0,1.11475,62.0631,-2.9381)"><rect width="92.8" height="48.8" x="145.668" y="213.832" style="fill:#62b6ce"/></g><g><text x="190.868" y="230.632" transform="matrix(1,0,0,1,185.632,35.9198) matrix(1,0,0,1,-12.2749,0) matrix(1,0,0,1,260.403,8.01625) matrix(1,0,0,1,-20.29,39.0703)" style="font-family:'ArialMT','Arial',sans-serif;font-size:20px;fill:#fff">Pod3</text></g></g></g><g><text x="135.668" y="316.232" transform="matrix(1,0,0,1,185.632,35.9198) matrix(1,0,0,1,293.493,15.1586)" style="font-family:'ArialMT','Arial',sans-serif;font-size:20px;fill:#454545">Node2</text></g></g><g><g><path d="M664.689,198.639L665.609,210.161L655.839,203.984L664.689,198.639Z" transform="matrix(-1,0,0,1.53892,716.963,11.1438) matrix(-1,0,0,0.649805,792.877,-38.7319)" style="fill:#58acff"/><path d="M559.895,97.341C596.582,120.227 630.825,153.623 661.333,203.081" transform="matrix(-1,0,0,1.53892,716.963,11.1438) matrix(-1,0,0,0.649805,792.877,-38.7319)" style="fill:none;stroke:#58acff;stroke-width:3.45px"/></g></g><g><g><path d="M462.747,203.676L452.977,209.853L453.898,198.331L462.747,203.676Z" transform="matrix(1,0,0,1.53892,249.796,10.836) matrix(1,-0,-0,0.649805,-325.709,-38.5319)" style="fill:#58acff"/><path d="M558.691,97.033C522.004,119.919 487.761,153.315 457.253,202.774" transform="matrix(1,0,0,1.53892,249.796,10.836) matrix(1,-0,-0,0.649805,-325.709,-38.5319)" style="fill:none;stroke:#58acff;stroke-width:3.45px"/></g></g><g><g><path d="M461.25,310.625L456.08,320.963L450.911,310.625L461.25,310.625Z" transform="matrix(1,0,0,0.740519,252.899,200.055) matrix(1,-0,-0,1.3504,-328.812,-335.598)" style="fill:#24c3d5"/><path d="M456.08,271.497L456.08,312.692" transform="matrix(1,0,0,0.740519,252.899,200.055) matrix(1,-0,-0,1.3504,-328.812,-335.598)" style="fill:none;stroke:#24c3d5;stroke-width:3.45px"/></g></g><g><g><path d="M641.71,319.537L635.85,329.5L631.395,318.834L641.71,319.537Z" transform="matrix(1,0,0,0.740519,465.502,197.757) matrix(1,-0,-0,1.3504,-541.416,-332.494)" style="fill:#a7dae0"/><path d="M667.699,270.84C648.646,281.771 638.846,299.002 636.412,321.249" transform="matrix(1,0,0,0.740519,465.502,197.757) matrix(1,-0,-0,1.3504,-541.416,-332.494)" style="fill:none;stroke:#a7dae0;stroke-width:3.45px"/></g></g><g><g><path d="M470.902,314.122L460.841,319.814L462.324,308.351L470.902,314.122Z" transform="matrix(1,0,0,0.740519,465.502,197.757) matrix(1,-0,-0,1.3504,-541.416,-332.494)" style="fill:#a7dae0"/><path d="M667.699,270.84C648.317,281.96 494.233,291.615 465.458,312.952" transform="matrix(1,0,0,0.740519,465.502,197.757) matrix(1,-0,-0,1.3504,-541.416,-332.494)" style="fill:none;stroke:#a7dae0;stroke-width:3.45px"/></g></g><g><g><path d="M704.167,318.834L699.713,329.5L693.853,319.537L704.167,318.834Z" transform="matrix(-1,0,0,0.740519,718.233,197.757) matrix(-1,0,0,1.3504,794.146,-332.494)" style="fill:#a7dae0"/><path d="M667.863,270.84C686.916,281.771 696.716,299.002 699.151,321.249" transform="matrix(-1,0,0,0.740519,718.233,197.757) matrix(-1,0,0,1.3504,794.146,-332.494)" style="fill:none;stroke:#a7dae0;stroke-width:3.45px"/></g></g><g><g><path d="M684.795,319.632L692.156,328.545L680.609,329.086L684.795,319.632Z" transform="matrix(1,0,0,0.740519,252.899,200.055) matrix(1,-0,-0,1.3504,-328.812,-335.598)" style="fill:#24c3d5"/><path d="M456.08,271.497C549.193,274.352 614.296,294.364 684.593,325.196" transform="matrix(1,0,0,0.740519,252.899,200.055) matrix(1,-0,-0,1.3504,-328.812,-335.598)" style="fill:none;stroke:#24c3d5;stroke-width:3.45px"/></g></g><g><g><path d="M630.275,318.343L635.644,328.579L624.234,326.732L630.275,318.343Z" transform="matrix(1,0,0,0.740519,252.899,200.055) matrix(1,-0,-0,1.3504,-328.812,-335.598)" style="fill:#24c3d5"/><path d="M456.08,271.497C527.428,280.675 588.381,296.09 628.932,323.746" transform="matrix(1,0,0,0.740519,252.899,200.055) matrix(1,-0,-0,1.3504,-328.812,-335.598)" style="fill:none;stroke:#24c3d5;stroke-width:3.45px"/></g></g><g id="icon"><g transform="matrix(0.153972,0,0,0.153972,789.199,331.584) matrix(1,0,0,1,-400,-200)"><clipPath id="_clip1"><rect width="800" height="400" x="0" y="0"/></clipPath><g clip-path="url(#_clip1)"><g id="left"><path d="M176.458,87.917L302.083,312.5L50.833,312.5L176.458,87.917Z" transform="matrix(1.99005,0,0,1.78108,-101.161,-156.586)" style="fill:#ebebeb"/></g><g id="right"><path d="M176.458,87.917L302.083,312.5L50.833,312.5L176.458,87.917Z" transform="matrix(1.99005,0,0,1.78108,198.839,-156.586)" style="fill:#ebebeb"/></g><path id="nose" d="M500,400L300,400L400,240L500,400Z" style="fill:#0294a7"/><g transform="matrix(1,0,0,1,2.91667,-10.8333)"><circle cx="247.083" cy="215.833" r="25.417" style="fill:#858585"/></g><g transform="matrix(1,0,0,1,302.917,-10.8333)"><circle cx="247.083" cy="215.833" r="25.417" style="fill:#858585"/></g></g></g></g><g><g transform="matrix(1,0,0,1,-189.412,-81.335) matrix(1,0,0,1,328.907,-101.569)"><rect width="75.653" height="43.087" x="306.392" y="187.208" style="fill:#ff4800;fill-opacity:.78"/></g><g><text x="328.938" y="199.734" transform="matrix(1,0,0,1,-189.412,-81.335) matrix(1,0,0,1,331.756,-85.3927)" style="font-family:'ArialMT','Arial',sans-serif;font-size:20px;fill:#fff">LB</text></g></g><g><text x="481.345" y="138.493" transform="matrix(1,0,0,1,-74.86,-35.806)" style="font-family:'ArialMT','Arial',sans-serif;font-size:20px;fill:red">50%</text></g><g><text x="481.345" y="138.493" transform="matrix(1,0,0,1,44.7424,-34.2027)" style="font-family:'ArialMT','Arial',sans-serif;font-size:20px;fill:red">50%</text></g><g><text x="481.345" y="138.493" transform="matrix(1,0,0,1,-118.468,112.334)" style="font-family:'ArialMT','Arial',sans-serif;font-size:20px;fill:red">33%</text></g><g><text x="481.345" y="138.493" transform="matrix(1,0,0,1,-69.2165,104.895)" style="font-family:'ArialMT','Arial',sans-serif;font-size:20px;fill:red">33%</text></g><g><text x="481.345" y="138.493" transform="matrix(1,0,0,1,-30.7385,95.6605)" style="font-family:'ArialMT','Arial',sans-serif;font-size:20px;fill:red">33%</text></g><g><text x="481.345" y="138.493" transform="matrix(1,0,0,1,42.3696,100.534)" style="font-family:'ArialMT','Arial',sans-serif;font-size:20px;fill:red">33%</text></g><g><text x="481.345" y="138.493" transform="matrix(1,0,0,1,81.6172,109.769)" style="font-family:'ArialMT','Arial',sans-serif;font-size:20px;fill:red">33%</text></g><g><text x="481.345" y="138.493" transform="matrix(1,0,0,1,120.865,109.256)" style="font-family:'ArialMT','Arial',sans-serif;font-size:20px;fill:red">33%</text></g><g><text x="573.362" y="392.126" transform="matrix(1,0,0,1,-212.419,-42.6198)" style="font-family:'ArialMT','Arial',sans-serif;font-size:20px;fill:#ffa800">50%</text></g><g><text x="573.362" y="392.126" transform="matrix(1,0,0,1,-34.4581,-38.2109)" style="font-family:'ArialMT','Arial',sans-serif;font-size:20px;fill:#ffa800">50%</text></g><g><text x="573.362" y="392.126" transform="matrix(1,0,0,1,37.2873,-38.2109)" style="font-family:'ArialMT','Arial',sans-serif;font-size:20px;fill:#ffa800">50%</text></g></g></svg>