<?xml version="1.0" encoding="UTF-8" standalone="no"?><!DOCTYPE svg PUBLIC "-//W3C//DTD SVG 1.1//EN" "http://www.w3.org/Graphics/SVG/1.1/DTD/svg11.dtd"><svg width="100%" height="100%" viewBox="0 0 1100 210" version="1.1" xmlns="http://www.w3.org/2000/svg" xmlns:xlink="http://www.w3.org/1999/xlink" xml:space="preserve" xmlns:serif="http://www.serif.com/" style="fill-rule:evenodd;clip-rule:evenodd;"><g><g><g><path d="M60,160l0,-100" style="fill-rule:nonzero;"/><text x="57.219px" y="171.52px" style="font-family:'ArialMT', 'Arial', sans-serif;font-size:10px;">0</text></g><g><path d="M193.333,165l0,-100" style="fill-rule:nonzero;"/><text x="180.821px" y="176.52px" style="font-family:'ArialMT', 'Arial', sans-serif;font-size:10px;">2,000</text></g><g><path d="M326.667,165l0,-100" style="fill-rule:nonzero;"/><text x="314.154px" y="176.52px" style="font-family:'ArialMT', 'Arial', sans-serif;font-size:10px;">4,000</text></g><g><path d="M460,165l0,-100" style="fill-rule:nonzero;"/><text x="447.488px" y="176.52px" style="font-family:'ArialMT', 'Arial', sans-serif;font-size:10px;">6,000</text></g><g><path d="M593.333,165l0,-100" style="fill-rule:nonzero;"/><text x="580.821px" y="176.52px" style="font-family:'ArialMT', 'Arial', sans-serif;font-size:10px;">8,000</text></g><g><path d="M726.667,165l0,-100" style="fill-rule:nonzero;"/><text x="711.374px" y="176.52px" style="font-family:'ArialMT', 'Arial', sans-serif;font-size:10px;">10,000</text></g><g><path d="M860,165l0,-100" style="fill-rule:nonzero;"/><text x="844.707px" y="176.52px" style="font-family:'ArialMT', 'Arial', sans-serif;font-size:10px;">12,000</text></g><g><path d="M993.333,165l0,-100" style="fill-rule:nonzero;"/><text x="978.04px" y="176.52px" style="font-family:'ArialMT', 'Arial', sans-serif;font-size:10px;">14,000</text></g><path d="M60,60l0,100l1000,0l0,-100" style="fill:none;stroke:#9db1c2;stroke-opacity:0.662745;stroke-width:1px;"/></g><g><g><path d="M60,160l-6,0" style="fill-rule:nonzero;"/><text x="45.438px" y="163.84px" style="font-family:'ArialMT', 'Arial', sans-serif;font-size:10px;">0</text></g><g><path d="M60,60l-6,0" style="fill-rule:nonzero;"/><text x="45.438px" y="63.84px" style="font-family:'ArialMT', 'Arial', sans-serif;font-size:10px;">1</text></g><path d="M54,60l6,0l0,100l-6,0" style="fill:none;stroke:#000;stroke-opacity:0.603922;stroke-width:1px;"/></g><path d="M60.067,60l27,0l0.066,100l19.867,0l0.067,-100l20.666,0l0.067,100l13.133,0l0.067,-100l5.667,0l0.066,100l12.934,0l0.066,-100l5.734,0l0.066,100l12.6,0l0.067,-100l17,0l0.067,100l13.133,0l0.067,-100l5.466,0l0.067,100l13.133,0l0.067,-100l16.267,0l0.066,100l13.134,0l0.066,-100l17,0l0.067,100l13.067,0l0.066,-100l16.867,0l0.067,100l13.066,0l0.067,-100l5.733,0l0.067,100l12.933,0l0.067,-100l5.667,0l0.066,100l13,0l0.067,-100l5.467,0l0.066,100l13.134,0l0.066,-100l5.734,0l0.066,100l12.467,0l0.067,-100l5.666,0l0.067,100l13.2,0l0.067,-100l5.666,0l0.067,100l12.933,0l0.067,-100l5.733,0l0.067,100l13.067,0l0.066,-100l5.4,0l0.067,100l13.133,0l0.067,-100l6.067,0l0.066,100l12.934,0l0.066,-100l5.734,0l0.066,100l13,0l0.067,-100l5.667,0l0.066,100l12.934,0l0.066,-100l5.734,0l0.066,100l12.867,0l0.067,-100l17.066,0l0.067,100l12.467,0l0.066,-100l17.067,0l0.067,100l12.866,0l0.067,-100l5.6,0l0.067,100l13.133,0l0.067,-100l5.666,0l0.067,100l12.6,0l0.067,-100l17,0l0.066,100l12.934,0l0.066,-100l5.734,0l0.066,100l13.134,0l0.066,-100l5.267,0l0.067,100l13.066,0l0.067,-100l5.667,0l0.066,100l12.8,0l0.067,-100l5.667,0l0.066,100l13.134,0l0.066,-100l5.734,0l0.066,100l12.934,0l0.066,-100l5.667,0l0.067,100l12.6,0l0.066,-100l5.734,0l0.066,100l13.134,0l0.066,-100l6.067,0l0.067,100l12.933,0l0.067,-100l5.666,0l0.067,100l13.067,0l0.066,-100l16.934,0l0.066,100l13.134,0l0.066,-100l5.534,0l0.066,100l13.134,0l0.066,-100l5.467,0l0.067,100l12.933,0l0.067,-100l5.533,0l0.067,100l13,0l0.066,-100l16.734,0l0.066,100l13.134,0l0.066,-100l16.934,0l0.066,100l12.8,0l0.067,-100l16.333,0l0.067,100l13.867,0l0.066,-100l44.867,0" style="fill:none;stroke:#4682b4;stroke-width:1.4px;"/><text x="924.981px" y="197.406px" style="font-family:'ArialMT', 'Arial', sans-serif;font-size:21.22px;">blog.cptsai.com</text></g></svg>