<svg xmlns="http://www.w3.org/2000/svg" xmlns:xlink="http://www.w3.org/1999/xlink" width="100%" height="100%" version="1.1" viewBox="0 0 800 300" xml:space="preserve" style="fill-rule:evenodd;clip-rule:evenodd;stroke-linecap:round;stroke-linejoin:round;stroke-miterlimit:1.5"><g transform="matrix(0.713549,0,0,0.745552,35.5596,-14.4911)"><rect width="353.646" height="146.354" x="37.5" y="50" style="fill:#e4f5ea;fill-opacity:.74;stroke:#57ba87;stroke-width:1.03px"/></g><g><text x="230.729" y="113.542" transform="matrix(1.77208,0,0,1.77208,-171.867,-79.9621)" style="font-family:'ArialMT','Arial',sans-serif;font-size:12px">Node 1</text></g><g transform="matrix(0.846238,0,0,0.846238,-37.0623,-117.042)"><rect width="79.688" height="76.042" x="130.208" y="177.083" style="fill:#ffbc9f;fill-opacity:.4;stroke:#ff7100;stroke-width:1.18px"/></g><g transform="matrix(0.846238,0,0,0.846238,42.9377,-117.042)"><rect width="79.688" height="76.042" x="130.208" y="177.083" style="fill:#ffbc9f;fill-opacity:.4;stroke:#ff7100;stroke-width:1.18px"/></g><g transform="matrix(0.846238,0,0,0.846238,122.938,-117.042)"><rect width="79.688" height="76.042" x="130.208" y="177.083" style="fill:#ffbc9f;fill-opacity:.4;stroke:#ff7100;stroke-width:1.18px"/></g><g><text x="98.438" y="66.667" transform="matrix(1.54961,0,0,1.54961,-68.4648,-31.9)" style="font-family:'ArialMT','Arial',sans-serif;font-size:12px">Pod 1</text></g><g transform="matrix(0.846238,0,0,0.846238,-35.4998,2.22867)"><rect width="79.688" height="76.042" x="130.208" y="177.083" style="fill:#ff9fb5;fill-opacity:.4;stroke:#ff0015;stroke-width:1.18px"/></g><g><text x="98.438" y="66.667" transform="matrix(1.54961,0,0,1.54961,-66.9023,87.3708)" style="font-family:'ArialMT','Arial',sans-serif;font-size:12px">Pod 4</text></g><g><text x="98.438" y="66.667" transform="matrix(1.54961,0,0,1.54961,11.5352,-31.9)" style="font-family:'ArialMT','Arial',sans-serif;font-size:12px">Pod 2</text></g><g><text x="98.438" y="66.667" transform="matrix(1.54961,0,0,1.54961,91.5352,-31.9)" style="font-family:'ArialMT','Arial',sans-serif;font-size:12px">Pod 3</text></g><g transform="matrix(0.713549,0,0,0.745552,436.08,-12.9286)"><rect width="353.646" height="146.354" x="37.5" y="50" style="fill:#e4f5ea;fill-opacity:.74;stroke:#57ba87;stroke-width:1.03px"/></g><g transform="matrix(0.713549,0,0,0.745552,435.56,106.863)"><rect width="353.646" height="146.354" x="37.5" y="50" style="fill:#e4f5ea;fill-opacity:.74;stroke:#57ba87;stroke-width:1.03px"/></g><g><text x="230.729" y="113.542" transform="matrix(1.77208,0,0,1.77208,228.654,-78.3996)" style="font-family:'ArialMT','Arial',sans-serif;font-size:12px">Node 1</text></g><g><text x="230.729" y="113.542" transform="matrix(1.77208,0,0,1.77208,227.612,41.3921)" style="font-family:'ArialMT','Arial',sans-serif;font-size:12px">Node 2</text></g><g transform="matrix(0.846238,0,0,0.846238,363.459,-115.48)"><rect width="79.688" height="76.042" x="130.208" y="177.083" style="fill:#ffbc9f;fill-opacity:.4;stroke:#ff7100;stroke-width:1.18px"/></g><g transform="matrix(0.846238,0,0,0.846238,443.459,-115.48)"><rect width="79.688" height="76.042" x="130.208" y="177.083" style="fill:#ffbc9f;fill-opacity:.4;stroke:#ff7100;stroke-width:1.18px"/></g><g transform="matrix(0.846238,0,0,0.846238,523.459,-115.48)"><rect width="79.688" height="76.042" x="130.208" y="177.083" style="fill:#ffbc9f;fill-opacity:.4;stroke:#ff7100;stroke-width:1.18px"/></g><g><text x="98.438" y="66.667" transform="matrix(1.54961,0,0,1.54961,332.056,-30.3375)" style="font-family:'ArialMT','Arial',sans-serif;font-size:12px">Pod 1</text></g><g transform="matrix(0.846238,0,0,0.846238,365.021,3.79117)"><rect width="79.688" height="76.042" x="130.208" y="177.083" style="fill:#ff9fb5;fill-opacity:.4;stroke:#ff0015;stroke-width:1.18px"/></g><g><text x="98.438" y="66.667" transform="matrix(1.54961,0,0,1.54961,333.619,88.9333)" style="font-family:'ArialMT','Arial',sans-serif;font-size:12px">Pod 4</text></g><g><text x="98.438" y="66.667" transform="matrix(1.54961,0,0,1.54961,412.056,-30.3375)" style="font-family:'ArialMT','Arial',sans-serif;font-size:12px">Pod 2</text></g><g><text x="98.438" y="66.667" transform="matrix(1.54961,0,0,1.54961,492.056,-30.3375)" style="font-family:'ArialMT','Arial',sans-serif;font-size:12px">Pod 3</text></g><g><g><path d="M418.813,141.333L427.813,145.833L418.813,150.333C421.063,148.083 421.063,143.583 418.813,141.333Z" transform="matrix(1,0,0,1,-111.25,-6.25) matrix(1,-0,-0,1,111.25,6.25)" style="fill:#6f6b6b"/><path d="M345.521,145.833L420.613,145.833" transform="matrix(1,0,0,1,-111.25,-6.25) matrix(1,-0,-0,1,111.25,6.25)" style="fill:none;stroke:#6f6b6b;stroke-width:3px"/></g></g><g><text x="336.979" y="276.563" transform="matrix(1,0,0,1,293.438,-2.60417)" style="font-family:'ArialMT','Arial',sans-serif;font-size:12px">blog.cptsai.com</text></g></svg>