<svg xmlns="http://www.w3.org/2000/svg" xmlns:lucid="lucid" xmlns:svg="http://www.w3.org/2000/svg" xmlns:xlink="http://www.w3.org/1999/xlink" id="svg5887" width="756.902" height="376.481" version="1.1"><metadata id="metadata5893"/><g id="g5885" transform="matrix(0.7,0,0,0.7,1692.705,-13.3)" lucid:page-tab-id="0_0"><path id="path4831" d="m -2140.98,140.96 h -141.98 v -2 h 139.98 V 103.4 h 2 z m 122.48,-94.7 h -122.48 V 81.8 h -2 V 44.27 h 124.48 z" style="fill:#651fff"/><path id="path4833" d="m -2282.94,140.96 h -1.02 v -2 h 1.02 z m 279.7,-95.7 -14.26,4.63 V 40.6 Z" style="fill:#651fff"/><path id="path4835" d="m -2000,45.26 -18.5,6 V 39.25 Z m -16.5,3.25 10.03,-3.24 -10.03,-3.26 z" style="fill:#651fff"/><use id="use4837" width="100%" height="100%" x="0" y="0" transform="translate(-2240.9306,99.572039)" xlink:href="#a"/><use id="use4839" width="100%" height="100%" x="0" y="0" transform="translate(-2237.4566,99.572039)" xlink:href="#b"/><use id="use4841" width="100%" height="100%" x="0" y="0" transform="translate(-2173.5116,99.572039)" xlink:href="#c"/><use id="use4843" width="100%" height="100%" x="0" y="0" transform="translate(-2144.1356,99.572039)" xlink:href="#d"/><use id="use4845" width="100%" height="100%" x="0" y="0" transform="translate(-2098.6496,99.572039)" xlink:href="#e"/><g id="g4887" style="filter:url(#f)"><path id="path4847" d="m -2404.95,283.04 c 0,-2.2 1.8,-4 4,-4 h 362.4 c 2.2,0 4,1.8 4,4 v 152 c 0,2.2 -1.8,4 -4,4 h -362.4 c -2.2,0 -4,-1.8 -4,-4 z" style="fill:#fff;stroke:#651fff;stroke-width:2"/><use id="use4849" width="100%" height="100%" x="0" y="0" transform="translate(-2399.9477,304.94946)" xlink:href="#g"/><use id="use4851" width="100%" height="100%" x="0" y="0" transform="translate(-2342.374,304.94946)" xlink:href="#h"/><use id="use4853" width="100%" height="100%" x="0" y="0" transform="translate(-2270.5658,304.94946)" xlink:href="#i"/><use id="use4855" width="100%" height="100%" x="0" y="0" transform="translate(-2165.586,304.94946)" xlink:href="#j"/><use id="use4857" width="100%" height="100%" x="0" y="0" transform="translate(-2399.9477,330.3683)" xlink:href="#k"/><use id="use4859" width="100%" height="100%" x="0" y="0" transform="translate(-2291.6211,330.3683)" xlink:href="#l"/><use id="use4861" width="100%" height="100%" x="0" y="0" transform="translate(-2242.9864,330.3683)" xlink:href="#m"/><use id="use4863" width="100%" height="100%" x="0" y="0" transform="translate(-2197.5502,330.3683)" xlink:href="#n"/><use id="use4865" width="100%" height="100%" x="0" y="0" transform="translate(-2165.4377,330.3683)" xlink:href="#o"/><use id="use4867" width="100%" height="100%" x="0" y="0" transform="translate(-2139.6588,330.3683)" xlink:href="#p"/><use id="use4869" width="100%" height="100%" x="0" y="0" transform="translate(-2399.9477,355.78714)" xlink:href="#q"/><use id="use4871" width="100%" height="100%" x="0" y="0" transform="translate(-2321.6153,355.78714)" xlink:href="#r"/><use id="use4873" width="100%" height="100%" x="0" y="0" transform="translate(-2214.8774,355.78714)" xlink:href="#s"/><use id="use4875" width="100%" height="100%" x="0" y="0" transform="translate(-2191.1107,355.78714)" xlink:href="#t"/><use id="use4877" width="100%" height="100%" x="0" y="0" transform="translate(-2158.8288,355.78714)" xlink:href="#u"/><use id="use4879" width="100%" height="100%" x="0" y="0" transform="translate(-2131.2706,355.78714)" xlink:href="#v"/><use id="use4881" width="100%" height="100%" x="0" y="0" transform="translate(-2075.1797,355.78714)" xlink:href="#w"/><use id="use4883" width="100%" height="100%" x="0" y="0" transform="translate(-2399.9477,381.20598)" xlink:href="#x"/><use id="use4885" width="100%" height="100%" x="0" y="0" transform="translate(-2290.4349,381.20598)" xlink:href="#y"/></g><path id="path4889" d="m -2404.95,210.16 c 0,-4.42 3.58,-8 8,-8 h 354.4 c 4.4,0 8,3.58 8,8 v 43.12 c 0,4.42 -3.6,8 -8,8 h -354.4 c -4.42,0 -8,-3.58 -8,-8 z" style="fill:url(#z);stroke:#000;stroke-width:2;stroke-opacity:0"/><path id="path4891" d="m -2386.52,201.28 h 298.6 v 35.38 h -298.6 z" style="fill:#fff;fill-opacity:0;stroke:#000;stroke-width:2;stroke-opacity:0"/><use id="use4893" width="100%" height="100%" x="0" y="0" transform="translate(-2381.5175,223.92341)" xlink:href="#A"/><use id="use4895" width="100%" height="100%" x="0" y="0" transform="translate(-2340.4952,223.92341)" xlink:href="#B"/><use id="use4897" width="100%" height="100%" x="0" y="0" transform="translate(-2278.9619,223.92341)" xlink:href="#C"/><use id="use4899" width="100%" height="100%" x="0" y="0" transform="translate(-2248.1952,223.92341)" xlink:href="#D"/><path id="path4901" d="m -2404.95,62.54 h 120 v 60 h -120 z" style="fill:#fff;fill-opacity:0;stroke:#000;stroke-width:2;stroke-opacity:0"/><use id="use4903" width="100%" height="100%" x="0" y="0" transform="translate(-2367.5699,85.082367)" xlink:href="#E"/><path id="path4905" d="m -2404.95,104.92 c 0,-2.2 1.8,-4 4,-4 h 112 c 2.2,0 4,1.8 4,4 V 175 c 0,2.2 -1.8,4 -4,4 h -112 c -2.2,0 -4,-1.8 -4,-4 z" style="fill:#fff;stroke:#999;stroke-width:2;stroke-opacity:.4;filter:url(#F)"/><path id="path4907" d="m -2337.4,143.75 c 3.7,0 6.84,0.5 9.4,1.5 2.14,0.84 3.84,2 5.1,3.45 2.18,2.58 2.18,5.16 2.18,5.26 0,1.88 -1.6,3.42 -3.58,3.42 h -26.18 c -1.94,0 -3.54,-1.54 -3.54,-3.42 v -0.07 c 0,-0.43 0.15,-2.83 2.18,-5.2 1.26,-1.46 2.96,-2.6 5.04,-3.45 2.57,-1 5.72,-1.5 9.4,-1.5 z m -19.2,1.5 c 0.5,0 0.93,0.04 1.37,0.04 0.68,0.02 1.2,0.6 1.16,1.28 0,0.66 -0.63,1.18 -1.3,1.15 -0.4,-0.04 -0.78,-0.04 -1.22,-0.04 -9.78,0 -10.07,5.74 -10.07,6.05 0,0.67 0.58,1.2 1.26,1.2 h 7.55 c 0.73,0 1.26,0.55 1.26,1.2 0,0.67 -0.52,1.23 -1.25,1.23 h -7.56 c -2.1,0 -3.8,-1.64 -3.8,-3.63 v -0.07 c 0,-0.38 0.15,-2.37 1.7,-4.32 0.93,-1.22 2.23,-2.16 3.83,-2.85 1.94,-0.83 4.32,-1.25 7.08,-1.25 z m 19.2,0.77 c -5.86,0 -10.17,1.4 -12.5,4 -1.7,1.92 -1.74,3.87 -1.74,3.94 0,0.63 0.53,1.15 1.16,1.15 h 26.18 c 0.67,0 1.2,-0.5 1.2,-1.14 0,-0.07 -0.1,-2.02 -1.74,-3.93 -2.32,-2.62 -6.7,-4 -12.55,-4 z m -19.67,-15.92 c 4.17,0 7.56,3.06 7.56,6.82 0,3.77 -3.4,6.83 -7.57,6.83 -4.17,0 -7.56,-3.06 -7.56,-6.83 0,-3.76 3.4,-6.82 7.56,-6.82 z m 0,2.3 c -2.77,0 -5.04,2.02 -5.04,4.52 0,2.5 2.26,4.53 5.03,4.53 2.76,0 5.04,-2.02 5.04,-4.53 0,-2.5 -2.28,-4.52 -5.04,-4.52 z m 18.95,-9.86 c 5.43,0 9.84,4.07 9.84,9.1 0,5 -4.4,9.08 -9.84,9.08 -5.43,0 -9.84,-4.07 -9.84,-9.1 0,-5 4.4,-9.08 9.84,-9.08 z m 0,2.26 c -4.07,0 -7.42,3.07 -7.42,6.83 0,3.76 3.35,6.83 7.42,6.83 4.07,0 7.37,-3.07 7.37,-6.83 0,-3.76 -3.3,-6.83 -7.37,-6.83 z" style="fill:#651fff;stroke:#000;stroke-opacity:0"/><path id="path4909" d="m -1497.9,149.02 c 0.2,0.16 0.3,0.45 0.18,0.7 -0.6,1.93 -1.68,3.75 -3,5.3 -0.18,0.2 -0.45,0.28 -0.7,0.18 l -3.8,-1.34 c -0.96,0.76 -2,1.37 -3.15,1.85 l -0.75,4 c -0.06,0.24 -0.27,0.5 -0.54,0.52 -1,0.2 -1.98,0.3 -3,0.3 -1.02,0 -2,-0.1 -3,-0.3 -0.27,-0.03 -0.48,-0.28 -0.54,-0.5 l -0.75,-4 c -1.14,-0.5 -2.22,-1.1 -3.15,-1.86 l -3.8,1.34 c -0.25,0.1 -0.52,0.03 -0.7,-0.2 -1.32,-1.53 -2.4,-3.35 -3,-5.27 -0.12,-0.26 -0.03,-0.55 0.18,-0.7 l 3.03,-2.66 c -0.1,-0.58 -0.14,-1.22 -0.14,-1.86 0,-0.6 0.03,-1.24 0.15,-1.84 l -3.02,-2.66 c -0.2,-0.16 -0.3,-0.45 -0.18,-0.7 0.6,-1.92 1.68,-3.75 3,-5.25 0.18,-0.23 0.45,-0.32 0.7,-0.2 l 3.8,1.35 c 0.93,-0.8 2,-1.4 3.15,-1.86 l 0.75,-4 c 0.06,-0.25 0.27,-0.5 0.54,-0.5 1.98,-0.42 4.02,-0.42 6,0 0.27,0 0.48,0.25 0.54,0.5 l 0.75,4 c 1.14,0.45 2.2,1.06 3.15,1.86 l 3.8,-1.34 c 0.25,-0.13 0.52,-0.04 0.7,0.2 1.32,1.5 2.4,3.32 3,5.24 0.12,0.25 0.03,0.54 -0.18,0.7 l -3.03,2.66 c 0.12,0.6 0.15,1.24 0.15,1.85 0,0.65 -0.03,1.3 -0.15,1.87 l 3.03,2.65 z m -14.73,5.8 c 5.64,0 10.23,-4.6 10.23,-10.3 0,-5.7 -4.6,-10.3 -10.23,-10.3 -5.67,0 -10.23,4.6 -10.23,10.3 0,5.7 4.56,10.3 10.23,10.3 z m 0,-1.28 c -4.95,0 -8.94,-4.04 -8.94,-9.03 0,-4.98 4,-9 8.94,-9 4.92,0 8.94,4.02 8.94,9 0,5 -4,9.04 -8.93,9.04 z m -5,-13.25 v 2.52 h 3.74 v 6.33 h 2.92 v -6.33 h 3.75 v -2.53 h -10.4 z" style="fill:#fff;stroke:#000;stroke-opacity:0"/><path id="path4911" d="m -1509.9,281.5 c 1.22,0 2.24,1 2.24,2.24 v 19.5 c 0,1.24 -1.02,2.25 -2.25,2.25 h -25.5 c -1.24,0 -2.26,-1.02 -2.26,-2.27 v -19.5 c 0,-1.23 1.02,-2.24 2.25,-2.24 h 25.5 z m 0,1.5 h -25.5 c -0.43,0 -0.76,0.34 -0.76,0.74 v 19.5 c 0,0.42 0.33,0.76 0.75,0.76 h 25.5 c 0.4,0 0.74,-0.34 0.74,-0.77 v -19.5 c 0,-0.4 -0.33,-0.73 -0.75,-0.73 z m -22.1,3.12 4.5,3 c 0.22,0.14 0.34,0.36 0.34,0.62 0,0.24 -0.12,0.48 -0.33,0.63 l -4.5,3 c -0.08,0.05 -0.2,0.1 -0.3,0.12 h -0.1 c -0.25,0 -0.5,-0.13 -0.64,-0.35 -0.2,-0.33 -0.12,-0.8 0.2,-1.03 l 3.58,-2.38 -3.57,-2.37 c -0.33,-0.24 -0.42,-0.7 -0.2,-1.06 0.23,-0.32 0.68,-0.42 1.04,-0.18 z m 11.6,5.88 c 0.4,0 0.74,0.34 0.74,0.74 0,0.4 -0.33,0.75 -0.75,0.75 h -4.5 c -0.43,0 -0.76,-0.35 -0.76,-0.76 0,-0.4 0.33,-0.74 0.75,-0.74 h 4.5 z" style="fill:#fff;fill-opacity:.3;stroke:#000;stroke-opacity:0"/><path id="path4913" d="m -1572.66,122.5 c 0,-2.22 1.8,-4 4,-4 h 212 c 2.2,0 4,1.78 4,4 v 43.27 c 0,2.2 -1.8,4 -4,4 h -212 c -2.2,0 -4,-1.8 -4,-4 z" style="fill:url(#G);stroke:#000;stroke-width:2;stroke-opacity:0"/><path id="path4915" d="m -1572.66,122.5 c 0,-2.22 1.8,-4 4,-4 h 212 c 2.2,0 4,1.78 4,4 v 42 c 0,2.2 -1.8,4 -4,4 h -212 c -2.2,0 -4,-1.8 -4,-4 z" style="fill:#fff;fill-opacity:0;stroke:#fff;stroke-width:1.5;stroke-opacity:.3"/><path id="path4917" d="m -1521.27,123 c 0,-2.2 1.8,-4 4,-4 h 160.6 c 2.22,0 4,1.8 4,4 v 42 c 0,2.2 -1.78,4 -4,4 h -160.6 c -2.2,0 -4,-1.8 -4,-4 z" style="fill:#fff;fill-opacity:0;stroke:#000;stroke-width:2;stroke-opacity:0"/><use id="use4919" width="100%" height="100%" x="0" y="0" transform="translate(-1495.2745,150.776)" xlink:href="#H"/><path id="path4921" d="m -1521.4,129.28 c 0.25,0 0.53,0.03 0.77,0.16 l 9.57,4.62 c 0.47,0.24 0.85,0.64 1.02,1.15 l 2.36,10.34 c 0.08,0.54 -0.06,1.07 -0.36,1.52 l -6.64,8.26 c -0.33,0.48 -0.87,0.72 -1.42,0.66 h -10.53 c -0.55,-0.05 -1.07,-0.3 -1.45,-0.66 l -6.6,-8.26 c -0.34,-0.45 -0.45,-0.98 -0.37,-1.52 l 2.36,-10.4 c 0.12,-0.52 0.48,-0.92 0.94,-1.16 l 9.57,-4.65 c 0.26,-0.05 0.53,-0.05 0.8,-0.05 z m -0.46,3.66 c -0.1,0.13 -0.2,0.3 -0.2,0.43 v 0.16 c 0,0.13 0.04,0.24 0.1,0.37 0.02,0.05 0.02,0.1 0.02,0.2 0.05,0.33 0.05,0.68 0.05,1.05 0,0.08 -0.04,0.2 -0.15,0.25 v 0.05 l -0.03,0.24 -1.04,0.15 c -1.45,0.32 -2.8,1.07 -3.8,2.14 l -0.2,-0.12 h -0.03 c -0.03,0 -0.06,0.03 -0.1,0.03 -0.1,0 -0.15,-0.02 -0.2,-0.05 -0.28,-0.2 -0.58,-0.45 -0.77,-0.72 l -0.14,-0.1 -0.24,-0.3 c -0.03,-0.03 -0.06,-0.03 -0.1,-0.05 v -0.03 c -0.15,-0.08 -0.32,-0.16 -0.45,-0.16 -0.2,0 -0.36,0.07 -0.44,0.2 -0.18,0.3 -0.13,0.64 0.12,0.86 0.05,0 0.05,0.05 0.05,0.05 0,0 0.06,0.06 0.08,0.06 0.1,0.06 0.22,0.1 0.33,0.2 0.1,0.02 0.14,0.05 0.2,0.07 0.3,0.2 0.63,0.38 0.87,0.62 0.06,0.05 0.1,0.13 0.1,0.2 v 0.04 l 0.18,0.17 -0.08,0.16 c -0.96,1.5 -1.38,3.3 -1.1,5.02 l -0.25,0.06 c 0,0.03 -0.03,0.03 -0.03,0.03 -0.02,0.1 -0.13,0.16 -0.22,0.22 -0.32,0.1 -0.68,0.16 -1.04,0.18 -0.07,0 -0.12,0 -0.18,0.03 -0.14,0 -0.25,0.03 -0.38,0.03 -0.03,0 -0.06,0.04 -0.1,0.04 -0.04,0 -0.04,0 -0.1,0.03 -0.3,0.05 -0.52,0.32 -0.5,0.6 v 0.1 c 0.1,0.26 0.37,0.45 0.64,0.42 0.06,0 0.08,0 0.17,-0.04 0.02,0 0.02,0 0.02,-0.02 0,-0.03 0.1,0 0.1,0 0.15,-0.03 0.26,-0.1 0.37,-0.14 0.06,-0.02 0.1,-0.05 0.16,-0.05 h 0.06 c 0.33,-0.13 0.63,-0.2 1,-0.27 h 0.04 c 0.08,0 0.2,0.03 0.25,0.08 0.03,0 0.03,0.03 0.03,0.03 l 0.27,-0.04 c 0.47,1.42 1.34,2.67 2.55,3.58 0.27,0.2 0.52,0.4 0.82,0.56 l -0.13,0.22 v 0.02 c 0.07,0.1 0.07,0.22 0.04,0.32 -0.14,0.3 -0.3,0.6 -0.5,0.88 v 0.03 c -0.02,0.05 -0.05,0.08 -0.13,0.16 -0.05,0.05 -0.1,0.2 -0.2,0.3 -0.04,0.02 -0.04,0.05 -0.06,0.1 0,0 0,0.03 -0.03,0.03 -0.16,0.3 -0.02,0.67 0.25,0.83 0.06,0 0.17,0.04 0.22,0.04 0.25,0 0.47,-0.16 0.58,-0.37 0,0 0,-0.03 0.05,-0.03 0,-0.03 0.03,-0.05 0.06,-0.08 0.03,-0.14 0.08,-0.22 0.1,-0.35 l 0.1,-0.18 c 0.07,-0.32 0.24,-0.64 0.38,-0.93 0.08,-0.12 0.16,-0.17 0.24,-0.2 0.03,0 0.03,0 0.03,-0.02 l 0.15,-0.27 c 0.87,0.36 1.75,0.52 2.68,0.52 0.58,0 1.13,-0.08 1.68,-0.22 0.36,-0.08 0.7,-0.18 1,-0.3 l 0.13,0.22 c 0.03,0 0.03,0 0.03,0.06 0.08,0.02 0.2,0.08 0.24,0.16 0.17,0.32 0.3,0.6 0.42,0.96 v 0.02 l 0.05,0.2 0.1,0.34 c 0.07,0.03 0.07,0.05 0.1,0.08 0,0 0,0.03 0.02,0.03 0.1,0.2 0.32,0.37 0.57,0.37 0.1,0 0.16,-0.03 0.24,-0.05 0.15,-0.1 0.26,-0.2 0.3,-0.36 0.04,-0.16 0.04,-0.3 -0.04,-0.46 0,-0.02 -0.03,-0.02 -0.03,-0.02 0,-0.03 -0.03,-0.08 -0.05,-0.1 -0.06,-0.12 -0.14,-0.22 -0.22,-0.3 l -0.1,-0.16 v -0.06 c -0.23,-0.3 -0.4,-0.58 -0.53,-0.88 -0.03,-0.1 -0.03,-0.2 0.05,-0.32 0,-0.02 0.03,-0.02 0.03,-0.02 l -0.1,-0.24 c 1.6,-0.97 2.8,-2.44 3.34,-4.17 l 0.25,0.04 c 0.02,0 0.02,-0.03 0.02,-0.03 0.08,-0.04 0.16,-0.1 0.25,-0.1 h 0.05 c 0.33,0.08 0.66,0.16 1,0.3 h 0.02 c 0.05,0.02 0.1,0.05 0.2,0.05 0.1,0.05 0.18,0.13 0.32,0.16 0.02,0 0.05,0.04 0.13,0.04 l 0.05,0.02 c 0.05,0.03 0.08,0.03 0.14,0.03 0.3,0 0.53,-0.2 0.62,-0.44 -0.03,-0.32 -0.28,-0.58 -0.55,-0.64 -0.03,0 -0.08,0 -0.08,-0.03 0,-0.03 -0.07,-0.03 -0.12,-0.03 -0.1,-0.03 -0.17,-0.03 -0.25,-0.03 h -0.14 c -0.06,0 -0.12,0 -0.17,-0.05 h -0.06 c -0.33,-0.04 -0.7,-0.1 -1.04,-0.17 -0.08,-0.03 -0.14,-0.1 -0.2,-0.16 l -0.02,-0.06 -0.24,-0.07 c 0.14,-0.88 0.06,-1.8 -0.1,-2.7 -0.22,-0.87 -0.6,-1.73 -1.1,-2.5 l 0.2,-0.16 v -0.06 c 0,-0.07 0.02,-0.2 0.07,-0.25 0.28,-0.24 0.58,-0.43 0.88,-0.62 l 0.2,-0.08 c 0.1,-0.08 0.22,-0.13 0.33,-0.2 0.03,0 0.06,0 0.08,-0.04 0.07,-0.04 0,-0.04 0,-0.07 0.3,-0.2 0.37,-0.6 0.15,-0.85 -0.08,-0.1 -0.27,-0.22 -0.44,-0.22 -0.13,0 -0.3,0.06 -0.43,0.16 l -0.03,0.03 c -0.02,0.03 -0.05,0.05 -0.08,0.05 -0.1,0.1 -0.2,0.2 -0.24,0.3 -0.03,0.05 -0.1,0.08 -0.14,0.1 -0.22,0.24 -0.5,0.5 -0.77,0.67 -0.04,0.06 -0.1,0.08 -0.18,0.08 -0.03,0 -0.08,0 -0.1,-0.02 h -0.04 l -0.24,0.13 c -0.25,-0.24 -0.55,-0.48 -0.8,-0.72 -1.12,-0.88 -2.55,-1.44 -4,-1.6 l -0.03,-0.24 v 0.02 c -0.1,-0.05 -0.13,-0.16 -0.16,-0.24 0,-0.35 0,-0.67 0.06,-1.04 v -0.03 l 0.03,-0.17 c 0.02,-0.14 0.02,-0.24 0.08,-0.38 v -0.18 c 0.04,-0.3 -0.2,-0.62 -0.54,-0.65 -0.16,-0.02 -0.36,0.08 -0.52,0.22 z m 0.63,13.1 c 0.08,0.06 0.14,0.14 0.25,0.22 l 1.48,2.67 -0.6,0.1 c -0.42,0.12 -0.86,0.17 -1.32,0.17 -0.66,0 -1.34,-0.13 -1.95,-0.3 l 1.5,-2.72 c 0.17,-0.18 0.42,-0.26 0.64,-0.13 z m -2.82,-1.3 c 0.24,0 0.5,0.14 0.52,0.4 0.02,0.08 0.02,0.22 -0.03,0.3 l -1.18,2.8 c -1.07,-0.7 -1.95,-1.76 -2.38,-3 z m 5.23,-0.05 3.1,0.52 c -0.16,0.43 -0.35,0.83 -0.6,1.18 -0.47,0.72 -1.1,1.36 -1.87,1.8 l -1.2,-2.84 c -0.05,-0.27 0.1,-0.5 0.3,-0.6 0.1,-0.02 0.17,-0.07 0.28,-0.07 z m -2.14,-2.44 0.58,0.72 -0.22,0.9 -0.82,0.38 -0.85,-0.37 -0.2,-0.92 0.58,-0.72 h 0.94 z m 4.67,-2.2 c 0.36,0.57 0.6,1.18 0.75,1.82 0.16,0.65 0.2,1.3 0.13,1.93 l -2.93,-0.82 c -0.27,-0.05 -0.44,-0.32 -0.38,-0.62 0.02,-0.08 0.05,-0.13 0.13,-0.2 l 2.3,-2.1 z m -10.3,0 2.3,2.04 c 0.22,0.18 0.25,0.48 0.05,0.7 -0.05,0.1 -0.1,0.13 -0.24,0.15 l -2.98,0.86 c -0.1,-1.27 0.22,-2.58 0.88,-3.73 z m 4.4,-2.8 -0.15,3.08 c 0,0.26 -0.25,0.48 -0.52,0.48 -0.1,0 -0.17,-0.03 -0.25,-0.06 l -2.58,-1.8 c 0.8,-0.8 1.8,-1.32 2.88,-1.56 l 0.63,-0.14 z m 1.5,0.03 c 1.36,0.15 2.57,0.74 3.47,1.65 l -2.52,1.76 c -0.22,0.14 -0.52,0.12 -0.68,-0.1 -0.06,-0.05 -0.1,-0.13 -0.1,-0.2 l -0.18,-3.1 z" style="fill:#fff;stroke:#000;stroke-opacity:0"/><path id="path4923" d="m -1674.95,143.13 h 83.8 v 2 h -85.8 v -39.77 h 2 z m 0,-59.37 h -2 V 46 h -101.3 v -2 h 103.3 z" style="fill:#651fff"/><path id="path4925" d="m -1778.22,46 h -1.03 v -2 h 1.03 z m 202.32,98.13 -14.26,4.63 v -9.27 z" style="fill:#651fff"/><path id="path4927" d="m -1572.66,144.13 -18.5,6 v -12 z m -16.5,3.26 10.03,-3.27 -10.03,-3.26 z" style="fill:#651fff"/><use id="use4929" width="100%" height="100%" x="0" y="0" transform="translate(-1767.3254,101.52999)" xlink:href="#a"/><use id="use4931" width="100%" height="100%" x="0" y="0" transform="translate(-1763.8514,101.52999)" xlink:href="#b"/><use id="use4933" width="100%" height="100%" x="0" y="0" transform="translate(-1699.9064,101.52999)" xlink:href="#c"/><use id="use4935" width="100%" height="100%" x="0" y="0" transform="translate(-1670.5304,101.52999)" xlink:href="#d"/><use id="use4937" width="100%" height="100%" x="0" y="0" transform="translate(-1625.0444,101.52999)" xlink:href="#I"/><path id="path4939" d="m -1747.63,210.16 c 0,-4.42 3.58,-8 8,-8 h 378.97 c 4.42,0 8,3.58 8,8 v 43.12 c 0,4.42 -3.58,8 -8,8 h -378.97 c -4.42,0 -8,-3.58 -8,-8 z" style="fill:url(#J);stroke:#000;stroke-width:2;stroke-opacity:0"/><path id="path4941" d="m -1734.87,202.16 h 368.48 v 47.87 h -368.47 z" style="fill:#fff;fill-opacity:0;stroke:#000;stroke-width:2;stroke-opacity:0"/><g id="g4951"><use id="use4943" width="100%" height="100%" x="0" y="0" transform="translate(-1729.8681,221.55027)" xlink:href="#K"/><use id="use4945" width="100%" height="100%" x="0" y="0" transform="translate(-1545.2681,221.55027)" xlink:href="#L"/><use id="use4947" width="100%" height="100%" x="0" y="0" transform="translate(-1729.8681,240.48361)" xlink:href="#M"/><use id="use4949" width="100%" height="100%" x="0" y="0" transform="translate(-1535.0126,240.48361)" xlink:href="#N"/></g><path id="path4953" d="m -2000,24 c 0,-2.2 1.8,-4 4,-4 h 212 c 2.2,0 4,1.8 4,4 v 42.5 c 0,2.22 -1.8,4 -4,4 h -212 c -2.2,0 -4,-1.78 -4,-4 z" style="fill:url(#O);stroke:#000;stroke-width:2;stroke-opacity:0"/><path id="path4955" d="m -1950.65,24.5 c 0,-2.2 1.8,-4 4,-4 H -1784 c 2.2,0 4,1.8 4,4 v 42 c 0,2.22 -1.8,4 -4,4 h -162.65 c -2.2,0 -4,-1.78 -4,-4 z" style="fill:#fff;fill-opacity:0;stroke:#000;stroke-width:2;stroke-opacity:0"/><g id="g4959"><use id="use4957" width="100%" height="100%" x="0" y="0" transform="translate(-1910.9932,52.2879)" xlink:href="#P"/></g><path id="path4961" d="m -2000,24 c 0,-2.2 1.8,-4 4,-4 h 212 c 2.2,0 4,1.8 4,4 v 42 c 0,2.2 -1.8,4 -4,4 h -212 c -2.2,0 -4,-1.8 -4,-4 z" style="fill:#fff;fill-opacity:0;stroke:#fff;stroke-width:1.5;stroke-opacity:.3"/><path id="path4963" d="m -1925.24,50.54 c 0.2,0.16 0.3,0.44 0.18,0.7 -0.6,1.92 -1.68,3.74 -3,5.28 -0.18,0.22 -0.45,0.3 -0.7,0.2 l -3.8,-1.35 c -0.96,0.77 -2,1.37 -3.15,1.85 l -0.76,4 c -0.06,0.23 -0.27,0.48 -0.54,0.52 -1,0.2 -1.98,0.28 -3,0.28 -1.02,0 -2,-0.1 -3,-0.28 -0.27,-0.04 -0.48,-0.3 -0.54,-0.52 l -0.75,-4 c -1.13,-0.48 -2.2,-1.08 -3.14,-1.85 l -3.8,1.34 c -0.25,0.1 -0.52,0.04 -0.7,-0.18 -1.32,-1.54 -2.4,-3.36 -3,-5.28 -0.12,-0.26 -0.03,-0.54 0.18,-0.7 l 3.03,-2.66 c -0.12,-0.58 -0.15,-1.22 -0.15,-1.86 0,-0.6 0.03,-1.24 0.15,-1.85 l -3.03,-2.66 c -0.2,-0.15 -0.3,-0.44 -0.18,-0.7 0.6,-1.9 1.68,-3.74 3,-5.24 0.18,-0.22 0.45,-0.32 0.7,-0.2 l 3.8,1.35 c 0.93,-0.8 2,-1.4 3.15,-1.84 l 0.76,-4 c 0.06,-0.26 0.27,-0.52 0.54,-0.52 1.98,-0.4 4.02,-0.4 6,0 0.27,0 0.48,0.26 0.54,0.52 l 0.75,4 c 1.13,0.44 2.18,1.05 3.14,1.85 l 3.8,-1.33 c 0.25,-0.13 0.52,-0.03 0.7,0.2 1.32,1.5 2.4,3.32 3,5.24 0.12,0.26 0.03,0.55 -0.18,0.7 l -3.03,2.67 c 0.12,0.6 0.15,1.25 0.15,1.85 0,0.64 -0.03,1.28 -0.15,1.86 l 3.03,2.66 z m -14.73,5.8 c 5.64,0 10.23,-4.62 10.23,-10.32 0,-5.7 -4.6,-10.3 -10.23,-10.3 -5.67,0 -10.23,4.6 -10.23,10.3 0,5.7 4.56,10.3 10.23,10.3 z m 0,-1.3 c -4.95,0 -8.94,-4.02 -8.94,-9.02 0,-5 3.98,-9.02 8.93,-9.02 4.92,0 8.94,4.03 8.94,9.02 0,5 -4.02,9.03 -8.94,9.03 z m -5,-13.24 v 2.53 h 3.74 v 6.33 h 2.9 v -6.33 h 3.76 V 41.8 Z" style="fill:#fff;stroke:#000;stroke-opacity:0"/><g id="g4991" style="filter:url(#Q)"><path id="path4965" d="m -1747.63,283.04 c 0,-2.2 1.8,-4 4,-4 h 386.97 c 2.2,0 4,1.8 4,4 v 152 c 0,2.2 -1.8,4 -4,4 h -386.97 c -2.2,0 -4,-1.8 -4,-4 z" style="fill:#fff;stroke:#651fff;stroke-width:2"/><use id="use4967" width="100%" height="100%" x="0" y="0" transform="translate(-1742.6328,304.94946)" xlink:href="#R"/><use id="use4969" width="100%" height="100%" x="0" y="0" transform="translate(-1660.7418,304.94946)" xlink:href="#S"/><use id="use4971" width="100%" height="100%" x="0" y="0" transform="translate(-1585.7774,304.94946)" xlink:href="#T"/><use id="use4973" width="100%" height="100%" x="0" y="0" transform="translate(-1547.3314,304.94946)" xlink:href="#U"/><use id="use4975" width="100%" height="100%" x="0" y="0" transform="translate(-1459.2551,304.94946)" xlink:href="#V"/><use id="use4977" width="100%" height="100%" x="0" y="0" transform="translate(-1742.6328,330.3683)" xlink:href="#W"/><use id="use4979" width="100%" height="100%" x="0" y="0" transform="translate(-1658.5176,330.3683)" xlink:href="#X"/><use id="use4981" width="100%" height="100%" x="0" y="0" transform="translate(-1528.6062,330.3683)" xlink:href="#Y"/><use id="use4983" width="100%" height="100%" x="0" y="0" transform="translate(-1513.7785,330.3683)" xlink:href="#Z"/><use id="use4985" width="100%" height="100%" x="0" y="0" transform="translate(-1469.0837,330.3683)" xlink:href="#aa"/><use id="use4987" width="100%" height="100%" x="0" y="0" transform="translate(-1742.6328,355.78714)" xlink:href="#x"/><use id="use4989" width="100%" height="100%" x="0" y="0" transform="translate(-1633.12,355.78714)" xlink:href="#ab"/></g><path id="path4993" d="m -2196.56,456.8 h 675.3 v 99.03 h -675.3 z" style="fill:#fff;fill-opacity:0;stroke:#000;stroke-width:2;stroke-opacity:0"/><g id="g5003"><use id="use4995" width="100%" height="100%" x="0" y="0" transform="translate(-2134.7074,520.91283)" xlink:href="#ac"/><use id="use4997" width="100%" height="100%" x="0" y="0" transform="translate(-1987.9813,520.91283)" xlink:href="#ad"/><use id="use4999" width="100%" height="100%" x="0" y="0" transform="translate(-1786.4114,520.91283)" xlink:href="#ae"/><use id="use5001" width="100%" height="100%" x="0" y="0" transform="translate(-1665.2802,520.91283)" xlink:href="#af"/></g><defs id="defs5883"><path id="ag" d="m 382,-1486 v 851 c 54,1 89,-1 115,-33 l 255,-315 c 22,-25 41,-43 86,-43 h 226 c -118,139 -232,284 -354,420 -11,12 -25,21 -39,30 29,21 48,49 69,78 L 1082,0 H 859 C 815,-1 794,-15 774,-44 L 513,-433 c -20,-29 -30,-36 -75,-37 H 382 V 0 H 135 v -1486 h 247"/><path id="ah" d="M 457,16 C 223,16 111,-139 111,-374 v -652 h 247 v 652 c 0,121 55,198 174,197 102,-1 168,-51 226,-107 v -742 h 247 V 0 C 925,-9 806,29 791,-45 l -17,-82 C 697,-50 608,16 457,16"/><path id="ai" d="M 638,15 C 504,15 430,-43 369,-117 359,-65 364,0 298,0 H 135 v -1486 h 247 v 586 c 77,-79 169,-142 318,-142 277,0 379,230 379,521 0,241 -97,412 -259,495 C 766,1 705,15 638,15 Z m 186,-536 c 0,-181 -37,-329 -209,-329 -117,0 -175,55 -233,124 v 460 c 48,61 104,93 199,93 187,0 243,-152 243,-348"/><path id="aj" d="M 991,-153 C 899,-47 760,15 568,15 237,15 63,-197 63,-535 c 0,-237 116,-392 287,-467 61,-27 129,-40 206,-40 287,0 444,174 444,465 0,54 -3,95 -57,95 H 309 c 4,226 158,349 385,292 52,-13 93,-39 132,-62 32,-19 73,-16 93,9 z M 778,-631 c -4,-143 -73,-234 -217,-234 -154,0 -226,95 -247,234 h 464"/><path id="ak" d="M 928,-153 C 839,-49 712,15 524,15 297,15 166,-116 100,-290 53,-413 51,-596 96,-724 c 67,-190 213,-318 465,-318 165,0 270,58 357,143 -29,37 -52,81 -86,112 -71,26 -104,-41 -170,-55 -24,-5 -52,-12 -86,-12 -192,5 -260,143 -260,339 0,194 67,336 254,342 98,3 148,-38 200,-79 26,-20 67,-17 87,9"/><path id="al" d="M 738,-75 C 674,-20 580,15 469,16 293,18 192,-93 192,-268 v -573 c -65,-4 -153,21 -153,-52 v -98 l 165,-27 52,-280 c 10,-66 115,-35 183,-42 v 323 h 270 v 176 H 439 v 556 c -1,59 32,101 88,102 48,1 68,-25 104,-34 19,1 25,9 33,22"/><path id="am" d="M 395,-1486 V 0 H 148 v -1486 h 247"/><g id="b"><use id="use5012" width="100%" height="100%" x="0" y="0" transform="scale(0.009)" xlink:href="#ag"/><use id="use5014" width="100%" height="100%" x="0" y="0" transform="matrix(0.009,0,0,0.009,9.927,0)" xlink:href="#ah"/><use id="use5016" width="100%" height="100%" x="0" y="0" transform="matrix(0.009,0,0,0.009,20.16,0)" xlink:href="#ai"/><use id="use5018" width="100%" height="100%" x="0" y="0" transform="matrix(0.009,0,0,0.009,30.42,0)" xlink:href="#aj"/><use id="use5020" width="100%" height="100%" x="0" y="0" transform="matrix(0.009,0,0,0.009,40.041,0)" xlink:href="#ak"/><use id="use5022" width="100%" height="100%" x="0" y="0" transform="matrix(0.009,0,0,0.009,48.627,0)" xlink:href="#al"/><use id="use5024" width="100%" height="100%" x="0" y="0" transform="matrix(0.009,0,0,0.009,55.593,0)" xlink:href="#am"/></g><path id="an" d="M 247,-436 C 153,-487 80,-575 80,-712 c 0,-228 174,-332 407,-332 92,0 169,20 230,53 h 295 c -4,63 19,133 -53,146 l -92,17 c 30,74 25,184 -9,254 -72,146 -265,223 -484,183 -51,27 -68,81 -20,111 145,54 395,5 528,91 60,38 108,95 104,193 C 978,186 850,279 700,330 528,389 256,358 144,278 83,234 32,179 32,90 c 0,-112 77,-164 166,-199 -49,-28 -87,-70 -84,-147 4,-94 65,-143 133,-180 z M 494,185 C 626,185 746,165 758,46 748,-52 629,-47 530,-56 467,-62 398,-61 339,-69 292,-42 246,-7 246,58 246,170 369,185 494,185 Z M 305,-706 c 0,111 68,168 182,168 114,0 182,-56 182,-168 0,-107 -68,-165 -182,-165 -114,0 -182,58 -182,165"/><g id="c"><use id="use5028" width="100%" height="100%" x="0" y="0" transform="scale(0.009)" xlink:href="#an"/><use id="use5030" width="100%" height="100%" x="0" y="0" transform="matrix(0.009,0,0,0.009,9.315,0)" xlink:href="#aj"/><use id="use5032" width="100%" height="100%" x="0" y="0" transform="matrix(0.009,0,0,0.009,18.936,0)" xlink:href="#al"/></g><path id="ao" d="M 635,15 C 514,15 442,-25 379,-85 V 335 H 132 v -1361 c 64,5 145,-11 192,11 33,24 28,86 42,129 78,-86 174,-159 331,-159 277,0 379,232 379,524 0,241 -96,412 -258,495 C 764,1 702,15 635,15 Z m 186,-536 c 0,-181 -37,-329 -209,-329 -117,0 -175,55 -233,124 v 460 c 48,60 104,93 198,93 188,0 244,-152 244,-348"/><path id="ap" d="m 361,-1005 c 121,-49 297,-49 417,0 184,74 298,236 298,490 0,330 -178,530 -506,530 -329,0 -509,-200 -509,-530 0,-254 115,-416 300,-490 z m -45,492 c 0,201 65,338 254,338 188,0 251,-137 251,-338 0,-201 -63,-340 -251,-340 -189,0 -254,139 -254,340"/><path id="aq" d="m 502,-1045 c 120,-1 193,43 256,101 v -542 h 247 V 0 C 925,-9 806,29 791,-45 l -20,-99 C 693,-58 601,15 441,15 163,15 61,-217 61,-510 c 0,-241 98,-411 259,-494 54,-27 115,-41 182,-41 z m -186,535 c 0,181 36,329 209,329 118,0 173,-54 233,-123 v -460 c -48,-59 -104,-93 -198,-93 -188,0 -244,151 -244,347"/><path id="ar" d="m 254,-198 c 95,60 334,64 323,-83 C 568,-400 421,-403 324,-440 192,-490 72,-550 72,-729 c 0,-214 163,-309 387,-313 145,-3 264,55 338,127 -26,36 -45,82 -77,111 -69,21 -111,-33 -176,-48 -103,-23 -247,0 -238,102 11,114 156,118 251,155 126,49 251,100 251,270 C 808,-59 575,48 294,6 192,-9 106,-54 42,-110 c 28,-39 43,-95 83,-120 49,-31 96,11 129,32"/><g id="d"><use id="use5039" width="100%" height="100%" x="0" y="0" transform="scale(0.009)" xlink:href="#ao"/><use id="use5041" width="100%" height="100%" x="0" y="0" transform="matrix(0.009,0,0,0.009,10.179,0)" xlink:href="#ap"/><use id="use5043" width="100%" height="100%" x="0" y="0" transform="matrix(0.009,0,0,0.009,20.412,0)" xlink:href="#aq"/><use id="use5045" width="100%" height="100%" x="0" y="0" transform="matrix(0.009,0,0,0.009,30.672,0)" xlink:href="#ar"/></g><path id="as" d="M 381,316 C 185,26 60,-383 122,-872 c 35,-279 131,-501 259,-698 44,30 96,50 134,86 16,24 12,49 -3,77 -164,298 -252,770 -142,1185 35,132 78,259 143,374 20,35 10,87 -22,97"/><path id="at" d="m 565,-850 c -86,0 -140,48 -186,99 V 0 H 132 v -1026 c 80,9 198,-29 214,45 l 16,76 c 67,-72 141,-136 276,-137 139,-1 214,86 253,192 57,-117 162,-192 328,-192 240,0 354,147 354,389 V 0 h -247 v -653 c 1,-123 -52,-197 -169,-197 -117,0 -180,76 -180,197 V 0 H 729 v -653 c 0,-127 -46,-197 -164,-197"/><path id="au" d="m 1165,-1446 v 221 H 730 V 0 H 461 V -1225 H 24 v -221 h 1141"/><path id="av" d="M 415,-222 H 994 V 0 H 146 v -1446 h 269 v 1224"/><path id="aw" d="m 519,-204 c 146,0 246,-70 241,-211 -6,-175 -195,-185 -333,-232 -183,-63 -339,-153 -333,-400 5,-199 120,-319 272,-380 126,-51 311,-44 437,5 72,27 133,64 184,112 l -66,127 c -15,40 -64,51 -105,25 -64,-41 -136,-87 -246,-85 -132,3 -224,54 -224,182 0,167 202,176 334,227 173,67 333,144 333,381 0,227 -120,364 -289,433 C 586,36 371,19 246,-36 166,-71 92,-116 36,-174 l 78,-129 c 23,-34 74,-43 115,-13 73,54 157,112 290,112"/><path id="ax" d="m 219,-1570 c 196,289 321,700 259,1188 -35,279 -131,501 -259,698 -44,-30 -97,-51 -134,-88 -18,-18 -10,-55 2,-76 168,-296 252,-768 143,-1184 -35,-133 -78,-260 -142,-375 -22,-41 -9,-79 21,-97"/><g id="e"><use id="use5054" width="100%" height="100%" x="0" y="0" transform="scale(0.009)" xlink:href="#as"/><use id="use5056" width="100%" height="100%" x="0" y="0" transform="matrix(0.009,0,0,0.009,5.4,0)" xlink:href="#at"/><use id="use5058" width="100%" height="100%" x="0" y="0" transform="matrix(0.009,0,0,0.009,20.556,0)" xlink:href="#au"/><use id="use5060" width="100%" height="100%" x="0" y="0" transform="matrix(0.009,0,0,0.009,31.266,0)" xlink:href="#av"/><use id="use5062" width="100%" height="100%" x="0" y="0" transform="matrix(0.009,0,0,0.009,40.572,0)" xlink:href="#aw"/><use id="use5064" width="100%" height="100%" x="0" y="0" transform="matrix(0.009,0,0,0.009,50.229,0)" xlink:href="#ax"/></g><path id="ay" d="m 353,-563 c 7,250 130,409 378,409 248,0 377,-159 377,-408 v -871 h 193 v 871 c -5,275 -133,450 -332,535 C 833,31 629,32 493,-27 293,-112 160,-286 160,-562 v -871 h 193 v 870"/><path id="az" d="m 409,-112 c 121,-3 207,-52 207,-167 0,-134 -157,-142 -264,-181 -133,-48 -263,-98 -263,-275 0,-197 153,-290 360,-294 139,-3 243,49 317,118 -26,35 -46,114 -111,76 -53,-31 -114,-63 -202,-61 -108,3 -195,44 -195,147 0,129 158,136 262,175 128,48 263,93 263,264 C 783,-89 627,12 400,16 255,19 139,-39 62,-107 c 27,-41 57,-128 128,-81 57,38 118,78 219,76"/><path id="aA" d="M 954,-142 C 850,-8 572,61 364,-22 180,-96 74,-268 74,-527 c 0,-234 108,-389 275,-463 59,-26 125,-39 198,-39 273,0 420,174 420,453 0,48 -2,70 -43,70 H 250 c 8,226 98,375 322,380 114,2 191,-38 258,-82 70,-46 94,37 124,66 z M 807,-617 c -5,-171 -86,-278 -256,-281 -181,-3 -273,116 -295,281 h 551"/><path id="aB" d="m 584,-856 c -148,6 -210,94 -260,211 V 0 H 146 v -1013 c 62,7 151,-25 157,49 l 12,158 c 66,-138 184,-259 384,-216 23,5 44,16 63,27 l -23,133 c -5,17 -15,25 -31,25 -36,0 -71,-21 -124,-19"/><g id="g"><use id="use5071" width="100%" height="100%" x="0" y="0" transform="scale(0.01059118)" xlink:href="#ay"/><use id="use5073" width="100%" height="100%" x="0" y="0" transform="matrix(0.01059118,0,0,0.01059118,15.463128,0)" xlink:href="#az"/><use id="use5075" width="100%" height="100%" x="0" y="0" transform="matrix(0.01059118,0,0,0.01059118,24.656276,0)" xlink:href="#aA"/><use id="use5077" width="100%" height="100%" x="0" y="0" transform="matrix(0.01059118,0,0,0.01059118,35.755837,0)" xlink:href="#aB"/><use id="use5079" width="100%" height="100%" x="0" y="0" transform="matrix(0.01059118,0,0,0.01059118,44.292331,0)" xlink:href="#az"/></g><path id="aC" d="M 895,-142 C 799,-8 539,62 344,-21 173,-94 74,-262 74,-507 c 0,-317 160,-522 477,-522 151,0 254,54 333,132 -21,26 -39,58 -63,81 -42,20 -68,-19 -100,-34 -42,-20 -91,-42 -160,-40 -219,6 -304,160 -304,383 0,220 82,376 295,383 106,4 169,-38 223,-84 22,-19 53,-21 70,1"/><path id="aD" d="M 344,-1013 V 0 H 166 v -1013 z m -88,-446 c 77,0 128,52 128,128 0,75 -52,126 -128,126 -75,0 -126,-51 -126,-126 0,-76 50,-128 126,-128"/><path id="aE" d="m 18,-1013 h 146 c 28,-1 47,18 55,37 l 257,652 c 18,45 27,93 37,143 12,-50 22,-98 40,-143 l 260,-652 c 17,-60 123,-30 192,-37 L 592,0 H 431"/><g id="h"><use id="use5085" width="100%" height="100%" x="0" y="0" transform="scale(0.01059118)" xlink:href="#aB"/><use id="use5087" width="100%" height="100%" x="0" y="0" transform="matrix(0.01059118,0,0,0.01059118,8.5364941,0)" xlink:href="#aA"/><use id="use5089" width="100%" height="100%" x="0" y="0" transform="matrix(0.01059118,0,0,0.01059118,19.636055,0)" xlink:href="#aC"/><use id="use5091" width="100%" height="100%" x="0" y="0" transform="matrix(0.01059118,0,0,0.01059118,29.52822,0)" xlink:href="#aA"/><use id="use5093" width="100%" height="100%" x="0" y="0" transform="matrix(0.01059118,0,0,0.01059118,40.627781,0)" xlink:href="#aD"/><use id="use5095" width="100%" height="100%" x="0" y="0" transform="matrix(0.01059118,0,0,0.01059118,46.050467,0)" xlink:href="#aE"/><use id="use5097" width="100%" height="100%" x="0" y="0" transform="matrix(0.01059118,0,0,0.01059118,56.620469,0)" xlink:href="#aA"/></g><path id="aF" d="m 598,-887 c -125,2 -207,68 -274,141 V 0 H 146 v -1473 h 178 v 596 c 81,-82 173,-152 326,-152 232,0 339,151 339,384 V 0 H 811 v -645 c 0,-149 -65,-244 -213,-242"/><path id="aG" d="M 1038,-507 C 1038,-186 874,14 556,14 238,14 72,-187 72,-507 c 0,-248 107,-410 284,-485 60,-25 126,-37 200,-37 317,0 482,201 482,522 z m -782,1 c 0,225 80,381 300,381 213,0 298,-159 298,-381 0,-223 -84,-383 -298,-383 -221,0 -300,158 -300,383"/><path id="aH" d="M 698,-76 C 644,-24 553,16 453,16 291,17 204,-80 204,-244 v -620 c -58,-9 -160,26 -160,-39 v -71 l 166,-21 41,-313 c 4,-50 80,-30 131,-34 v 349 h 290 v 129 H 382 v 608 c -2,78 40,125 111,126 60,2 88,-33 128,-48 9,0 18,6 25,17"/><path id="aI" d="m 100,-675 h 494 v 151 H 100 v -151"/><path id="aJ" d="M 344,-1473 V 0 H 166 v -1473 h 178"/><path id="aK" d="m 510,-1031 c 133,0 210,49 277,120 v -562 H 965 V 0 C 905,-6 819,21 811,-37 L 795,-160 C 716,-67 616,14 455,14 173,14 72,-209 72,-503 c 0,-237 94,-406 254,-487 54,-27 115,-41 184,-41 z m -254,528 c 2,212 53,373 258,373 136,0 207,-69 273,-153 v -490 c -57,-77 -121,-119 -237,-119 -208,0 -296,164 -294,389"/><g id="i"><use id="use5106" width="100%" height="100%" x="0" y="0" transform="scale(0.01059118)" xlink:href="#az"/><use id="use5108" width="100%" height="100%" x="0" y="0" transform="matrix(0.01059118,0,0,0.01059118,9.1931475,0)" xlink:href="#aF"/><use id="use5110" width="100%" height="100%" x="0" y="0" transform="matrix(0.01059118,0,0,0.01059118,20.970544,0)" xlink:href="#aG"/><use id="use5112" width="100%" height="100%" x="0" y="0" transform="matrix(0.01059118,0,0,0.01059118,32.74794,0)" xlink:href="#aB"/><use id="use5114" width="100%" height="100%" x="0" y="0" transform="matrix(0.01059118,0,0,0.01059118,41.284434,0)" xlink:href="#aH"/><use id="use5116" width="100%" height="100%" x="0" y="0" transform="matrix(0.01059118,0,0,0.01059118,49.185458,0)" xlink:href="#aI"/><use id="use5118" width="100%" height="100%" x="0" y="0" transform="matrix(0.01059118,0,0,0.01059118,56.535739,0)" xlink:href="#aJ"/><use id="use5120" width="100%" height="100%" x="0" y="0" transform="matrix(0.01059118,0,0,0.01059118,61.958425,0)" xlink:href="#aD"/><use id="use5122" width="100%" height="100%" x="0" y="0" transform="matrix(0.01059118,0,0,0.01059118,67.381111,0)" xlink:href="#aE"/><use id="use5124" width="100%" height="100%" x="0" y="0" transform="matrix(0.01059118,0,0,0.01059118,77.951113,0)" xlink:href="#aA"/><use id="use5126" width="100%" height="100%" x="0" y="0" transform="matrix(0.01059118,0,0,0.01059118,89.050673,0)" xlink:href="#aK"/></g><path id="aL" d="M 507,-736 34,-1433 h 193 c 29,0 37,10 49,27 l 374,574 c 5,-14 10,-30 21,-46 l 353,-524 c 11,-16 21,-30 45,-31 h 185 L 779,-745 1270,0 h -192 c -30,1 -44,-19 -55,-37 L 639,-638 c -5,14 -10,28 -18,40 L 247,-37 C 235,-20 224,1 194,0 H 14"/><path id="aM" d="M 212,15 C 136,15 88,-34 88,-110 c 0,-76 48,-126 124,-126 76,0 125,50 125,126 0,77 -49,125 -125,125"/><path id="aN" d="m 527,-768 c -86,0 -160,15 -232,38 l -112,-33 116,-670 h 679 c 7,99 -4,165 -105,165 H 423 l -66,376 c 75,-16 144,-24 207,-24 286,0 458,152 458,433 0,245 -132,392 -313,464 C 580,33 392,21 277,-30 214,-58 154,-93 108,-135 c 34,-42 67,-137 146,-87 68,43 146,88 262,85 210,-6 326,-128 326,-338 0,-197 -116,-293 -315,-293"/><path id="aO" d="m 1060,-1042 c 53,174 53,479 0,652 C 990,-160 857,15 579,15 302,15 169,-161 100,-390 c -52,-173 -53,-479 0,-652 70,-230 201,-407 479,-407 277,0 412,178 481,407 z m -172,601 c 36,-137 36,-414 0,-551 -45,-170 -118,-306 -309,-306 -190,0 -263,137 -307,306 -36,138 -36,414 0,551 45,170 116,306 307,306 190,0 265,-138 309,-306"/><path id="aP" d="m 819,-678 c -91,81 -278,120 -423,63 -147,-58 -248,-182 -248,-384 0,-217 123,-348 283,-415 110,-46 267,-45 378,-1 189,74 308,278 257,547 -25,130 -89,225 -155,322 L 562,-42 C 526,21 400,-6 306,0 476,-227 653,-447 819,-678 Z m -211,-47 c 183,0 299,-105 299,-282 0,-183 -105,-293 -287,-293 -182,0 -294,106 -294,288 0,183 99,287 282,287"/><g id="j"><use id="use5134" width="100%" height="100%" x="0" y="0" transform="scale(0.01059118)" xlink:href="#aL"/><use id="use5136" width="100%" height="100%" x="0" y="0" transform="matrix(0.01059118,0,0,0.01059118,13.620262,0)" xlink:href="#aM"/><use id="use5138" width="100%" height="100%" x="0" y="0" transform="matrix(0.01059118,0,0,0.01059118,18.110924,0)" xlink:href="#aN"/><use id="use5140" width="100%" height="100%" x="0" y="0" transform="matrix(0.01059118,0,0,0.01059118,30.396698,0)" xlink:href="#aO"/><use id="use5142" width="100%" height="100%" x="0" y="0" transform="matrix(0.01059118,0,0,0.01059118,42.682471,0)" xlink:href="#aP"/></g><path id="aQ" d="m 594,-1317 c -165,0 -237,72 -235,231 v 93 h 293 v 129 H 365 V 0 H 186 v -861 c -49,-9 -113,-4 -146,-29 -24,-17 -10,-67 -14,-103 h 160 v -98 c 5,-229 120,-363 348,-363 45,0 87,7 126,20 l -4,89 c -2,31 -28,28 -62,28"/><path id="aR" d="m 537,-1031 c 235,0 353,147 353,383 V 0 C 832,-5 761,17 748,-42 l -20,-94 C 637,-55 545,19 375,16 200,13 92,-76 92,-253 c 0,-184 160,-243 332,-285 79,-19 176,-28 291,-31 12,-184 -31,-318 -200,-318 -113,0 -181,45 -243,91 -36,26 -82,14 -99,-17 l -32,-57 c 101,-96 215,-161 396,-161 z m -274,770 c 0,103 62,152 165,152 140,0 216,-64 287,-136 v -211 c -141,4 -258,19 -349,60 -60,27 -103,62 -103,135"/><g id="k"><use id="use5147" width="100%" height="100%" x="0" y="0" transform="scale(0.01059118)" xlink:href="#aC"/><use id="use5149" width="100%" height="100%" x="0" y="0" transform="matrix(0.01059118,0,0,0.01059118,9.8921657,0)" xlink:href="#aA"/><use id="use5151" width="100%" height="100%" x="0" y="0" transform="matrix(0.01059118,0,0,0.01059118,20.991726,0)" xlink:href="#aB"/><use id="use5153" width="100%" height="100%" x="0" y="0" transform="matrix(0.01059118,0,0,0.01059118,29.52822,0)" xlink:href="#aH"/><use id="use5155" width="100%" height="100%" x="0" y="0" transform="matrix(0.01059118,0,0,0.01059118,37.429244,0)" xlink:href="#aD"/><use id="use5157" width="100%" height="100%" x="0" y="0" transform="matrix(0.01059118,0,0,0.01059118,42.85193,0)" xlink:href="#aQ"/><use id="use5159" width="100%" height="100%" x="0" y="0" transform="matrix(0.01059118,0,0,0.01059118,49.990388,0)" xlink:href="#aD"/><use id="use5161" width="100%" height="100%" x="0" y="0" transform="matrix(0.01059118,0,0,0.01059118,55.413074,0)" xlink:href="#aC"/><use id="use5163" width="100%" height="100%" x="0" y="0" transform="matrix(0.01059118,0,0,0.01059118,65.305239,0)" xlink:href="#aR"/><use id="use5165" width="100%" height="100%" x="0" y="0" transform="matrix(0.01059118,0,0,0.01059118,76.0447,0)" xlink:href="#aH"/><use id="use5167" width="100%" height="100%" x="0" y="0" transform="matrix(0.01059118,0,0,0.01059118,83.945723,0)" xlink:href="#aA"/><use id="use5169" width="100%" height="100%" x="0" y="0" transform="matrix(0.01059118,0,0,0.01059118,95.045283,0)" xlink:href="#az"/></g><path id="aS" d="m 598,-887 c -125,2 -207,68 -274,141 V 0 H 146 v -1013 c 60,6 147,-22 154,37 l 14,110 c 82,-87 177,-163 336,-163 232,0 339,151 339,384 V 0 H 811 v -645 c 0,-149 -65,-244 -213,-242"/><g id="l"><use id="use5173" width="100%" height="100%" x="0" y="0" transform="scale(0.01059118)" xlink:href="#aG"/><use id="use5175" width="100%" height="100%" x="0" y="0" transform="matrix(0.01059118,0,0,0.01059118,11.777396,0)" xlink:href="#aS"/><use id="use5177" width="100%" height="100%" x="0" y="0" transform="matrix(0.01059118,0,0,0.01059118,23.554793,0)" xlink:href="#aC"/><use id="use5179" width="100%" height="100%" x="0" y="0" transform="matrix(0.01059118,0,0,0.01059118,33.446958,0)" xlink:href="#aA"/></g><path id="aT" d="m 443,299 c -13,26 -25,44 -64,44 H 247 L 432,-59 14,-1013 h 154 c 30,-1 46,18 55,37 95,228 197,450 287,682 6,14 8,30 11,45 10,-32 18,-60 30,-90 l 263,-637 c 18,-60 124,-30 194,-37"/><g id="m"><use id="use5183" width="100%" height="100%" x="0" y="0" transform="scale(0.01059118)" xlink:href="#aH"/><use id="use5185" width="100%" height="100%" x="0" y="0" transform="matrix(0.01059118,0,0,0.01059118,7.9010231,0)" xlink:href="#aF"/><use id="use5187" width="100%" height="100%" x="0" y="0" transform="matrix(0.01059118,0,0,0.01059118,19.67842,0)" xlink:href="#aA"/><use id="use5189" width="100%" height="100%" x="0" y="0" transform="matrix(0.01059118,0,0,0.01059118,30.502609,0)" xlink:href="#aT"/></g><path id="aU" d="m 103,-704 c 0,-220 160,-326 384,-326 92,0 169,21 228,57 h 275 c -2,53 13,100 -42,108 l -115,16 c 43,79 45,196 5,279 -58,120 -176,191 -351,193 -47,0 -92,-6 -134,-17 -50,22 -100,108 -36,142 165,88 511,-13 621,164 40,65 36,170 -4,240 C 857,286 705,365 493,365 300,365 150,315 78,198 59,166 50,132 50,97 c 3,-117 84,-175 178,-211 -54,-27 -98,-64 -94,-143 4,-90 64,-137 129,-173 -91,-51 -160,-139 -160,-274 z M 334,-85 C 254,-53 162,38 224,138 321,295 810,271 803,55 799,-63 659,-58 543,-68 473,-74 397,-74 334,-85 Z m -67,-614 c 0,134 84,204 220,204 137,0 221,-69 221,-204 0,-129 -85,-203 -221,-203 -135,0 -220,74 -220,203"/><g id="n"><use id="use5193" width="100%" height="100%" x="0" y="0" transform="scale(0.01059118)" xlink:href="#aJ"/><use id="use5195" width="100%" height="100%" x="0" y="0" transform="matrix(0.01059118,0,0,0.01059118,5.4226861,0)" xlink:href="#aG"/><use id="use5197" width="100%" height="100%" x="0" y="0" transform="matrix(0.01059118,0,0,0.01059118,17.200083,0)" xlink:href="#aU"/></g><g id="o"><use id="use5200" width="100%" height="100%" x="0" y="0" transform="scale(0.01059118)" xlink:href="#aD"/><use id="use5202" width="100%" height="100%" x="0" y="0" transform="matrix(0.01059118,0,0,0.01059118,5.4226861,0)" xlink:href="#aS"/><use id="use5204" width="100%" height="100%" x="0" y="0" transform="matrix(0.01059118,0,0,0.01059118,17.200083,0)" xlink:href="#aM"/></g><path id="aV" d="m 1150,-1433 v 163 H 687 V 0 H 493 V -1270 H 28 v -163 h 1122"/><path id="aW" d="M 602,14 C 469,14 390,-33 324,-105 V 343 H 146 v -1356 c 60,6 147,-22 154,37 l 15,120 c 80,-93 179,-175 341,-175 282,0 383,224 383,518 0,237 -92,406 -253,487 C 732,1 670,14 602,14 Z m 253,-527 c -3,-212 -53,-374 -258,-374 -136,0 -207,69 -273,153 v 490 c 57,77 121,120 238,120 207,0 295,-164 293,-389"/><g id="p"><use id="use5209" width="100%" height="100%" x="0" y="0" transform="scale(0.01059118)" xlink:href="#aV"/><use id="use5211" width="100%" height="100%" x="0" y="0" transform="matrix(0.01059118,0,0,0.01059118,10.273448,0)" xlink:href="#aA"/><use id="use5213" width="100%" height="100%" x="0" y="0" transform="matrix(0.01059118,0,0,0.01059118,21.373009,0)" xlink:href="#aJ"/><use id="use5215" width="100%" height="100%" x="0" y="0" transform="matrix(0.01059118,0,0,0.01059118,26.795695,0)" xlink:href="#aA"/><use id="use5217" width="100%" height="100%" x="0" y="0" transform="matrix(0.01059118,0,0,0.01059118,37.895256,0)" xlink:href="#aW"/><use id="use5219" width="100%" height="100%" x="0" y="0" transform="matrix(0.01059118,0,0,0.01059118,49.587923,0)" xlink:href="#aG"/><use id="use5221" width="100%" height="100%" x="0" y="0" transform="matrix(0.01059118,0,0,0.01059118,61.365319,0)" xlink:href="#aB"/><use id="use5223" width="100%" height="100%" x="0" y="0" transform="matrix(0.01059118,0,0,0.01059118,69.901813,0)" xlink:href="#aH"/></g><path id="aX" d="M 461,16 C 230,16 122,-133 122,-367 v -646 h 178 v 646 c 0,148 67,243 213,241 125,-2 207,-66 274,-140 v -747 H 965 V 0 C 905,-6 819,22 811,-37 L 797,-146 C 716,-60 619,16 461,16"/><g id="q"><use id="use5227" width="100%" height="100%" x="0" y="0" transform="scale(0.01059118)" xlink:href="#aX"/><use id="use5229" width="100%" height="100%" x="0" y="0" transform="matrix(0.01059118,0,0,0.01059118,11.777396,0)" xlink:href="#aW"/><use id="use5231" width="100%" height="100%" x="0" y="0" transform="matrix(0.01059118,0,0,0.01059118,23.470063,0)" xlink:href="#aK"/><use id="use5233" width="100%" height="100%" x="0" y="0" transform="matrix(0.01059118,0,0,0.01059118,35.311007,0)" xlink:href="#aR"/><use id="use5235" width="100%" height="100%" x="0" y="0" transform="matrix(0.01059118,0,0,0.01059118,46.050467,0)" xlink:href="#aH"/><use id="use5237" width="100%" height="100%" x="0" y="0" transform="matrix(0.01059118,0,0,0.01059118,53.95149,0)" xlink:href="#aA"/><use id="use5239" width="100%" height="100%" x="0" y="0" transform="matrix(0.01059118,0,0,0.01059118,65.051051,0)" xlink:href="#az"/></g><path id="aY" d="m 331,-1473 v 867 c 49,0 82,0 108,-28 l 320,-343 c 20,-19 33,-36 70,-36 h 162 c -133,142 -268,284 -401,427 -9,9 -19,16 -30,23 25,17 41,39 60,63 L 1016,0 C 935,-8 832,18 789,-35 L 456,-450 c -21,-27 -31,-33 -75,-34 H 331 V 0 H 152 v -1473 h 179"/><path id="aZ" d="M 608,14 C 466,14 387,-47 322,-130 313,-80 328,0 267,0 H 152 v -1473 h 179 v 606 c 78,-87 176,-162 331,-162 283,0 384,222 384,516 0,237 -93,406 -254,487 C 738,1 676,14 608,14 Z m 254,-527 c -2,-212 -53,-374 -258,-374 -136,0 -207,69 -273,153 v 490 c 56,77 120,120 237,120 208,0 296,-164 294,-389"/><g id="r"><use id="use5244" width="100%" height="100%" x="0" y="0" transform="scale(0.01059118)" xlink:href="#aY"/><use id="use5246" width="100%" height="100%" x="0" y="0" transform="matrix(0.01059118,0,0,0.01059118,11.099561,0)" xlink:href="#aX"/><use id="use5248" width="100%" height="100%" x="0" y="0" transform="matrix(0.01059118,0,0,0.01059118,22.876957,0)" xlink:href="#aZ"/><use id="use5250" width="100%" height="100%" x="0" y="0" transform="matrix(0.01059118,0,0,0.01059118,34.717901,0)" xlink:href="#aA"/><use id="use5252" width="100%" height="100%" x="0" y="0" transform="matrix(0.01059118,0,0,0.01059118,45.817461,0)" xlink:href="#aC"/><use id="use5254" width="100%" height="100%" x="0" y="0" transform="matrix(0.01059118,0,0,0.01059118,55.709627,0)" xlink:href="#aG"/><use id="use5256" width="100%" height="100%" x="0" y="0" transform="matrix(0.01059118,0,0,0.01059118,67.487023,0)" xlink:href="#aS"/><use id="use5258" width="100%" height="100%" x="0" y="0" transform="matrix(0.01059118,0,0,0.01059118,79.26442,0)" xlink:href="#aQ"/><use id="use5260" width="100%" height="100%" x="0" y="0" transform="matrix(0.01059118,0,0,0.01059118,86.402878,0)" xlink:href="#aD"/><use id="use5262" width="100%" height="100%" x="0" y="0" transform="matrix(0.01059118,0,0,0.01059118,91.825564,0)" xlink:href="#aU"/></g><g id="s"><use id="use5265" width="100%" height="100%" x="0" y="0" transform="scale(0.01059118)" xlink:href="#aH"/><use id="use5267" width="100%" height="100%" x="0" y="0" transform="matrix(0.01059118,0,0,0.01059118,7.9010231,0)" xlink:href="#aG"/></g><g id="t"><use id="use5270" width="100%" height="100%" x="0" y="0" transform="scale(0.01059118)" xlink:href="#az"/><use id="use5272" width="100%" height="100%" x="0" y="0" transform="matrix(0.01059118,0,0,0.01059118,9.1931475,0)" xlink:href="#aA"/><use id="use5274" width="100%" height="100%" x="0" y="0" transform="matrix(0.01059118,0,0,0.01059118,20.292708,0)" xlink:href="#aH"/></g><g id="u"><use id="use5277" width="100%" height="100%" x="0" y="0" transform="scale(0.01059118)" xlink:href="#aX"/><use id="use5279" width="100%" height="100%" x="0" y="0" transform="matrix(0.01059118,0,0,0.01059118,11.777396,0)" xlink:href="#aW"/></g><path id="ba" d="m 550,-887 c -107,0 -172,65 -226,132 V 0 H 146 v -1013 c 60,6 147,-22 154,37 l 13,104 c 69,-80 148,-156 287,-157 148,-1 223,92 258,211 51,-126 153,-211 323,-211 232,0 338,149 338,384 V 0 h -178 v -645 c 1,-148 -62,-242 -203,-242 -142,0 -218,94 -218,242 V 0 H 742 v -645 c 1,-149 -54,-242 -192,-242"/><path id="bb" d="M 368,-163 H 988 V 0 H 174 v -1433 h 194 v 1270"/><path id="bc" d="m 513,-145 c 178,-4 292,-88 292,-262 0,-193 -194,-213 -343,-263 -182,-61 -347,-142 -342,-385 4,-188 111,-303 254,-361 117,-48 292,-41 408,5 66,26 124,62 173,110 -22,37 -36,86 -66,115 -51,25 -83,-28 -123,-48 -53,-26 -114,-56 -200,-54 -157,4 -266,71 -266,223 0,186 200,204 344,258 175,65 343,135 343,372 0,289 -185,446 -480,451 -198,4 -349,-81 -449,-187 26,-36 42,-83 76,-111 60,-25 93,39 140,65 62,34 135,75 239,72"/><g id="v"><use id="use5285" width="100%" height="100%" x="0" y="0" transform="scale(0.01059118)" xlink:href="#ba"/><use id="use5287" width="100%" height="100%" x="0" y="0" transform="matrix(0.01059118,0,0,0.01059118,17.390724,0)" xlink:href="#aV"/><use id="use5289" width="100%" height="100%" x="0" y="0" transform="matrix(0.01059118,0,0,0.01059118,29.888321,0)" xlink:href="#bb"/><use id="use5291" width="100%" height="100%" x="0" y="0" transform="matrix(0.01059118,0,0,0.01059118,40.776058,0)" xlink:href="#bc"/></g><g id="w"><use id="use5294" width="100%" height="100%" x="0" y="0" transform="scale(0.01059118)" xlink:href="#aQ"/><use id="use5296" width="100%" height="100%" x="0" y="0" transform="matrix(0.01059118,0,0,0.01059118,7.1384579,0)" xlink:href="#aG"/><use id="use5298" width="100%" height="100%" x="0" y="0" transform="matrix(0.01059118,0,0,0.01059118,18.915854,0)" xlink:href="#aB"/></g><g id="x"><use id="use5301" width="100%" height="100%" x="0" y="0" transform="scale(0.01059118)" xlink:href="#aY"/><use id="use5303" width="100%" height="100%" x="0" y="0" transform="matrix(0.01059118,0,0,0.01059118,11.099561,0)" xlink:href="#aX"/><use id="use5305" width="100%" height="100%" x="0" y="0" transform="matrix(0.01059118,0,0,0.01059118,22.876957,0)" xlink:href="#aZ"/><use id="use5307" width="100%" height="100%" x="0" y="0" transform="matrix(0.01059118,0,0,0.01059118,34.717901,0)" xlink:href="#aA"/><use id="use5309" width="100%" height="100%" x="0" y="0" transform="matrix(0.01059118,0,0,0.01059118,45.817461,0)" xlink:href="#aB"/><use id="use5311" width="100%" height="100%" x="0" y="0" transform="matrix(0.01059118,0,0,0.01059118,54.353955,0)" xlink:href="#aS"/><use id="use5313" width="100%" height="100%" x="0" y="0" transform="matrix(0.01059118,0,0,0.01059118,66.131352,0)" xlink:href="#aA"/><use id="use5315" width="100%" height="100%" x="0" y="0" transform="matrix(0.01059118,0,0,0.01059118,77.230912,0)" xlink:href="#aH"/><use id="use5317" width="100%" height="100%" x="0" y="0" transform="matrix(0.01059118,0,0,0.01059118,85.131935,0)" xlink:href="#aA"/><use id="use5319" width="100%" height="100%" x="0" y="0" transform="matrix(0.01059118,0,0,0.01059118,96.231496,0)" xlink:href="#az"/></g><g id="y"><use id="use5322" width="100%" height="100%" x="0" y="0" transform="scale(0.01059118)" xlink:href="#aR"/><use id="use5324" width="100%" height="100%" x="0" y="0" transform="matrix(0.01059118,0,0,0.01059118,10.73946,0)" xlink:href="#aC"/><use id="use5326" width="100%" height="100%" x="0" y="0" transform="matrix(0.01059118,0,0,0.01059118,20.631626,0)" xlink:href="#aC"/><use id="use5328" width="100%" height="100%" x="0" y="0" transform="matrix(0.01059118,0,0,0.01059118,30.523792,0)" xlink:href="#aA"/><use id="use5330" width="100%" height="100%" x="0" y="0" transform="matrix(0.01059118,0,0,0.01059118,41.623352,0)" xlink:href="#az"/><use id="use5332" width="100%" height="100%" x="0" y="0" transform="matrix(0.01059118,0,0,0.01059118,50.8165,0)" xlink:href="#az"/><use id="use5334" width="100%" height="100%" x="0" y="0" transform="matrix(0.01059118,0,0,0.01059118,60.009647,0)" xlink:href="#aM"/></g><filter id="f" width="1.05" height="1.13" x="-.02" y="-.03" filterUnits="objectBoundingBox"><feOffset id="feOffset5337" dx="4.28" dy="5.54" in="SourceAlpha" result="offOut"/><feGaussianBlur id="feGaussianBlur5339" in="offOut" result="blurOut" stdDeviation="5"/><feColorMatrix id="feColorMatrix5341" in="blurOut" result="colorOut" values="0 0 0 0 0.14274509803921567 0 0 0 0 0.14274509803921567 0 0 0 0 0.14274509803921567 0 0 0 0.3568627450980392 0"/><feBlend id="feBlend5343" in="SourceGraphic" in2="colorOut" mode="normal"/></filter><linearGradient id="z" x1="-2034.56" x2="-2404.95" y1="261.28" y2="261.28" gradientUnits="userSpaceOnUse"><stop id="stop5346" offset="0%"/><stop id="stop5348" offset="87.39%" stop-color="#333"/><stop id="stop5350" offset="98.74%" stop-color="#333"/></linearGradient><path id="bd" d="m 43,-415 v -127 h 161 v -142 h 140 v 142 h 207 v 127 H 344 v 230 c -7,84 127,45 199,54 L 567,0 H 386 C 271,0 204,-44 204,-156 V -415 H 43" style="fill:#4cf66e"/><path id="be" d="m 228,-180 c -1,44 -3,64 58,64 53,0 145,14 135,-44 2,-45 -6,-61 -69,-62 h -85 c -136,1 -172,-49 -172,-172 0,-149 137,-152 288,-148 135,4 173,52 171,138 l -133,34 c 1,-41 0,-58 -57,-58 -57,0 -136,-21 -136,53 0,31 15,43 70,43 h 77 c 136,0 179,58 179,184 C 554,1 418,5 267,0 125,-4 91,-54 95,-150" style="fill:#4cf66e"/><path id="bf" d="M 574,0 H 433 v -338 c 5,-73 -46,-75 -117,-75 -51,0 -95,25 -95,82 V 0 H 81 v -684 h 140 v 189 h 3 c 23,-39 112,-47 194,-47 99,0 156,52 156,163 V 0" style="fill:#4cf66e"/><g id="A"><use id="use5356" width="100%" height="100%" x="0" y="0" transform="scale(0.01577778)" xlink:href="#bd"/><use id="use5358" width="100%" height="100%" x="0" y="0" transform="matrix(0.01577778,0,0,0.01577778,10.255556,0)" xlink:href="#be"/><use id="use5360" width="100%" height="100%" x="0" y="0" transform="matrix(0.01577778,0,0,0.01577778,20.511111,0)" xlink:href="#bf"/></g><path id="bg" d="M 78,0 V -131 H 280 V -555 H 98 v -129 h 322 v 553 H 592 V 0 H 78" style="fill:#4cf66e"/><path id="bh" d="M 386,0 H 264 C 149,0 82,-47 82,-158 v -226 c 0,-111 67,-158 182,-158 h 122 c 115,0 182,47 182,158 v 226 C 568,-47 501,0 386,0 Z M 222,-185 c -10,69 83,54 145,54 45,0 61,-17 61,-55 v -173 c 10,-69 -83,-54 -145,-54 -45,0 -61,17 -61,54 v 174" style="fill:#4cf66e"/><path id="bi" d="M 421,-542 H 561 V 82 c 0,111 -77,158 -192,158 H 250 C 130,240 63,191 68,73 L 209,37 c -3,51 6,80 61,78 63,-2 151,17 151,-54 V -46 h -3 C 395,-8 306,0 224,0 124,0 68,-51 68,-163 v -216 c -1,-137 83,-163 221,-163 66,0 108,21 129,47 h 3 z m -212,336 c -5,73 46,75 117,75 51,0 95,-25 95,-82 v -118 c -2,-75 -66,-82 -143,-82 -99,0 -63,123 -69,207" style="fill:#4cf66e"/><path id="bj" d="M 85,0 V -131 H 287 V -413 H 105 v -129 h 323 v 411 H 599 V 0 Z M 428,-633 H 283 v -129 h 145 v 129" style="fill:#4cf66e"/><path id="bk" d="M 570,0 H 429 v -339 c 4,-70 -45,-74 -114,-74 -51,0 -95,25 -95,82 V 0 H 80 v -542 h 140 v 47 h 3 c 23,-39 110,-47 191,-47 99,0 156,52 156,163 V 0" style="fill:#4cf66e"/><g id="B"><use id="use5368" width="100%" height="100%" x="0" y="0" transform="scale(0.01577778)" xlink:href="#bg"/><use id="use5370" width="100%" height="100%" x="0" y="0" transform="matrix(0.01577778,0,0,0.01577778,10.255556,0)" xlink:href="#bh"/><use id="use5372" width="100%" height="100%" x="0" y="0" transform="matrix(0.01577778,0,0,0.01577778,20.511111,0)" xlink:href="#bi"/><use id="use5374" width="100%" height="100%" x="0" y="0" transform="matrix(0.01577778,0,0,0.01577778,30.766667,0)" xlink:href="#bj"/><use id="use5376" width="100%" height="100%" x="0" y="0" transform="matrix(0.01577778,0,0,0.01577778,41.022222,0)" xlink:href="#bk"/></g><path id="bl" d="M 493,-246 H 156 v -129 h 337 v 129" style="fill:#4cf66e"/><g id="C"><use id="use5380" width="100%" height="100%" x="0" y="0" transform="scale(0.01577778)" xlink:href="#bl"/><use id="use5382" width="100%" height="100%" x="0" y="0" transform="matrix(0.01577778,0,0,0.01577778,10.255556,0)" xlink:href="#bh"/></g><path id="bm" d="M 402,0 H 247 V -146 H 402 V 0" style="fill:#4cf66e"/><path id="bn" d="m 559,-374 v 150 H 223 c -1,60 -7,111 61,108 57,-3 150,14 142,-47 v -25 l 133,25 C 575,-1 434,0 272,0 157,0 90,-47 90,-158 v -226 c 0,-111 67,-158 182,-158 h 105 c 115,0 182,57 182,168 z m -275,-54 c -72,-1 -60,40 -61,97 h 203 c 0,-57 9,-97 -61,-97 h -81" style="fill:#4cf66e"/><path id="bo" d="m 325,-361 89,-82 v -99 h 140 v 139 l -136,118 155,136 V 0 H 433 v -106 l -108,-97 -108,97 V 0 H 77 V -149 L 232,-285 95,-403 v -139 h 141 v 99" style="fill:#4cf66e"/><path id="bp" d="M 550,0 H 417 v -39 h -3 C 389,-7 311,0 236,0 123,0 73,-60 79,-192 c 6,-124 77,-150 199,-150 66,0 112,15 136,37 h 3 c 1,-65 9,-127 -64,-123 -50,3 -129,-10 -119,44 v 13 l -133,-32 c -4,-89 57,-137 174,-139 h 89 c 115,0 186,59 186,171 z M 417,-163 c 0,-82 -79,-68 -147,-69 -46,-1 -58,21 -58,67 0,59 62,49 117,49 42,0 88,-11 88,-47" style="fill:#4cf66e"/><path id="bq" d="m 32,0 v -542 h 113 c 1,19 -3,43 2,58 7,-38 64,-58 136,-58 62,0 74,29 86,58 8,-40 65,-58 135,-58 84,0 114,49 114,157 V 0 H 494 v -367 c 2,-52 -20,-50 -64,-50 -23,0 -45,18 -45,71 V 0 H 264 v -375 c 3,-44 -24,-42 -63,-42 -29,0 -45,24 -45,71 V 0 H 32" style="fill:#4cf66e"/><path id="br" d="m 229,-542 v 47 h 3 c 23,-40 112,-47 194,-47 98,0 155,52 155,163 v 216 C 582,-25 498,0 360,0 295,0 253,-21 232,-46 h -3 V 211 H 88 v -753 z m 0,329 c 2,75 65,82 142,82 99,0 64,-122 70,-207 5,-72 -47,-75 -118,-75 -50,0 -94,25 -94,82 v 118" style="fill:#4cf66e"/><path id="bs" d="m 224,-359 v 174 c -10,67 79,53 140,54 60,2 64,-32 61,-87 l 140,40 C 572,-53 505,0 383,0 H 266 C 151,0 84,-47 84,-158 v -226 c 0,-111 67,-158 182,-158 h 117 c 126,0 191,56 182,187 l -140,36 c 2,-57 2,-96 -61,-94 -61,2 -140,-14 -140,54" style="fill:#4cf66e"/><g id="D"><use id="use5392" width="100%" height="100%" x="0" y="0" transform="scale(0.01577778)" xlink:href="#be"/><use id="use5394" width="100%" height="100%" x="0" y="0" transform="matrix(0.01577778,0,0,0.01577778,10.255556,0)" xlink:href="#be"/><use id="use5396" width="100%" height="100%" x="0" y="0" transform="matrix(0.01577778,0,0,0.01577778,20.511111,0)" xlink:href="#bh"/><use id="use5398" width="100%" height="100%" x="0" y="0" transform="matrix(0.01577778,0,0,0.01577778,30.766667,0)" xlink:href="#bm"/><use id="use5400" width="100%" height="100%" x="0" y="0" transform="matrix(0.01577778,0,0,0.01577778,41.022222,0)" xlink:href="#bn"/><use id="use5402" width="100%" height="100%" x="0" y="0" transform="matrix(0.01577778,0,0,0.01577778,51.277778,0)" xlink:href="#bo"/><use id="use5404" width="100%" height="100%" x="0" y="0" transform="matrix(0.01577778,0,0,0.01577778,61.533333,0)" xlink:href="#bp"/><use id="use5406" width="100%" height="100%" x="0" y="0" transform="matrix(0.01577778,0,0,0.01577778,71.788889,0)" xlink:href="#bq"/><use id="use5408" width="100%" height="100%" x="0" y="0" transform="matrix(0.01577778,0,0,0.01577778,82.044444,0)" xlink:href="#br"/><use id="use5410" width="100%" height="100%" x="0" y="0" transform="matrix(0.01577778,0,0,0.01577778,92.3,0)" xlink:href="#bg"/><use id="use5412" width="100%" height="100%" x="0" y="0" transform="matrix(0.01577778,0,0,0.01577778,102.55556,0)" xlink:href="#bn"/><use id="use5414" width="100%" height="100%" x="0" y="0" transform="matrix(0.01577778,0,0,0.01577778,112.81111,0)" xlink:href="#bm"/><use id="use5416" width="100%" height="100%" x="0" y="0" transform="matrix(0.01577778,0,0,0.01577778,123.06667,0)" xlink:href="#bs"/><use id="use5418" width="100%" height="100%" x="0" y="0" transform="matrix(0.01577778,0,0,0.01577778,133.32222,0)" xlink:href="#bh"/><use id="use5420" width="100%" height="100%" x="0" y="0" transform="matrix(0.01577778,0,0,0.01577778,143.57778,0)" xlink:href="#bq"/></g><path id="bt" d="m 398,-581 c 6,222 109,364 330,364 220,0 331,-140 331,-363 v -866 h 269 v 866 c -5,286 -141,466 -350,552 C 836,31 620,31 478,-28 268,-114 129,-294 129,-580 v -866 h 269 v 865" style="fill:#333"/><path id="bu" d="m 254,-198 c 95,60 334,64 323,-83 C 568,-400 421,-403 324,-440 192,-490 72,-550 72,-729 c 0,-214 163,-309 387,-313 145,-3 264,55 338,127 -26,36 -45,82 -77,111 -69,21 -111,-33 -176,-48 -103,-23 -247,0 -238,102 11,114 156,118 251,155 126,49 251,100 251,270 C 808,-59 575,48 294,6 192,-9 106,-54 42,-110 c 28,-39 43,-95 83,-120 49,-31 96,11 129,32" style="fill:#333"/><path id="bv" d="M 991,-153 C 899,-47 760,15 568,15 237,15 63,-197 63,-535 c 0,-237 116,-392 287,-467 61,-27 129,-40 206,-40 287,0 444,174 444,465 0,54 -3,95 -57,95 H 309 c 4,226 158,349 385,292 52,-13 93,-39 132,-62 32,-19 73,-16 93,9 z M 778,-631 c -4,-143 -73,-234 -217,-234 -154,0 -226,95 -247,234 h 464" style="fill:#333"/><path id="bw" d="m 604,-806 c -122,5 -180,74 -225,167 V 0 H 132 v -1026 c 83,11 206,-35 218,62 l 15,124 c 63,-106 147,-205 295,-205 51,0 93,12 126,35 l -32,185 c -4,23 -15,33 -40,33 -33,0 -65,-16 -110,-14" style="fill:#333"/><g id="E"><use id="use5427" width="100%" height="100%" x="0" y="0" transform="scale(0.00888889)" xlink:href="#bt"/><use id="use5429" width="100%" height="100%" x="0" y="0" transform="matrix(0.00888889,0,0,0.00888889,12.942222,0)" xlink:href="#bu"/><use id="use5431" width="100%" height="100%" x="0" y="0" transform="matrix(0.00888889,0,0,0.00888889,20.711111,0)" xlink:href="#bv"/><use id="use5433" width="100%" height="100%" x="0" y="0" transform="matrix(0.00888889,0,0,0.00888889,30.213333,0)" xlink:href="#bw"/><use id="use5435" width="100%" height="100%" x="0" y="0" transform="matrix(0.00888889,0,0,0.00888889,37.475556,0)" xlink:href="#bu"/></g><filter id="F" width="1.25" height="1.38" x="-.11" y="-.12" filterUnits="objectBoundingBox"><feOffset id="feOffset5438" dx="2.05" dy="5.64" in="SourceAlpha" result="offOut"/><feGaussianBlur id="feGaussianBlur5440" in="offOut" result="blurOut" stdDeviation="7.5"/><feColorMatrix id="feColorMatrix5442" in="blurOut" result="colorOut" values="0 0 0 0 0 0 0 0 0 0 0 0 0 0 0 0 0 0 0.14901960784313725 0"/><feBlend id="feBlend5444" in="SourceGraphic" in2="colorOut" mode="normal"/></filter><linearGradient id="G" x1="-1352.66" x2="-1572.66" y1="169.77" y2="123.01" gradientUnits="userSpaceOnUse"><stop id="stop5447" offset="0%" stop-color="#354aaa"/><stop id="stop5449" offset="0%" stop-color="#8e24aa"/><stop id="stop5451" offset="100%" stop-color="#354aa4"/><stop id="stop5453" offset="51.68%" stop-color="#651f9b"/></linearGradient><path id="bx" d="m 658,-693 c -96,114 -188,214 -293,319 120,100 221,232 309,374 H 489 C 421,-108 334,-214 236,-293 V 0 H 80 v -693 h 156 v 262 c 77,-80 164,-181 237,-262 h 185" style="fill:#fff"/><path id="by" d="M 637,-262 C 634,-80 536,14 351,14 168,14 70,-82 70,-262 v -431 h 156 v 418 c 1,94 35,154 127,154 87,0 128,-54 128,-154 v -418 h 156 v 431" style="fill:#fff"/><path id="bz" d="M 627,-210 C 627,-44 495,9 311,9 226,8 155,6 80,-11 v -672 c 205,-29 514,-53 513,177 0,55 -27,99 -80,131 77,27 114,76 114,165 z m -158,-3 c 0,-105 -130,-88 -237,-89 v 179 c 101,7 237,15 237,-90 z m -27,-286 c 0,-91 -122,-76 -210,-73 v 151 c 97,-2 210,14 210,-78" style="fill:#fff"/><path id="bA" d="m 80,0 v -693 h 468 v 131 H 236 v 136 h 277 v 128 H 236 v 167 H 571 V 0 H 80" style="fill:#fff"/><path id="bB" d="m 80,-683 c 59,-12 137,-18 203,-18 187,1 322,54 322,228 0,106 -52,157 -130,190 65,83 124,182 172,283 H 472 C 423,-87 373,-179 313,-253 H 236 V 0 H 80 Z m 364,209 c 1,-96 -110,-98 -208,-91 v 188 c 111,-1 207,3 208,-97" style="fill:#fff"/><path id="bC" d="M 545,0 C 455,-159 350,-319 234,-454 V 0 H 80 v -693 h 127 c 114,118 220,269 314,409 V -693 H 676 V 0 H 545" style="fill:#fff"/><path id="bD" d="m 594,-693 v 133 H 385 V 0 H 229 V -560 H 20 v -133 h 574" style="fill:#fff"/><path id="bE" d="m 81,-163 c 48,25 108,46 188,44 62,-1 111,-12 112,-72 0,-23 -11,-42 -32,-57 -53,-39 -186,-63 -239,-114 -33,-32 -63,-73 -61,-139 5,-145 106,-205 255,-208 84,-2 154,22 205,48 l -45,123 c -41,-20 -85,-38 -150,-38 -76,0 -124,32 -96,95 68,68 209,75 272,145 33,36 48,78 52,146 C 554,42 206,52 37,-39" style="fill:#fff"/><g id="H"><use id="use5464" width="100%" height="100%" x="0" y="0" transform="scale(0.018)" xlink:href="#bx"/><use id="use5466" width="100%" height="100%" x="0" y="0" transform="matrix(0.018,0,0,0.018,12.312,0)" xlink:href="#by"/><use id="use5468" width="100%" height="100%" x="0" y="0" transform="matrix(0.018,0,0,0.018,25.038,0)" xlink:href="#bz"/><use id="use5470" width="100%" height="100%" x="0" y="0" transform="matrix(0.018,0,0,0.018,37.134,0)" xlink:href="#bA"/><use id="use5472" width="100%" height="100%" x="0" y="0" transform="matrix(0.018,0,0,0.018,48.042,0)" xlink:href="#bB"/><use id="use5474" width="100%" height="100%" x="0" y="0" transform="matrix(0.018,0,0,0.018,60.048,0)" xlink:href="#bC"/><use id="use5476" width="100%" height="100%" x="0" y="0" transform="matrix(0.018,0,0,0.018,73.656,0)" xlink:href="#bA"/><use id="use5478" width="100%" height="100%" x="0" y="0" transform="matrix(0.018,0,0,0.018,84.564,0)" xlink:href="#bD"/><use id="use5480" width="100%" height="100%" x="0" y="0" transform="matrix(0.018,0,0,0.018,95.616,0)" xlink:href="#bA"/><use id="use5482" width="100%" height="100%" x="0" y="0" transform="matrix(0.018,0,0,0.018,106.524,0)" xlink:href="#bE"/></g><g id="I"><use id="use5485" width="100%" height="100%" x="0" y="0" transform="scale(0.009)" xlink:href="#as"/><use id="use5487" width="100%" height="100%" x="0" y="0" transform="matrix(0.009,0,0,0.009,5.4,0)" xlink:href="#au"/><use id="use5489" width="100%" height="100%" x="0" y="0" transform="matrix(0.009,0,0,0.009,16.11,0)" xlink:href="#av"/><use id="use5491" width="100%" height="100%" x="0" y="0" transform="matrix(0.009,0,0,0.009,25.416,0)" xlink:href="#aw"/><use id="use5493" width="100%" height="100%" x="0" y="0" transform="matrix(0.009,0,0,0.009,35.073,0)" xlink:href="#ax"/></g><linearGradient id="J" x1="-1352.66" x2="-1747.63" y1="261.28" y2="261.28" gradientUnits="userSpaceOnUse"><stop id="stop5496" offset="0%"/><stop id="stop5498" offset="87.39%" stop-color="#333"/><stop id="stop5500" offset="98.74%" stop-color="#333"/></linearGradient><path id="bF" d="M 75,0 V -131 H 255 V -555 H 85 v -129 h 479 v 129 H 395 v 424 H 575 V 0 H 75" style="fill:#4cf66e"/><path id="bG" d="m 596,-337 -141,36 c 2,-64 3,-112 -64,-112 -76,0 -139,9 -139,82 V 0 H 112 v -542 h 140 v 47 h 3 c 22,-37 105,-47 185,-47 114,0 167,72 156,205" style="fill:#4cf66e"/><path id="bH" d="m 581,-684 v 526 C 581,-47 514,0 399,0 H 250 C 135,0 68,-47 68,-158 v -526 h 141 v 499 c -9,77 104,54 171,54 45,0 61,-17 61,-54 v -499 h 140" style="fill:#4cf66e"/><path id="bI" d="M 402,-360 H 247 V -506 H 402 Z M 402,0 H 247 V -146 H 402 V 0" style="fill:#4cf66e"/><g id="K"><use id="use5507" width="100%" height="100%" x="0" y="0" transform="scale(0.01577778)" xlink:href="#bF"/><use id="use5509" width="100%" height="100%" x="0" y="0" transform="matrix(0.01577778,0,0,0.01577778,10.255556,0)" xlink:href="#bq"/><use id="use5511" width="100%" height="100%" x="0" y="0" transform="matrix(0.01577778,0,0,0.01577778,20.511111,0)" xlink:href="#br"/><use id="use5513" width="100%" height="100%" x="0" y="0" transform="matrix(0.01577778,0,0,0.01577778,30.766667,0)" xlink:href="#bn"/><use id="use5515" width="100%" height="100%" x="0" y="0" transform="matrix(0.01577778,0,0,0.01577778,41.022222,0)" xlink:href="#bG"/><use id="use5517" width="100%" height="100%" x="0" y="0" transform="matrix(0.01577778,0,0,0.01577778,51.277778,0)" xlink:href="#be"/><use id="use5519" width="100%" height="100%" x="0" y="0" transform="matrix(0.01577778,0,0,0.01577778,61.533333,0)" xlink:href="#bh"/><use id="use5521" width="100%" height="100%" x="0" y="0" transform="matrix(0.01577778,0,0,0.01577778,71.788889,0)" xlink:href="#bk"/><use id="use5523" width="100%" height="100%" x="0" y="0" transform="matrix(0.01577778,0,0,0.01577778,82.044444,0)" xlink:href="#bp"/><use id="use5525" width="100%" height="100%" x="0" y="0" transform="matrix(0.01577778,0,0,0.01577778,92.3,0)" xlink:href="#bd"/><use id="use5527" width="100%" height="100%" x="0" y="0" transform="matrix(0.01577778,0,0,0.01577778,102.55556,0)" xlink:href="#bn"/><use id="use5529" width="100%" height="100%" x="0" y="0" transform="matrix(0.01577778,0,0,0.01577778,112.81111,0)" xlink:href="#bl"/><use id="use5531" width="100%" height="100%" x="0" y="0" transform="matrix(0.01577778,0,0,0.01577778,123.06667,0)" xlink:href="#bH"/><use id="use5533" width="100%" height="100%" x="0" y="0" transform="matrix(0.01577778,0,0,0.01577778,133.32222,0)" xlink:href="#be"/><use id="use5535" width="100%" height="100%" x="0" y="0" transform="matrix(0.01577778,0,0,0.01577778,143.57778,0)" xlink:href="#bn"/><use id="use5537" width="100%" height="100%" x="0" y="0" transform="matrix(0.01577778,0,0,0.01577778,153.83333,0)" xlink:href="#bG"/><use id="use5539" width="100%" height="100%" x="0" y="0" transform="matrix(0.01577778,0,0,0.01577778,164.08889,0)" xlink:href="#bI"/></g><path id="bJ" d="M 532,-542 V 82 C 535,225 406,240 252,240 138,240 71,194 71,86 V 21 l 140,-40 c 3,66 -19,134 61,134 58,0 120,7 120,-54 V -413 H 159 v -129 z m 0,-91 H 387 v -129 h 145 v 129" style="fill:#4cf66e"/><path id="bK" d="m 632,71 -34,99 H 176 C 75,170 9,122 9,24 v -420 c 0,-98 66,-146 167,-146 h 304 c 101,0 160,41 160,139 v 248 C 643,-55 611,0 492,0 435,0 407,-16 393,-46 h -3 C 374,-14 328,0 269,0 134,0 177,-151 171,-268 c -4,-77 38,-107 127,-107 46,0 71,20 84,43 h 3 l 9,-40 h 81 v 247 c 0,30 8,38 31,38 22,0 31,-8 31,-40 v -254 c 0,-43 -19,-62 -70,-62 H 192 c -51,0 -80,27 -80,69 V 2 c 0,43 29,69 80,69 z M 327,-276 c -80,0 -48,77 -53,131 -3,38 17,45 53,43 48,-2 45,-61 45,-114 0,-31 -16,-60 -45,-60" style="fill:#4cf66e"/><g id="L"><use id="use5544" width="100%" height="100%" x="0" y="0" transform="scale(0.01577778)" xlink:href="#bJ"/><use id="use5546" width="100%" height="100%" x="0" y="0" transform="matrix(0.01577778,0,0,0.01577778,10.255556,0)" xlink:href="#bp"/><use id="use5548" width="100%" height="100%" x="0" y="0" transform="matrix(0.01577778,0,0,0.01577778,20.511111,0)" xlink:href="#bk"/><use id="use5550" width="100%" height="100%" x="0" y="0" transform="matrix(0.01577778,0,0,0.01577778,30.766667,0)" xlink:href="#bn"/><use id="use5552" width="100%" height="100%" x="0" y="0" transform="matrix(0.01577778,0,0,0.01577778,41.022222,0)" xlink:href="#bK"/><use id="use5554" width="100%" height="100%" x="0" y="0" transform="matrix(0.01577778,0,0,0.01577778,51.277778,0)" xlink:href="#bn"/><use id="use5556" width="100%" height="100%" x="0" y="0" transform="matrix(0.01577778,0,0,0.01577778,61.533333,0)" xlink:href="#bo"/><use id="use5558" width="100%" height="100%" x="0" y="0" transform="matrix(0.01577778,0,0,0.01577778,71.788889,0)" xlink:href="#bp"/><use id="use5560" width="100%" height="100%" x="0" y="0" transform="matrix(0.01577778,0,0,0.01577778,82.044444,0)" xlink:href="#bq"/><use id="use5562" width="100%" height="100%" x="0" y="0" transform="matrix(0.01577778,0,0,0.01577778,92.3,0)" xlink:href="#br"/><use id="use5564" width="100%" height="100%" x="0" y="0" transform="matrix(0.01577778,0,0,0.01577778,102.55556,0)" xlink:href="#bg"/><use id="use5566" width="100%" height="100%" x="0" y="0" transform="matrix(0.01577778,0,0,0.01577778,112.81111,0)" xlink:href="#bn"/><use id="use5568" width="100%" height="100%" x="0" y="0" transform="matrix(0.01577778,0,0,0.01577778,123.06667,0)" xlink:href="#bm"/><use id="use5570" width="100%" height="100%" x="0" y="0" transform="matrix(0.01577778,0,0,0.01577778,133.32222,0)" xlink:href="#bs"/><use id="use5572" width="100%" height="100%" x="0" y="0" transform="matrix(0.01577778,0,0,0.01577778,143.57778,0)" xlink:href="#bh"/><use id="use5574" width="100%" height="100%" x="0" y="0" transform="matrix(0.01577778,0,0,0.01577778,153.83333,0)" xlink:href="#bq"/></g><path id="bL" d="m 580,-382 v 224 C 580,-47 513,0 398,0 H 252 C 136,0 70,-47 70,-158 v -368 c 0,-111 67,-158 182,-158 h 153 c 126,-1 183,57 175,187 l -141,36 c 2,-57 2,-98 -61,-94 -66,4 -168,-23 -168,54 v 316 c -9,79 110,46 177,54 81,9 50,-78 56,-141 H 339 v -110 h 241" style="fill:#4cf66e"/><path id="bM" d="m 78,-542 h 141 v 336 c -5,73 46,75 117,75 51,0 95,-25 95,-82 V -542 H 571 V 0 H 431 v -46 h -3 C 405,-8 316,0 234,0 134,0 78,-51 78,-163 v -379" style="fill:#4cf66e"/><g id="M"><use id="use5579" width="100%" height="100%" x="0" y="0" transform="scale(0.01577778)" xlink:href="#bF"/><use id="use5581" width="100%" height="100%" x="0" y="0" transform="matrix(0.01577778,0,0,0.01577778,10.255556,0)" xlink:href="#bq"/><use id="use5583" width="100%" height="100%" x="0" y="0" transform="matrix(0.01577778,0,0,0.01577778,20.511111,0)" xlink:href="#br"/><use id="use5585" width="100%" height="100%" x="0" y="0" transform="matrix(0.01577778,0,0,0.01577778,30.766667,0)" xlink:href="#bn"/><use id="use5587" width="100%" height="100%" x="0" y="0" transform="matrix(0.01577778,0,0,0.01577778,41.022222,0)" xlink:href="#bG"/><use id="use5589" width="100%" height="100%" x="0" y="0" transform="matrix(0.01577778,0,0,0.01577778,51.277778,0)" xlink:href="#be"/><use id="use5591" width="100%" height="100%" x="0" y="0" transform="matrix(0.01577778,0,0,0.01577778,61.533333,0)" xlink:href="#bh"/><use id="use5593" width="100%" height="100%" x="0" y="0" transform="matrix(0.01577778,0,0,0.01577778,71.788889,0)" xlink:href="#bk"/><use id="use5595" width="100%" height="100%" x="0" y="0" transform="matrix(0.01577778,0,0,0.01577778,82.044444,0)" xlink:href="#bp"/><use id="use5597" width="100%" height="100%" x="0" y="0" transform="matrix(0.01577778,0,0,0.01577778,92.3,0)" xlink:href="#bd"/><use id="use5599" width="100%" height="100%" x="0" y="0" transform="matrix(0.01577778,0,0,0.01577778,102.55556,0)" xlink:href="#bn"/><use id="use5601" width="100%" height="100%" x="0" y="0" transform="matrix(0.01577778,0,0,0.01577778,112.81111,0)" xlink:href="#bl"/><use id="use5603" width="100%" height="100%" x="0" y="0" transform="matrix(0.01577778,0,0,0.01577778,123.06667,0)" xlink:href="#bL"/><use id="use5605" width="100%" height="100%" x="0" y="0" transform="matrix(0.01577778,0,0,0.01577778,133.32222,0)" xlink:href="#bG"/><use id="use5607" width="100%" height="100%" x="0" y="0" transform="matrix(0.01577778,0,0,0.01577778,143.57778,0)" xlink:href="#bh"/><use id="use5609" width="100%" height="100%" x="0" y="0" transform="matrix(0.01577778,0,0,0.01577778,153.83333,0)" xlink:href="#bM"/><use id="use5611" width="100%" height="100%" x="0" y="0" transform="matrix(0.01577778,0,0,0.01577778,164.08889,0)" xlink:href="#br"/><use id="use5613" width="100%" height="100%" x="0" y="0" transform="matrix(0.01577778,0,0,0.01577778,174.34444,0)" xlink:href="#bI"/></g><path id="bN" d="m 411,-331 c -2,-75 -66,-82 -143,-82 -99,0 -63,123 -69,207 -5,73 46,75 117,75 51,0 95,-25 95,-82 z m 0,331 v -46 h -3 C 385,-8 296,0 214,0 114,0 58,-51 58,-163 v -216 c -1,-137 83,-163 221,-163 66,0 108,21 129,47 h 3 V -684 H 551 V 0 H 411" style="fill:#4cf66e"/><g id="N"><use id="use5617" width="100%" height="100%" x="0" y="0" transform="scale(0.01577778)" xlink:href="#bp"/><use id="use5619" width="100%" height="100%" x="0" y="0" transform="matrix(0.01577778,0,0,0.01577778,10.255556,0)" xlink:href="#bN"/><use id="use5621" width="100%" height="100%" x="0" y="0" transform="matrix(0.01577778,0,0,0.01577778,20.511111,0)" xlink:href="#bq"/><use id="use5623" width="100%" height="100%" x="0" y="0" transform="matrix(0.01577778,0,0,0.01577778,30.766667,0)" xlink:href="#bj"/><use id="use5625" width="100%" height="100%" x="0" y="0" transform="matrix(0.01577778,0,0,0.01577778,41.022222,0)" xlink:href="#bk"/><use id="use5627" width="100%" height="100%" x="0" y="0" transform="matrix(0.01577778,0,0,0.01577778,51.277778,0)" xlink:href="#be"/></g><linearGradient id="O" x1="-1780" x2="-1946.49" y1="20" y2="70.51" gradientUnits="userSpaceOnUse"><stop id="stop5630" offset="0%" stop-color="#354aaa"/><stop id="stop5632" offset="0%" stop-color="#651fff"/><stop id="stop5634" offset="100%" stop-color="#4c00f0"/></linearGradient><path id="bO" d="M 543,-134 V 0 H 80 v -693 h 156 v 559 h 307" style="fill:#fff"/><path id="bP" d="m 80,-683 c 58,-12 143,-18 208,-18 190,0 321,53 321,233 0,198 -160,242 -373,236 V 0 H 80 Z m 368,214 c 0,-104 -112,-104 -212,-96 v 200 c 112,0 212,3 212,-104" style="fill:#fff"/><path id="bQ" d="m 395,-572 c -128,0 -184,94 -184,225 0,131 55,224 184,224 128,0 184,-93 184,-224 0,-131 -55,-225 -184,-225 z m 0,-137 c 221,0 345,136 345,362 C 740,-120 618,14 395,14 174,14 50,-121 50,-347 50,-571 176,-709 395,-709" style="fill:#fff"/><g id="P"><use id="use5640" width="100%" height="100%" x="0" y="0" transform="scale(0.018)" xlink:href="#bD"/><use id="use5642" width="100%" height="100%" x="0" y="0" transform="matrix(0.018,0,0,0.018,11.052,0)" xlink:href="#bA"/><use id="use5644" width="100%" height="100%" x="0" y="0" transform="matrix(0.018,0,0,0.018,21.96,0)" xlink:href="#bO"/><use id="use5646" width="100%" height="100%" x="0" y="0" transform="matrix(0.018,0,0,0.018,32.094,0)" xlink:href="#bA"/><use id="use5648" width="100%" height="100%" x="0" y="0" transform="matrix(0.018,0,0,0.018,43.002,0)" xlink:href="#bP"/><use id="use5650" width="100%" height="100%" x="0" y="0" transform="matrix(0.018,0,0,0.018,54.594,0)" xlink:href="#bQ"/><use id="use5652" width="100%" height="100%" x="0" y="0" transform="matrix(0.018,0,0,0.018,68.814,0)" xlink:href="#bB"/><use id="use5654" width="100%" height="100%" x="0" y="0" transform="matrix(0.018,0,0,0.018,80.64,0)" xlink:href="#bD"/></g><g id="R"><use id="use5657" width="100%" height="100%" x="0" y="0" transform="scale(0.01059118)" xlink:href="#aV"/><use id="use5659" width="100%" height="100%" x="0" y="0" transform="matrix(0.01059118,0,0,0.01059118,10.273448,0)" xlink:href="#aA"/><use id="use5661" width="100%" height="100%" x="0" y="0" transform="matrix(0.01059118,0,0,0.01059118,21.373009,0)" xlink:href="#aJ"/><use id="use5663" width="100%" height="100%" x="0" y="0" transform="matrix(0.01059118,0,0,0.01059118,26.795695,0)" xlink:href="#aA"/><use id="use5665" width="100%" height="100%" x="0" y="0" transform="matrix(0.01059118,0,0,0.01059118,37.895256,0)" xlink:href="#aW"/><use id="use5667" width="100%" height="100%" x="0" y="0" transform="matrix(0.01059118,0,0,0.01059118,49.587923,0)" xlink:href="#aG"/><use id="use5669" width="100%" height="100%" x="0" y="0" transform="matrix(0.01059118,0,0,0.01059118,61.365319,0)" xlink:href="#aB"/><use id="use5671" width="100%" height="100%" x="0" y="0" transform="matrix(0.01059118,0,0,0.01059118,69.901813,0)" xlink:href="#aH"/></g><g id="S"><use id="use5674" width="100%" height="100%" x="0" y="0" transform="scale(0.01059118)" xlink:href="#aB"/><use id="use5676" width="100%" height="100%" x="0" y="0" transform="matrix(0.01059118,0,0,0.01059118,8.5364941,0)" xlink:href="#aA"/><use id="use5678" width="100%" height="100%" x="0" y="0" transform="matrix(0.01059118,0,0,0.01059118,19.636055,0)" xlink:href="#aC"/><use id="use5680" width="100%" height="100%" x="0" y="0" transform="matrix(0.01059118,0,0,0.01059118,29.52822,0)" xlink:href="#aG"/><use id="use5682" width="100%" height="100%" x="0" y="0" transform="matrix(0.01059118,0,0,0.01059118,41.305617,0)" xlink:href="#aB"/><use id="use5684" width="100%" height="100%" x="0" y="0" transform="matrix(0.01059118,0,0,0.01059118,49.842111,0)" xlink:href="#aK"/><use id="use5686" width="100%" height="100%" x="0" y="0" transform="matrix(0.01059118,0,0,0.01059118,61.683055,0)" xlink:href="#az"/></g><g id="T"><use id="use5689" width="100%" height="100%" x="0" y="0" transform="scale(0.01059118)" xlink:href="#aR"/><use id="use5691" width="100%" height="100%" x="0" y="0" transform="matrix(0.01059118,0,0,0.01059118,10.73946,0)" xlink:href="#aS"/><use id="use5693" width="100%" height="100%" x="0" y="0" transform="matrix(0.01059118,0,0,0.01059118,22.516857,0)" xlink:href="#aK"/></g><path id="bR" d="m 14,-1013 c 70,8 177,-25 195,37 l 194,652 c 10,46 20,89 27,137 77,-272 174,-527 253,-793 13,-44 73,-34 126,-35 27,-1 44,16 51,35 81,265 173,518 245,792 7,-44 18,-96 30,-136 l 198,-652 c 15,-59 118,-30 186,-37 L 1191,0 h -141 c -17,0 -29,-11 -36,-34 -79,-245 -162,-486 -237,-734 -5,-15 -7,-31 -10,-46 -7,32 -12,65 -23,94 L 517,-34 C 501,26 405,-10 342,0"/><g id="U"><use id="use5697" width="100%" height="100%" x="0" y="0" transform="scale(0.01059118)" xlink:href="#aQ"/><use id="use5699" width="100%" height="100%" x="0" y="0" transform="matrix(0.01059118,0,0,0.01059118,7.1384579,0)" xlink:href="#aG"/><use id="use5701" width="100%" height="100%" x="0" y="0" transform="matrix(0.01059118,0,0,0.01059118,18.915854,0)" xlink:href="#aB"/><use id="use5703" width="100%" height="100%" x="0" y="0" transform="matrix(0.01059118,0,0,0.01059118,27.452348,0)" xlink:href="#bR"/><use id="use5705" width="100%" height="100%" x="0" y="0" transform="matrix(0.01059118,0,0,0.01059118,43.678042,0)" xlink:href="#aR"/><use id="use5707" width="100%" height="100%" x="0" y="0" transform="matrix(0.01059118,0,0,0.01059118,54.417502,0)" xlink:href="#aB"/><use id="use5709" width="100%" height="100%" x="0" y="0" transform="matrix(0.01059118,0,0,0.01059118,62.953997,0)" xlink:href="#aK"/><use id="use5711" width="100%" height="100%" x="0" y="0" transform="matrix(0.01059118,0,0,0.01059118,74.79494,0)" xlink:href="#az"/></g><g id="V"><use id="use5714" width="100%" height="100%" x="0" y="0" transform="scale(0.01059118)" xlink:href="#aA"/><use id="use5716" width="100%" height="100%" x="0" y="0" transform="matrix(0.01059118,0,0,0.01059118,10.82419,0)" xlink:href="#aE"/><use id="use5718" width="100%" height="100%" x="0" y="0" transform="matrix(0.01059118,0,0,0.01059118,21.394191,0)" xlink:href="#aA"/><use id="use5720" width="100%" height="100%" x="0" y="0" transform="matrix(0.01059118,0,0,0.01059118,32.493752,0)" xlink:href="#aB"/><use id="use5722" width="100%" height="100%" x="0" y="0" transform="matrix(0.01059118,0,0,0.01059118,41.030246,0)" xlink:href="#aT"/></g><path id="bS" d="m 510,-1031 c 142,0 220,55 289,134 10,-46 3,-116 60,-116 H 965 V 343 H 787 V -150 C 708,-62 611,14 455,14 173,14 72,-209 72,-503 c 0,-237 94,-406 254,-487 54,-27 115,-41 184,-41 z m -254,528 c 2,212 53,373 258,373 136,0 207,-69 273,-153 v -490 c -56,-74 -122,-119 -237,-119 -208,0 -296,164 -294,389"/><path id="bT" d="M 223,0 C 139,2 94,-45 94,-123 94,-193 141,-235 212,-236 377,-239 344,-5 286,96 249,161 203,224 146,271 126,252 83,222 117,187 163,140 208,79 223,0"/><g id="W"><use id="use5727" width="100%" height="100%" x="0" y="0" transform="scale(0.01059118)" xlink:href="#aB"/><use id="use5729" width="100%" height="100%" x="0" y="0" transform="matrix(0.01059118,0,0,0.01059118,8.5364941,0)" xlink:href="#aA"/><use id="use5731" width="100%" height="100%" x="0" y="0" transform="matrix(0.01059118,0,0,0.01059118,19.636055,0)" xlink:href="#bS"/><use id="use5733" width="100%" height="100%" x="0" y="0" transform="matrix(0.01059118,0,0,0.01059118,31.476998,0)" xlink:href="#aX"/><use id="use5735" width="100%" height="100%" x="0" y="0" transform="matrix(0.01059118,0,0,0.01059118,43.254395,0)" xlink:href="#aA"/><use id="use5737" width="100%" height="100%" x="0" y="0" transform="matrix(0.01059118,0,0,0.01059118,54.353955,0)" xlink:href="#az"/><use id="use5739" width="100%" height="100%" x="0" y="0" transform="matrix(0.01059118,0,0,0.01059118,63.547103,0)" xlink:href="#aH"/><use id="use5741" width="100%" height="100%" x="0" y="0" transform="matrix(0.01059118,0,0,0.01059118,71.448126,0)" xlink:href="#bT"/></g><g id="X"><use id="use5744" width="100%" height="100%" x="0" y="0" transform="scale(0.01059118)" xlink:href="#aD"/><use id="use5746" width="100%" height="100%" x="0" y="0" transform="matrix(0.01059118,0,0,0.01059118,5.4226861,0)" xlink:href="#ba"/><use id="use5748" width="100%" height="100%" x="0" y="0" transform="matrix(0.01059118,0,0,0.01059118,22.81341,0)" xlink:href="#aW"/><use id="use5750" width="100%" height="100%" x="0" y="0" transform="matrix(0.01059118,0,0,0.01059118,34.506077,0)" xlink:href="#aA"/><use id="use5752" width="100%" height="100%" x="0" y="0" transform="matrix(0.01059118,0,0,0.01059118,45.605637,0)" xlink:href="#aB"/><use id="use5754" width="100%" height="100%" x="0" y="0" transform="matrix(0.01059118,0,0,0.01059118,54.142132,0)" xlink:href="#az"/><use id="use5756" width="100%" height="100%" x="0" y="0" transform="matrix(0.01059118,0,0,0.01059118,63.335279,0)" xlink:href="#aG"/><use id="use5758" width="100%" height="100%" x="0" y="0" transform="matrix(0.01059118,0,0,0.01059118,75.112676,0)" xlink:href="#aS"/><use id="use5760" width="100%" height="100%" x="0" y="0" transform="matrix(0.01059118,0,0,0.01059118,86.890072,0)" xlink:href="#aR"/><use id="use5762" width="100%" height="100%" x="0" y="0" transform="matrix(0.01059118,0,0,0.01059118,97.629532,0)" xlink:href="#aH"/><use id="use5764" width="100%" height="100%" x="0" y="0" transform="matrix(0.01059118,0,0,0.01059118,105.53056,0)" xlink:href="#aA"/><use id="use5766" width="100%" height="100%" x="0" y="0" transform="matrix(0.01059118,0,0,0.01059118,116.63012,0)" xlink:href="#az"/></g><use id="Y" width="100%" height="100%" x="0" y="0" transform="scale(0.01059118)" xlink:href="#aR"/><g id="Z"><use id="use5770" width="100%" height="100%" x="0" y="0" transform="scale(0.01059118)" xlink:href="#aX"/><use id="use5772" width="100%" height="100%" x="0" y="0" transform="matrix(0.01059118,0,0,0.01059118,11.777396,0)" xlink:href="#az"/><use id="use5774" width="100%" height="100%" x="0" y="0" transform="matrix(0.01059118,0,0,0.01059118,20.970544,0)" xlink:href="#aA"/><use id="use5776" width="100%" height="100%" x="0" y="0" transform="matrix(0.01059118,0,0,0.01059118,32.070105,0)" xlink:href="#aB"/></g><g id="aa"><use id="use5779" width="100%" height="100%" x="0" y="0" transform="scale(0.01059118)" xlink:href="#aR"/><use id="use5781" width="100%" height="100%" x="0" y="0" transform="matrix(0.01059118,0,0,0.01059118,10.73946,0)" xlink:href="#aS"/><use id="use5783" width="100%" height="100%" x="0" y="0" transform="matrix(0.01059118,0,0,0.01059118,22.516857,0)" xlink:href="#aK"/></g><g id="ab"><use id="use5786" width="100%" height="100%" x="0" y="0" transform="scale(0.01059118)" xlink:href="#aU"/><use id="use5788" width="100%" height="100%" x="0" y="0" transform="matrix(0.01059118,0,0,0.01059118,10.82419,0)" xlink:href="#aB"/><use id="use5790" width="100%" height="100%" x="0" y="0" transform="matrix(0.01059118,0,0,0.01059118,19.360684,0)" xlink:href="#aG"/><use id="use5792" width="100%" height="100%" x="0" y="0" transform="matrix(0.01059118,0,0,0.01059118,31.13808,0)" xlink:href="#aX"/><use id="use5794" width="100%" height="100%" x="0" y="0" transform="matrix(0.01059118,0,0,0.01059118,42.915477,0)" xlink:href="#aW"/><use id="use5796" width="100%" height="100%" x="0" y="0" transform="matrix(0.01059118,0,0,0.01059118,54.608144,0)" xlink:href="#az"/></g><filter id="Q" width="1.05" height="1.13" x="-.01" y="-.03" filterUnits="objectBoundingBox"><feOffset id="feOffset5799" dx="4.28" dy="5.54" in="SourceAlpha" result="offOut"/><feGaussianBlur id="feGaussianBlur5801" in="offOut" result="blurOut" stdDeviation="5"/><feColorMatrix id="feColorMatrix5803" in="blurOut" result="colorOut" values="0 0 0 0 0.14274509803921567 0 0 0 0 0.14274509803921567 0 0 0 0 0.14274509803921567 0 0 0 0.3568627450980392 0"/><feBlend id="feBlend5805" in="SourceGraphic" in2="colorOut" mode="normal"/></filter><path id="bU" d="m 1165,-1446 v 221 H 730 V 0 H 461 V -1225 H 24 v -221 h 1141" style="fill:#651f9b"/><path id="bV" d="M 991,-153 C 899,-47 760,15 568,15 237,15 63,-197 63,-535 c 0,-237 116,-392 287,-467 61,-27 129,-40 206,-40 287,0 444,174 444,465 0,54 -3,95 -57,95 H 309 c 4,226 158,349 385,292 52,-13 93,-39 132,-62 32,-19 73,-16 93,9 z M 778,-631 c -4,-143 -73,-234 -217,-234 -154,0 -226,95 -247,234 h 464" style="fill:#651f9b"/><path id="bW" d="M 395,-1486 V 0 H 148 v -1486 h 247" style="fill:#651f9b"/><path id="bX" d="M 635,15 C 514,15 442,-25 379,-85 V 335 H 132 v -1361 c 64,5 145,-11 192,11 33,24 28,86 42,129 78,-86 174,-159 331,-159 277,0 379,232 379,524 0,241 -96,412 -258,495 C 764,1 702,15 635,15 Z m 186,-536 c 0,-181 -37,-329 -209,-329 -117,0 -175,55 -233,124 v 460 c 48,60 104,93 198,93 188,0 244,-152 244,-348" style="fill:#651f9b"/><path id="bY" d="m 361,-1005 c 121,-49 297,-49 417,0 184,74 298,236 298,490 0,330 -178,530 -506,530 -329,0 -509,-200 -509,-530 0,-254 115,-416 300,-490 z m -45,492 c 0,201 65,338 254,338 188,0 251,-137 251,-338 0,-201 -63,-340 -251,-340 -189,0 -254,139 -254,340" style="fill:#651f9b"/><path id="bZ" d="m 604,-806 c -122,5 -180,74 -225,167 V 0 H 132 v -1026 c 83,11 206,-35 218,62 l 15,124 c 63,-106 147,-205 295,-205 51,0 93,12 126,35 l -32,185 c -4,23 -15,33 -40,33 -33,0 -65,-16 -110,-14" style="fill:#651f9b"/><path id="ca" d="M 738,-75 C 674,-20 580,15 469,16 293,18 192,-93 192,-268 v -573 c -65,-4 -153,21 -153,-52 v -98 l 165,-27 52,-280 c 10,-66 115,-35 183,-42 v 323 h 270 v 176 H 439 v 556 c -1,59 32,101 88,102 48,1 68,-25 104,-34 19,1 25,9 33,22" style="fill:#651f9b"/><g id="ac"><use id="use5815" width="100%" height="100%" x="0" y="0" transform="scale(0.0185471)" xlink:href="#bU"/><use id="use5817" width="100%" height="100%" x="0" y="0" transform="matrix(0.0185471,0,0,0.0185471,18.287443,0)" xlink:href="#bV"/><use id="use5819" width="100%" height="100%" x="0" y="0" transform="matrix(0.0185471,0,0,0.0185471,38.114296,0)" xlink:href="#bW"/><use id="use5821" width="100%" height="100%" x="0" y="0" transform="matrix(0.0185471,0,0,0.0185471,48.166826,0)" xlink:href="#bV"/><use id="use5823" width="100%" height="100%" x="0" y="0" transform="matrix(0.0185471,0,0,0.0185471,67.993679,0)" xlink:href="#bX"/><use id="use5825" width="100%" height="100%" x="0" y="0" transform="matrix(0.0185471,0,0,0.0185471,88.970452,0)" xlink:href="#bY"/><use id="use5827" width="100%" height="100%" x="0" y="0" transform="matrix(0.0185471,0,0,0.0185471,110.05851,0)" xlink:href="#bZ"/><use id="use5829" width="100%" height="100%" x="0" y="0" transform="matrix(0.0185471,0,0,0.0185471,125.21149,0)" xlink:href="#ca"/></g><path id="cb" d="m 424,-840 c 74,2 135,-1 169,-44 l 399,-505 c 32,-39 58,-57 122,-57 h 232 l -487,601 c -28,33 -52,59 -89,78 50,19 80,49 111,90 L 1383,0 h -238 c -63,0 -84,-18 -111,-53 L 625,-587 c -28,-35 -53,-49 -116,-49 H 424 V 0 H 155 v -1447 h 269 v 607" style="fill:#651f9b"/><path id="cc" d="M 457,16 C 223,16 111,-139 111,-374 v -652 h 247 v 652 c 0,121 55,198 174,197 102,-1 168,-51 226,-107 v -742 h 247 V 0 C 925,-9 806,29 791,-45 l -17,-82 C 697,-50 608,16 457,16" style="fill:#651f9b"/><path id="cd" d="M 638,15 C 504,15 430,-43 369,-117 359,-65 364,0 298,0 H 135 v -1486 h 247 v 586 c 77,-79 169,-142 318,-142 277,0 379,230 379,521 0,241 -97,412 -259,495 C 766,1 705,15 638,15 Z m 186,-536 c 0,-181 -37,-329 -209,-329 -117,0 -175,55 -233,124 v 460 c 48,61 104,93 199,93 187,0 243,-152 243,-348" style="fill:#651f9b"/><path id="ce" d="m 605,-850 c -102,1 -168,52 -226,108 V 0 H 132 v -1026 c 80,9 198,-29 214,45 l 17,81 c 77,-76 165,-142 317,-142 235,0 346,154 346,389 V 0 H 779 v -653 c 0,-121 -55,-198 -174,-197" style="fill:#651f9b"/><path id="cf" d="m 254,-198 c 95,60 334,64 323,-83 C 568,-400 421,-403 324,-440 192,-490 72,-550 72,-729 c 0,-214 163,-309 387,-313 145,-3 264,55 338,127 -26,36 -45,82 -77,111 -69,21 -111,-33 -176,-48 -103,-23 -247,0 -238,102 11,114 156,118 251,155 126,49 251,100 251,270 C 808,-59 575,48 294,6 192,-9 106,-54 42,-110 c 28,-39 43,-95 83,-120 49,-31 96,11 129,32" style="fill:#651f9b"/><g id="ad"><use id="use5837" width="100%" height="100%" x="0" y="0" transform="scale(0.0185471)" xlink:href="#cb"/><use id="use5839" width="100%" height="100%" x="0" y="0" transform="matrix(0.0185471,0,0,0.0185471,25.891756,0)" xlink:href="#cc"/><use id="use5841" width="100%" height="100%" x="0" y="0" transform="matrix(0.0185471,0,0,0.0185471,46.979812,0)" xlink:href="#cd"/><use id="use5843" width="100%" height="100%" x="0" y="0" transform="matrix(0.0185471,0,0,0.0185471,68.123509,0)" xlink:href="#bV"/><use id="use5845" width="100%" height="100%" x="0" y="0" transform="matrix(0.0185471,0,0,0.0185471,87.950362,0)" xlink:href="#bZ"/><use id="use5847" width="100%" height="100%" x="0" y="0" transform="matrix(0.0185471,0,0,0.0185471,103.10334,0)" xlink:href="#ce"/><use id="use5849" width="100%" height="100%" x="0" y="0" transform="matrix(0.0185471,0,0,0.0185471,124.1914,0)" xlink:href="#bV"/><use id="use5851" width="100%" height="100%" x="0" y="0" transform="matrix(0.0185471,0,0,0.0185471,144.01825,0)" xlink:href="#ca"/><use id="use5853" width="100%" height="100%" x="0" y="0" transform="matrix(0.0185471,0,0,0.0185471,158.37371,0)" xlink:href="#bV"/><use id="use5855" width="100%" height="100%" x="0" y="0" transform="matrix(0.0185471,0,0,0.0185471,178.20056,0)" xlink:href="#cf"/></g><path id="cg" d="m 1417,0 h -208 c -47,1 -77,-28 -90,-61 L 1011,-356 H 412 L 304,-61 C 293,-31 258,0 215,0 H 6 L 574,-1446 H 849 Z M 481,-546 h 461 c -77,-218 -163,-424 -231,-651 -66,230 -154,432 -230,651" style="fill:#651f9b"/><path id="ch" d="M 928,-153 C 839,-49 712,15 524,15 297,15 166,-116 100,-290 53,-413 51,-596 96,-724 c 67,-190 213,-318 465,-318 165,0 270,58 357,143 -29,37 -52,81 -86,112 -71,26 -104,-41 -170,-55 -24,-5 -52,-12 -86,-12 -192,5 -260,143 -260,339 0,194 67,336 254,342 98,3 148,-38 200,-79 26,-20 67,-17 87,9" style="fill:#651f9b"/><g id="ae"><use id="use5860" width="100%" height="100%" x="0" y="0" transform="scale(0.0185471)" xlink:href="#cg"/><use id="use5862" width="100%" height="100%" x="0" y="0" transform="matrix(0.0185471,0,0,0.0185471,26.336886,0)" xlink:href="#ch"/><use id="use5864" width="100%" height="100%" x="0" y="0" transform="matrix(0.0185471,0,0,0.0185471,44.030822,0)" xlink:href="#ch"/><use id="use5866" width="100%" height="100%" x="0" y="0" transform="matrix(0.0185471,0,0,0.0185471,61.724758,0)" xlink:href="#bV"/><use id="use5868" width="100%" height="100%" x="0" y="0" transform="matrix(0.0185471,0,0,0.0185471,81.551611,0)" xlink:href="#cf"/><use id="use5870" width="100%" height="100%" x="0" y="0" transform="matrix(0.0185471,0,0,0.0185471,97.761779,0)" xlink:href="#cf"/></g><path id="ci" d="m 605,-850 c -102,1 -168,52 -226,108 V 0 H 132 v -1486 h 247 v 571 c 76,-69 161,-129 301,-127 234,4 346,154 346,389 V 0 H 779 v -653 c 0,-121 -55,-198 -174,-197" style="fill:#651f9b"/><g id="af"><use id="use5874" width="100%" height="100%" x="0" y="0" transform="scale(0.0185471)" xlink:href="#cg"/><use id="use5876" width="100%" height="100%" x="0" y="0" transform="matrix(0.0185471,0,0,0.0185471,26.336886,0)" xlink:href="#cc"/><use id="use5878" width="100%" height="100%" x="0" y="0" transform="matrix(0.0185471,0,0,0.0185471,47.424942,0)" xlink:href="#ca"/><use id="use5880" width="100%" height="100%" x="0" y="0" transform="matrix(0.0185471,0,0,0.0185471,61.7804,0)" xlink:href="#ci"/></g></defs></g></svg>