<svg xmlns="http://www.w3.org/2000/svg" xmlns:xlink="http://www.w3.org/1999/xlink" width="100%" height="100%" version="1.1" viewBox="0 0 800 300" xml:space="preserve" style="fill-rule:evenodd;clip-rule:evenodd;stroke-linecap:round;stroke-linejoin:round;stroke-miterlimit:1.5"><g transform="matrix(0.552656,0,0,0.577443,12.8298,19.6435)"><rect width="353.646" height="146.354" x="37.5" y="50" style="fill:#e4f5ea;fill-opacity:.74;stroke:#57ba87;stroke-width:1.33px"/></g><g transform="matrix(0.552656,0,0,0.577443,12.4264,112.424)"><rect width="353.646" height="146.354" x="37.5" y="50" style="fill:#e4f5ea;fill-opacity:.74;stroke:#57ba87;stroke-width:1.33px"/></g><g transform="matrix(0.655426,0,0,0.655426,18.5443,-59.7841)"><rect width="79.688" height="76.042" x="130.208" y="177.083" style="fill:#ffbc9f;fill-opacity:.4;stroke:#ff7100;stroke-width:1.53px"/></g><g><text x="230.729" y="113.542" transform="matrix(1.3725,0,0,1.3725,-147.826,-31.0649)" style="font-family:'ArialMT','Arial',sans-serif;font-size:12px">Node 1</text></g><g><text x="230.729" y="113.542" transform="matrix(1.3725,0,0,1.3725,-148.633,61.7158)" style="font-family:'ArialMT','Arial',sans-serif;font-size:12px">Node 2</text></g><g transform="matrix(0.655426,0,0,0.655426,-43.4171,-59.7841)"><rect width="79.688" height="76.042" x="130.208" y="177.083" style="fill:#ffbc9f;fill-opacity:.4;stroke:#ff7100;stroke-width:1.53px"/></g><g transform="matrix(0.655426,0,0,0.655426,18.5443,-59.7841)"><rect width="79.688" height="76.042" x="130.208" y="177.083" style="fill:#ffbc9f;fill-opacity:.4;stroke:#ff7100;stroke-width:1.53px"/></g><g><text x="98.438" y="66.667" transform="matrix(1.2002,0,0,1.2002,-67.7389,6.15999)" style="font-family:'ArialMT','Arial',sans-serif;font-size:12px">Pod 1</text></g><g><text x="98.438" y="66.667" transform="matrix(1.2002,0,0,1.2002,-5.77749,6.15999)" style="font-family:'ArialMT','Arial',sans-serif;font-size:12px">Pod 2</text></g><g transform="matrix(0.655426,0,0,0.655426,-40.1899,32.5126)"><rect width="79.688" height="76.042" x="130.208" y="177.083" style="fill:#ffbc9f;fill-opacity:.4;stroke:#ff7100;stroke-width:1.53px"/></g><g><text x="98.438" y="66.667" transform="matrix(1.2002,0,0,1.2002,-64.5117,98.4567)" style="font-family:'ArialMT','Arial',sans-serif;font-size:12px">Pod 3</text></g><g transform="matrix(0.552656,0,0,0.577443,279.08,22.9768)"><rect width="353.646" height="146.354" x="37.5" y="50" style="fill:#e4f5ea;fill-opacity:.74;stroke:#57ba87;stroke-width:1.33px"/></g><g transform="matrix(0.552656,0,0,0.577443,278.676,115.758)"><rect width="353.646" height="146.354" x="37.5" y="50" style="fill:#e4f5ea;fill-opacity:0;stroke:#57ba87;stroke-width:1.33px;stroke-dasharray:13.27,13.27,0,0"/></g><g transform="matrix(0.655426,0,0,0.655426,284.794,-56.4508)"><rect width="79.688" height="76.042" x="130.208" y="177.083" style="fill:#ffbc9f;fill-opacity:.4;stroke:#ff7100;stroke-width:1.53px"/></g><g><text x="230.729" y="113.542" transform="matrix(1.3725,0,0,1.3725,118.424,-27.7316)" style="font-family:'ArialMT','Arial',sans-serif;font-size:12px">Node 1</text></g><g><text x="230.729" y="113.542" transform="matrix(1.3725,0,0,1.3725,117.617,65.0491)" style="font-family:'ArialMT','Arial',sans-serif;font-size:12px">Node 2</text></g><g transform="matrix(0.655426,0,0,0.655426,222.833,-56.4508)"><rect width="79.688" height="76.042" x="130.208" y="177.083" style="fill:#ffbc9f;fill-opacity:.4;stroke:#ff7100;stroke-width:1.53px"/></g><g transform="matrix(0.655426,0,0,0.655426,284.794,-56.4508)"><rect width="79.688" height="76.042" x="130.208" y="177.083" style="fill:#ffbc9f;fill-opacity:.4;stroke:#ff7100;stroke-width:1.53px"/></g><g><text x="98.438" y="66.667" transform="matrix(1.2002,0,0,1.2002,198.511,9.49332)" style="font-family:'ArialMT','Arial',sans-serif;font-size:12px">Pod 1</text></g><g><text x="98.438" y="66.667" transform="matrix(1.2002,0,0,1.2002,260.473,9.49332)" style="font-family:'ArialMT','Arial',sans-serif;font-size:12px">Pod 2</text></g><g transform="matrix(0.655426,0,0,0.655426,346.893,-56.6541)"><rect width="79.688" height="76.042" x="130.208" y="177.083" style="fill:#ffbc9f;fill-opacity:.4;stroke:#ff7100;stroke-width:1.53px"/></g><g><text x="98.438" y="66.667" transform="matrix(1.2002,0,0,1.2002,322.572,9.28999)" style="font-family:'ArialMT','Arial',sans-serif;font-size:12px">Pod 3&apos;</text></g><g transform="matrix(0.552656,0,0,0.577443,541.684,22.9768)"><rect width="353.646" height="146.354" x="37.5" y="50" style="fill:#e4f5ea;fill-opacity:.74;stroke:#57ba87;stroke-width:1.33px"/></g><g transform="matrix(0.655426,0,0,0.655426,547.398,-56.4508)"><rect width="79.688" height="76.042" x="130.208" y="177.083" style="fill:#ffbc9f;fill-opacity:.4;stroke:#ff7100;stroke-width:1.53px"/></g><g><text x="230.729" y="113.542" transform="matrix(1.3725,0,0,1.3725,381.028,-27.7316)" style="font-family:'ArialMT','Arial',sans-serif;font-size:12px">Node 1</text></g><g transform="matrix(0.655426,0,0,0.655426,485.437,-56.4508)"><rect width="79.688" height="76.042" x="130.208" y="177.083" style="fill:#ffbc9f;fill-opacity:.4;stroke:#ff7100;stroke-width:1.53px"/></g><g transform="matrix(0.655426,0,0,0.655426,547.398,-56.4508)"><rect width="79.688" height="76.042" x="130.208" y="177.083" style="fill:#ffbc9f;fill-opacity:.4;stroke:#ff7100;stroke-width:1.53px"/></g><g><text x="98.438" y="66.667" transform="matrix(1.2002,0,0,1.2002,461.115,9.49332)" style="font-family:'ArialMT','Arial',sans-serif;font-size:12px">Pod 1</text></g><g><text x="98.438" y="66.667" transform="matrix(1.2002,0,0,1.2002,523.077,9.49332)" style="font-family:'ArialMT','Arial',sans-serif;font-size:12px">Pod 2</text></g><g transform="matrix(0.655426,0,0,0.655426,609.498,-56.6541)"><rect width="79.688" height="76.042" x="130.208" y="177.083" style="fill:#ffbc9f;fill-opacity:.4;stroke:#ff7100;stroke-width:1.53px"/></g><g><text x="98.438" y="66.667" transform="matrix(1.2002,0,0,1.2002,585.176,9.28999)" style="font-family:'ArialMT','Arial',sans-serif;font-size:12px">Pod 3&apos;</text></g><g><g><path d="M274.854,139.25L283.854,143.75L274.854,148.25C277.104,146 277.104,141.5 274.854,139.25Z" transform="matrix(0.531646,0,0,1,-2.73606,-8.33333) matrix(1.88095,-0,-0,1,5.1464,8.33333)" style="fill:#6f6b6b"/><path d="M240.104,143.75L276.654,143.75" transform="matrix(0.531646,0,0,1,-2.73606,-8.33333) matrix(1.88095,-0,-0,1,5.1464,8.33333)" style="fill:none;stroke:#6f6b6b;stroke-width:3px"/></g></g><g><g><path d="M544.646,139.25L553.646,143.75L544.646,148.25C546.896,146 546.896,141.5 544.646,139.25Z" transform="matrix(0.531646,0,0,1,267.056,-8.33333) matrix(1.88095,-0,-0,1,-502.319,8.33333)" style="fill:#6f6b6b"/><path d="M509.896,143.75L546.446,143.75" transform="matrix(0.531646,0,0,1,267.056,-8.33333) matrix(1.88095,-0,-0,1,-502.319,8.33333)" style="fill:none;stroke:#6f6b6b;stroke-width:3px"/></g></g><g><text x="336.979" y="276.563" transform="matrix(1,0,0,1,73.4375,-34.7917)" style="font-family:'ArialMT','Arial',sans-serif;font-size:12px">blog.cptsai.com</text></g><g><path d="M553.453,169.437L494.147,169.437L494.147,185.863L553.453,185.863L548.42,177.512L553.453,169.437Z" transform="matrix(1,0,0,1,-63.86,12.3467)" style="fill:#ff0021;fill-opacity:.67;stroke:#ff0015;stroke-width:1px"/></g><g><text x="502.491" y="181.036" transform="matrix(0.826064,0,0,0.826064,16.3196,44.4474)" style="font-family:'ArialMT','Arial',sans-serif;font-size:12px;fill:#fff">NoSchedule</text></g></svg>