<?xml version="1.0" encoding="UTF-8" standalone="no"?>
<!DOCTYPE svg PUBLIC "-//W3C//DTD SVG 1.1//EN" "http://www.w3.org/Graphics/SVG/1.1/DTD/svg11.dtd">
<svg width="100%" height="100%" viewBox="0 0 1000 150" version="1.1" xmlns="http://www.w3.org/2000/svg" xmlns:xlink="http://www.w3.org/1999/xlink" xml:space="preserve" xmlns:serif="http://www.serif.com/" style="fill-rule:evenodd;clip-rule:evenodd;stroke-linejoin:round;stroke-miterlimit:1.41421;">
    <g transform="matrix(1,0,0,1,-8,0)">
        <g transform="matrix(3.16711,0,0,3.16711,-241.929,-135.031)">
            <text x="87.489px" y="66.879px" style="font-family:'ArialMT', 'Arial', sans-serif;font-size:12px;fill:rgb(99,89,208);">001<tspan x="106.619px 113.293px " y="66.879px 66.879px ">1 </tspan>0101</text>
        </g>
        <g transform="matrix(2.20559,0,0,2.20559,-125.065,-39.533)">
            <text x="87.489px" y="66.879px" style="font-family:'MalgunGothic', 'Malgun Gothic', sans-serif;font-size:12px;fill:rgb(99,89,208);">濕度整數</text>
        </g>
    </g>
    <g transform="matrix(1,0,0,1,-14.1101,0)">
        <g transform="matrix(3.16711,0,0,3.16711,-42.6456,-135.031)">
            <text x="87.489px" y="66.879px" style="font-family:'ArialMT', 'Arial', sans-serif;font-size:12px;fill:rgb(0,205,191);">0000 0000</text>
        </g>
        <g transform="matrix(2.20559,0,0,2.20559,74.2192,-39.533)">
            <text x="87.489px" y="66.879px" style="font-family:'MalgunGothic', 'Malgun Gothic', sans-serif;font-size:12px;fill:rgb(0,205,191);">濕度小數</text>
        </g>
    </g>
    <g transform="matrix(1,0,0,1,-18.3402,0)">
        <g transform="matrix(3.16711,0,0,3.16711,154.758,-135.031)">
            <text x="87.489px" y="66.879px" style="font-family:'ArialMT', 'Arial', sans-serif;font-size:12px;fill:rgb(232,98,47);">0001 1000</text>
        </g>
        <g transform="matrix(2.20559,0,0,2.20559,271.623,-39.533)">
            <text x="87.489px" y="66.879px" style="font-family:'MalgunGothic', 'Malgun Gothic', sans-serif;font-size:12px;fill:rgb(232,98,47);">溫度整數</text>
        </g>
    </g>
    <g transform="matrix(1,0,0,1,-13.1701,0)">
        <g transform="matrix(3.16711,0,0,3.16711,342.762,-135.031)">
            <text x="87.489px" y="66.879px" style="font-family:'ArialMT', 'Arial', sans-serif;font-size:12px;fill:rgb(255,0,24);">0000 0000</text>
        </g>
        <g transform="matrix(2.20559,0,0,2.20559,459.627,-39.533)">
            <text x="87.489px" y="66.879px" style="font-family:'MalgunGothic', 'Malgun Gothic', sans-serif;font-size:12px;fill:rgb(255,0,24);">溫度小數</text>
        </g>
    </g>
    <g transform="matrix(1,0,0,1,-8,0)">
        <g transform="matrix(3.16711,0,0,3.16711,530.765,-135.031)">
            <text x="87.489px" y="66.879px" style="font-family:'ArialMT', 'Arial', sans-serif;font-size:12px;">0100 1<tspan x="123.301px 129.975px " y="66.879px 66.879px ">10</tspan>1</text>
        </g>
        <g transform="matrix(2.20559,0,0,2.20559,661.394,-39.533)">
            <text x="87.489px" y="66.879px" style="font-family:'MalgunGothic', 'Malgun Gothic', sans-serif;font-size:12px;">檢</text>
            <text x="99.489px" y="66.879px" style="font-family:'MicrosoftJhengHeiRegular', 'Microsoft JhengHei', sans-serif;font-size:12px;">查碼</text>
        </g>
    </g>
</svg>
