<?xml version="1.0" encoding="UTF-8" standalone="no"?><!DOCTYPE svg PUBLIC "-//W3C//DTD SVG 1.1//EN" "http://www.w3.org/Graphics/SVG/1.1/DTD/svg11.dtd"><svg width="100%" height="100%" viewBox="0 0 1100 210" version="1.1" xmlns="http://www.w3.org/2000/svg" xmlns:xlink="http://www.w3.org/1999/xlink" xml:space="preserve" xmlns:serif="http://www.serif.com/" style="fill-rule:evenodd;clip-rule:evenodd;"><g><g><g><path d="M60,160l0,-100" style="fill-rule:nonzero;"/><text x="57.219px" y="171.52px" style="font-family:'ArialMT', 'Arial', sans-serif;font-size:10px;">0</text></g><g><path d="M193.333,165l0,-100" style="fill-rule:nonzero;"/><text x="180.821px" y="176.52px" style="font-family:'ArialMT', 'Arial', sans-serif;font-size:10px;">2,000</text></g><g><path d="M326.667,165l0,-100" style="fill-rule:nonzero;"/><text x="314.154px" y="176.52px" style="font-family:'ArialMT', 'Arial', sans-serif;font-size:10px;">4,000</text></g><g><path d="M460,165l0,-100" style="fill-rule:nonzero;"/><text x="447.488px" y="176.52px" style="font-family:'ArialMT', 'Arial', sans-serif;font-size:10px;">6,000</text></g><g><path d="M593.333,165l0,-100" style="fill-rule:nonzero;"/><text x="580.821px" y="176.52px" style="font-family:'ArialMT', 'Arial', sans-serif;font-size:10px;">8,000</text></g><g><path d="M726.667,165l0,-100" style="fill-rule:nonzero;"/><text x="711.374px" y="176.52px" style="font-family:'ArialMT', 'Arial', sans-serif;font-size:10px;">10,000</text></g><g><path d="M860,165l0,-100" style="fill-rule:nonzero;"/><text x="844.707px" y="176.52px" style="font-family:'ArialMT', 'Arial', sans-serif;font-size:10px;">12,000</text></g><g><path d="M993.333,165l0,-100" style="fill-rule:nonzero;"/><text x="978.04px" y="176.52px" style="font-family:'ArialMT', 'Arial', sans-serif;font-size:10px;">14,000</text></g><path d="M60,60l0,100l1000,0l0,-100" style="fill:none;stroke:#9db1c2;stroke-opacity:0.662745;stroke-width:1px;"/></g><g><g><path d="M60,160l-6,0" style="fill-rule:nonzero;"/><text x="45.438px" y="163.84px" style="font-family:'ArialMT', 'Arial', sans-serif;font-size:10px;">0</text></g><g><path d="M60,60l-6,0" style="fill-rule:nonzero;"/><text x="45.438px" y="63.84px" style="font-family:'ArialMT', 'Arial', sans-serif;font-size:10px;">1</text></g><path d="M54,60l6,0l0,100l-6,0" style="fill:none;stroke:#000;stroke-opacity:0.603922;stroke-width:1px;"/></g><path d="M60.067,60l27,0l0.066,100l19.867,0l0.067,-100l20.666,0l0.067,100l13.133,0l0.067,-100l5.667,0l0.066,100l12.934,0l0.066,-100l5.734,0l0.066,100l12.6,0l0.067,-100l17,0l0.067,100l13.133,0l0.067,-100l5.466,0l0.067,100l13.133,0l0.067,-100l16.267,0l0.066,100l13.134,0l0.066,-100l17,0l0.067,100l13.067,0l0.066,-100l16.867,0l0.067,100l13.066,0l0.067,-100l5.733,0l0.067,100l12.933,0l0.067,-100l5.667,0l0.066,100l13,0l0.067,-100l5.467,0l0.066,100l13.134,0l0.066,-100l5.734,0l0.066,100l12.467,0l0.067,-100l5.666,0l0.067,100l13.2,0l0.067,-100l5.666,0l0.067,100l12.933,0l0.067,-100l5.733,0l0.067,100l13.067,0l0.066,-100l5.4,0l0.067,100l13.133,0l0.067,-100l6.067,0l0.066,100l12.934,0l0.066,-100l5.734,0l0.066,100l13,0l0.067,-100l5.667,0l0.066,100l12.934,0l0.066,-100l5.734,0l0.066,100l12.867,0l0.067,-100l17.066,0l0.067,100l12.467,0l0.066,-100l17.067,0l0.067,100l12.866,0l0.067,-100l5.6,0l0.067,100l13.133,0l0.067,-100l5.666,0l0.067,100l12.6,0l0.067,-100l17,0l0.066,100l12.934,0l0.066,-100l5.734,0l0.066,100l13.134,0l0.066,-100l5.267,0l0.067,100l13.066,0l0.067,-100l5.667,0l0.066,100l12.8,0l0.067,-100l5.667,0l0.066,100l13.134,0l0.066,-100l5.734,0l0.066,100l12.934,0l0.066,-100l5.667,0l0.067,100l12.6,0l0.066,-100l5.734,0l0.066,100l13.134,0l0.066,-100l6.067,0l0.067,100l12.933,0l0.067,-100l5.666,0l0.067,100l13.067,0l0.066,-100l16.934,0l0.066,100l13.134,0l0.066,-100l5.534,0l0.066,100l13.134,0l0.066,-100l5.467,0l0.067,100l12.933,0l0.067,-100l5.533,0l0.067,100l13,0l0.066,-100l16.734,0l0.066,100l13.134,0l0.066,-100l16.934,0l0.066,100l12.8,0l0.067,-100l16.333,0l0.067,100l13.867,0l0.066,-100l44.867,0" style="fill:none;stroke:#4682b4;stroke-width:1.4px;"/><text x="924.981px" y="197.406px" style="font-family:'ArialMT', 'Arial', sans-serif;font-size:21.22px;">blog.cptsai.com</text></g><g id="Layer1"><path d="M76.718,28.257l0,159.082" style="fill:none;stroke:#e2473a;stroke-width:1px;stroke-linecap:round;stroke-linejoin:round;stroke-miterlimit:1.5;"/><path d="M127.718,28.257l0,159.082" style="fill:none;stroke:#e2473a;stroke-width:1px;stroke-linecap:round;stroke-linejoin:round;stroke-miterlimit:1.5;"/><path d="M146.718,28.257l0,159.082" style="fill:none;stroke:#e2473a;stroke-width:1px;stroke-linecap:round;stroke-linejoin:round;stroke-miterlimit:1.5;"/><path d="M165.718,28.257l0,159.082" style="fill:none;stroke:#e2473a;stroke-width:1px;stroke-linecap:round;stroke-linejoin:round;stroke-miterlimit:1.5;"/><path d="M195.718,28.257l0,159.082" style="fill:none;stroke:#e2473a;stroke-width:1px;stroke-linecap:round;stroke-linejoin:round;stroke-miterlimit:1.5;"/><path d="M214.718,28.257l0,159.082" style="fill:none;stroke:#e2473a;stroke-width:1px;stroke-linecap:round;stroke-linejoin:round;stroke-miterlimit:1.5;"/><path d="M243.718,28.257l0,159.082" style="fill:none;stroke:#e2473a;stroke-width:1px;stroke-linecap:round;stroke-linejoin:round;stroke-miterlimit:1.5;"/><path d="M273.718,28.257l0,159.082" style="fill:none;stroke:#e2473a;stroke-width:1px;stroke-linecap:round;stroke-linejoin:round;stroke-miterlimit:1.5;"/><text x="253.247px" y="37.958px" style="font-family:'ArialMT', 'Arial', sans-serif;font-size:8.432px;">1</text><path d="M303.718,28.257l0,159.082" style="fill:none;stroke:#e2473a;stroke-width:1px;stroke-linecap:round;stroke-linejoin:round;stroke-miterlimit:1.5;"/><path d="M322.718,28.257l0,159.082" style="fill:none;stroke:#e2473a;stroke-width:1px;stroke-linecap:round;stroke-linejoin:round;stroke-miterlimit:1.5;"/><path d="M341.718,28.257l0,159.082" style="fill:none;stroke:#e2473a;stroke-width:1px;stroke-linecap:round;stroke-linejoin:round;stroke-miterlimit:1.5;"/><path d="M361.718,28.257l0,159.082" style="fill:none;stroke:#e2473a;stroke-width:1px;stroke-linecap:round;stroke-linejoin:round;stroke-miterlimit:1.5;"/><path d="M379.718,28.257l0,159.082" style="fill:none;stroke:#e2473a;stroke-width:1px;stroke-linecap:round;stroke-linejoin:round;stroke-miterlimit:1.5;"/><path d="M397.718,28.257l0,159.082" style="fill:none;stroke:#e2473a;stroke-width:1px;stroke-linecap:round;stroke-linejoin:round;stroke-miterlimit:1.5;"/><path d="M416.718,28.257l0,159.082" style="fill:none;stroke:#e2473a;stroke-width:1px;stroke-linecap:round;stroke-linejoin:round;stroke-miterlimit:1.5;"/><path d="M435.718,28.257l0,159.082" style="fill:none;stroke:#e2473a;stroke-width:1px;stroke-linecap:round;stroke-linejoin:round;stroke-miterlimit:1.5;"/><path d="M453.718,28.257l0,159.082" style="fill:none;stroke:#e2473a;stroke-width:1px;stroke-linecap:round;stroke-linejoin:round;stroke-miterlimit:1.5;"/><path d="M472.718,28.257l0,159.082" style="fill:none;stroke:#e2473a;stroke-width:1px;stroke-linecap:round;stroke-linejoin:round;stroke-miterlimit:1.5;"/><path d="M491.718,28.257l0,159.082" style="fill:none;stroke:#e2473a;stroke-width:1px;stroke-linecap:round;stroke-linejoin:round;stroke-miterlimit:1.5;"/><path d="M511.718,28.257l0,159.082" style="fill:none;stroke:#e2473a;stroke-width:1px;stroke-linecap:round;stroke-linejoin:round;stroke-miterlimit:1.5;"/><path d="M529.718,28.257l0,159.082" style="fill:none;stroke:#e2473a;stroke-width:1px;stroke-linecap:round;stroke-linejoin:round;stroke-miterlimit:1.5;"/><path d="M559.718,28.257l0,159.082" style="fill:none;stroke:#e2473a;stroke-width:1px;stroke-linecap:round;stroke-linejoin:round;stroke-miterlimit:1.5;"/><path d="M589.718,28.257l0,159.082" style="fill:none;stroke:#e2473a;stroke-width:1px;stroke-linecap:round;stroke-linejoin:round;stroke-miterlimit:1.5;"/><path d="M607.718,28.257l0,159.082" style="fill:none;stroke:#e2473a;stroke-width:1px;stroke-linecap:round;stroke-linejoin:round;stroke-miterlimit:1.5;"/><path d="M627.718,28.257l0,159.082" style="fill:none;stroke:#e2473a;stroke-width:1px;stroke-linecap:round;stroke-linejoin:round;stroke-miterlimit:1.5;"/><path d="M656.718,28.257l0,159.082" style="fill:none;stroke:#e2473a;stroke-width:1px;stroke-linecap:round;stroke-linejoin:round;stroke-miterlimit:1.5;"/><path d="M675.718,28.257l0,159.082" style="fill:none;stroke:#e2473a;stroke-width:1px;stroke-linecap:round;stroke-linejoin:round;stroke-miterlimit:1.5;"/><path d="M694.718,28.257l0,159.082" style="fill:none;stroke:#e2473a;stroke-width:1px;stroke-linecap:round;stroke-linejoin:round;stroke-miterlimit:1.5;"/><path d="M713.718,28.257l0,159.082" style="fill:none;stroke:#e2473a;stroke-width:1px;stroke-linecap:round;stroke-linejoin:round;stroke-miterlimit:1.5;"/><path d="M731.718,28.257l0,159.082" style="fill:none;stroke:#e2473a;stroke-width:1px;stroke-linecap:round;stroke-linejoin:round;stroke-miterlimit:1.5;"/><path d="M750.718,28.257l0,159.082" style="fill:none;stroke:#e2473a;stroke-width:1px;stroke-linecap:round;stroke-linejoin:round;stroke-miterlimit:1.5;"/><path d="M769.718,28.257l0,159.082" style="fill:none;stroke:#e2473a;stroke-width:1px;stroke-linecap:round;stroke-linejoin:round;stroke-miterlimit:1.5;"/><path d="M787.718,28.257l0,159.082" style="fill:none;stroke:#e2473a;stroke-width:1px;stroke-linecap:round;stroke-linejoin:round;stroke-miterlimit:1.5;"/><path d="M807.718,28.257l0,159.082" style="fill:none;stroke:#e2473a;stroke-width:1px;stroke-linecap:round;stroke-linejoin:round;stroke-miterlimit:1.5;"/><path d="M826.718,28.257l0,159.082" style="fill:none;stroke:#e2473a;stroke-width:1px;stroke-linecap:round;stroke-linejoin:round;stroke-miterlimit:1.5;"/><path d="M855.718,28.257l0,159.082" style="fill:none;stroke:#e2473a;stroke-width:1px;stroke-linecap:round;stroke-linejoin:round;stroke-miterlimit:1.5;"/><path d="M875.718,28.257l0,159.082" style="fill:none;stroke:#e2473a;stroke-width:1px;stroke-linecap:round;stroke-linejoin:round;stroke-miterlimit:1.5;"/><path d="M893.718,28.257l0,159.082" style="fill:none;stroke:#e2473a;stroke-width:1px;stroke-linecap:round;stroke-linejoin:round;stroke-miterlimit:1.5;"/><path d="M912.718,28.257l0,159.082" style="fill:none;stroke:#e2473a;stroke-width:1px;stroke-linecap:round;stroke-linejoin:round;stroke-miterlimit:1.5;"/><path d="M941.718,28.257l0,159.082" style="fill:none;stroke:#e2473a;stroke-width:1px;stroke-linecap:round;stroke-linejoin:round;stroke-miterlimit:1.5;"/><path d="M971.718,28.257l0,159.082" style="fill:none;stroke:#e2473a;stroke-width:1px;stroke-linecap:round;stroke-linejoin:round;stroke-miterlimit:1.5;"/><path d="M1001.72,28.257l0,159.082" style="fill:none;stroke:#e2473a;stroke-width:1px;stroke-linecap:round;stroke-linejoin:round;stroke-miterlimit:1.5;"/><text x="91.796px" y="41.854px" style="font-family:'MalgunGothic', 'Malgun Gothic', sans-serif;font-size:12px;">回應</text><text x="134.091px" y="38.78px" style="font-family:'ArialMT', 'Arial', sans-serif;font-size:12px;">0</text><text x="155.092px" y="39.005px" style="font-family:'ArialMT', 'Arial', sans-serif;font-size:12px;">0</text><text x="177.891px" y="38.371px" style="font-family:'ArialMT', 'Arial', sans-serif;font-size:12px;">1</text><text x="202.282px" y="37.105px" style="font-family:'ArialMT', 'Arial', sans-serif;font-size:12px;">0</text><text x="202.282px" y="37.105px" style="font-family:'ArialMT', 'Arial', sans-serif;font-size:12px;">0</text><text x="223.279px" y="39.807px" style="font-family:'ArialMT', 'Arial', sans-serif;font-size:8.432px;">1</text><text x="288.145px" y="37.295px" style="font-family:'ArialMT', 'Arial', sans-serif;font-size:8.432px;">1</text><text x="311.997px" y="36.14px" style="font-family:'ArialMT', 'Arial', sans-serif;font-size:8.432px;">0</text><text x="331.796px" y="37.434px" style="font-family:'ArialMT', 'Arial', sans-serif;font-size:8.432px;">0</text><text x="349.484px" y="33.397px" style="font-family:'ArialMT', 'Arial', sans-serif;font-size:8.432px;">0</text><text x="368.451px" y="37.989px" style="font-family:'ArialMT', 'Arial', sans-serif;font-size:8.432px;">0</text><text x="388.003px" y="38.99px" style="font-family:'ArialMT', 'Arial', sans-serif;font-size:8.432px;">0</text><text x="406.061px" y="38.513px" style="font-family:'ArialMT', 'Arial', sans-serif;font-size:8.432px;">0</text><text x="422.732px" y="38.513px" style="font-family:'ArialMT', 'Arial', sans-serif;font-size:8.432px;">0</text><text x="441.53px" y="36.664px" style="font-family:'ArialMT', 'Arial', sans-serif;font-size:8.432px;">0</text><text x="464.117px" y="36.918px" style="font-family:'ArialMT', 'Arial', sans-serif;font-size:8.432px;">0</text><text x="480.496px" y="34.653px" style="font-family:'ArialMT', 'Arial', sans-serif;font-size:8.432px;">0</text><text x="502.591px" y="35.955px" style="font-family:'ArialMT', 'Arial', sans-serif;font-size:8.432px;">0</text><text x="520.31px" y="34.63px" style="font-family:'ArialMT', 'Arial', sans-serif;font-size:8.432px;">0</text><text x="541.372px" y="39.437px" style="font-family:'ArialMT', 'Arial', sans-serif;font-size:8.432px;">1</text><text x="573.929px" y="36.001px" style="font-family:'ArialMT', 'Arial', sans-serif;font-size:8.432px;">1</text><text x="596.686px" y="38.436px" style="font-family:'ArialMT', 'Arial', sans-serif;font-size:8.432px;">0</text><text x="616.161px" y="35.662px" style="font-family:'ArialMT', 'Arial', sans-serif;font-size:8.432px;">0</text><text x="639.057px" y="41.44px" style="font-family:'ArialMT', 'Arial', sans-serif;font-size:8.432px;">1</text><text x="666.159px" y="39.252px" style="font-family:'ArialMT', 'Arial', sans-serif;font-size:8.432px;">0</text><text x="682.492px" y="33.166px" style="font-family:'ArialMT', 'Arial', sans-serif;font-size:8.432px;">0</text><text x="705.465px" y="37.758px" style="font-family:'ArialMT', 'Arial', sans-serif;font-size:8.432px;">0</text><text x="722.151px" y="36.171px" style="font-family:'ArialMT', 'Arial', sans-serif;font-size:8.432px;">0</text><text x="740.024px" y="40.346px" style="font-family:'ArialMT', 'Arial', sans-serif;font-size:8.432px;">0</text><text x="757.204px" y="37.835px" style="font-family:'ArialMT', 'Arial', sans-serif;font-size:8.432px;">0</text><text x="779.098px" y="37.943px" style="font-family:'ArialMT', 'Arial', sans-serif;font-size:8.432px;">0</text><text x="794.861px" y="40.053px" style="font-family:'ArialMT', 'Arial', sans-serif;font-size:8.432px;">0</text><text x="815.414px" y="38.127px" style="font-family:'ArialMT', 'Arial', sans-serif;font-size:8.432px;">0</text><text x="837.848px" y="32.165px" style="font-family:'ArialMT', 'Arial', sans-serif;font-size:8.432px;">1</text><text x="862.246px" y="33.852px" style="font-family:'ArialMT', 'Arial', sans-serif;font-size:8.432px;">0</text><text x="884.834px" y="36.625px" style="font-family:'ArialMT', 'Arial', sans-serif;font-size:8.432px;">0</text><text x="902.137px" y="35.069px" style="font-family:'ArialMT', 'Arial', sans-serif;font-size:8.432px;">0</text><text x="927.529px" y="36.887px" style="font-family:'ArialMT', 'Arial', sans-serif;font-size:8.432px;">1</text><text x="953.214px" y="34.329px" style="font-family:'ArialMT', 'Arial', sans-serif;font-size:8.432px;">1</text><text x="985.986px" y="36.332px" style="font-family:'ArialMT', 'Arial', sans-serif;font-size:8.432px;">1</text><text x="1013.03px" y="40.231px" style="font-family:'MalgunGothic', 'Malgun Gothic', sans-serif;font-size:8.432px;">截止</text></g></svg>