<svg xmlns="http://www.w3.org/2000/svg" xmlns:xlink="http://www.w3.org/1999/xlink" width="100%" height="100%" version="1.1" viewBox="0 0 1000 150" xml:space="preserve" style="fill-rule:evenodd;clip-rule:evenodd;stroke-linejoin:round;stroke-miterlimit:1.41421"><g><g><text x="87.489" y="66.879" transform="matrix(1,0,0,1,-8,0) matrix(3.16711,0,0,3.16711,-241.929,-135.031)" style="font-family:'ArialMT','Arial',sans-serif;font-size:12px;fill:#6359d0">001<tspan x="106.619 113.293" y="66.879 66.879">1 </tspan>0101</text></g><g><text x="87.489" y="66.879" transform="matrix(1,0,0,1,-8,0) matrix(2.20559,0,0,2.20559,-125.065,-39.533)" style="font-family:'MalgunGothic','Malgun Gothic',sans-serif;font-size:12px;fill:#6359d0">濕度整數</text></g></g><g><g><text x="87.489" y="66.879" transform="matrix(1,0,0,1,-14.1101,0) matrix(3.16711,0,0,3.16711,-42.6456,-135.031)" style="font-family:'ArialMT','Arial',sans-serif;font-size:12px;fill:#00cdbf">0000 0000</text></g><g><text x="87.489" y="66.879" transform="matrix(1,0,0,1,-14.1101,0) matrix(2.20559,0,0,2.20559,74.2192,-39.533)" style="font-family:'MalgunGothic','Malgun Gothic',sans-serif;font-size:12px;fill:#00cdbf">濕度小數</text></g></g><g><g><text x="87.489" y="66.879" transform="matrix(1,0,0,1,-18.3402,0) matrix(3.16711,0,0,3.16711,154.758,-135.031)" style="font-family:'ArialMT','Arial',sans-serif;font-size:12px;fill:#e8622f">0001 1000</text></g><g><text x="87.489" y="66.879" transform="matrix(1,0,0,1,-18.3402,0) matrix(2.20559,0,0,2.20559,271.623,-39.533)" style="font-family:'MalgunGothic','Malgun Gothic',sans-serif;font-size:12px;fill:#e8622f">溫度整數</text></g></g><g><g><text x="87.489" y="66.879" transform="matrix(1,0,0,1,-13.1701,0) matrix(3.16711,0,0,3.16711,342.762,-135.031)" style="font-family:'ArialMT','Arial',sans-serif;font-size:12px;fill:#ff0018">0000 0000</text></g><g><text x="87.489" y="66.879" transform="matrix(1,0,0,1,-13.1701,0) matrix(2.20559,0,0,2.20559,459.627,-39.533)" style="font-family:'MalgunGothic','Malgun Gothic',sans-serif;font-size:12px;fill:#ff0018">溫度小數</text></g></g><g><g><text x="87.489" y="66.879" transform="matrix(1,0,0,1,-8,0) matrix(3.16711,0,0,3.16711,530.765,-135.031)" style="font-family:'ArialMT','Arial',sans-serif;font-size:12px">0100 1<tspan x="123.301 129.975" y="66.879 66.879">10</tspan>1</text></g><g><text x="87.489" y="66.879" transform="matrix(1,0,0,1,-8,0) matrix(2.20559,0,0,2.20559,661.394,-39.533)" style="font-family:'MalgunGothic','Malgun Gothic',sans-serif;font-size:12px">檢</text><text x="99.489" y="66.879" transform="matrix(1,0,0,1,-8,0) matrix(2.20559,0,0,2.20559,661.394,-39.533)" style="font-family:'MicrosoftJhengHeiRegular','Microsoft JhengHei',sans-serif;font-size:12px">查碼</text></g></g></svg>