<?xml version="1.0" encoding="UTF-8" standalone="no"?>
<!DOCTYPE svg PUBLIC "-//W3C//DTD SVG 1.1//EN" "http://www.w3.org/Graphics/SVG/1.1/DTD/svg11.dtd">
<svg width="100%" height="100%" viewBox="0 0 1197 464" version="1.1" xmlns="http://www.w3.org/2000/svg" xmlns:xlink="http://www.w3.org/1999/xlink" xml:space="preserve" xmlns:serif="http://www.serif.com/" style="fill-rule:evenodd;clip-rule:evenodd;stroke-linecap:round;stroke-linejoin:round;stroke-miterlimit:1.5;">
    <g id="With-NAT" serif:id="With NAT" transform="matrix(1,0,0,1,-1.96099,0.595963)">
        <rect x="1.961" y="-0.596" width="1196.62" height="463.752" style="fill:none;"/>
        <g transform="matrix(1.26222,0,0,1.43382,85.4531,-75.8811)">
            <rect x="120.625" y="148.75" width="140.625" height="170" style="fill:rgb(235,235,235);"/>
        </g>
        <g transform="matrix(1,0,0,1,-58.5414,-35.4748)">
            <rect x="332" y="203.5" width="106" height="56" style="fill:rgb(178,178,178);"/>
        </g>
        <g transform="matrix(1,0,0,1,-77.7874,37.6961)">
            <text x="369.5px" y="163.5px" style="font-family:'ArialMT', 'Arial', sans-serif;font-size:20px;fill:white;">iptables</text>
        </g>
        <g transform="matrix(0.681034,0,0,1.11475,195.654,36.5871)">
            <rect x="145.668" y="213.832" width="92.8" height="48.8" style="fill:rgb(98,182,206);"/>
        </g>
        <g transform="matrix(1,0,0,1,113.301,70.2964)">
            <text x="190.868px" y="230.632px" style="font-family:'ArialMT', 'Arial', sans-serif;font-size:20px;fill:white;">Pod1</text>
        </g>
        <g transform="matrix(0.848848,0,0,0.848848,181.252,49.1208)">
            <text x="135.668px" y="316.232px" style="font-family:'ArialMT', 'Arial', sans-serif;font-size:20px;fill:white;">10.1.0.1</text>
        </g>
        <g transform="matrix(1,0,0,1,209.527,33.8838)">
            <text x="135.668px" y="316.232px" style="font-family:'ArialMT', 'Arial', sans-serif;font-size:20px;fill:rgb(69,69,69);">Node1</text>
        </g>
        <g transform="matrix(1,0,0,1,182.261,58.3838)">
            <text x="135.668px" y="316.232px" style="font-family:'ArialMT', 'Arial', sans-serif;font-size:20px;fill:rgb(69,69,69);">123.7.8.9</text>
        </g>
        <g transform="matrix(1.26222,0,0,1.43382,366.303,-75.8811)">
            <rect x="120.625" y="148.75" width="140.625" height="170" style="fill:rgb(235,235,235);"/>
        </g>
        <g transform="matrix(1,0,0,1,222.309,-35.4748)">
            <rect x="332" y="203.5" width="106" height="56" style="fill:rgb(178,178,178);"/>
        </g>
        <g transform="matrix(1,0,0,1,203.063,37.6961)">
            <text x="369.5px" y="163.5px" style="font-family:'ArialMT', 'Arial', sans-serif;font-size:20px;fill:white;">iptables</text>
        </g>
        <g transform="matrix(1,0,0,1,493.127,31.6838)">
            <text x="135.668px" y="316.232px" style="font-family:'ArialMT', 'Arial', sans-serif;font-size:20px;fill:rgb(69,69,69);">Node3</text>
        </g>
        <g transform="matrix(1,0,0,1,468.664,56.1838)">
            <text x="135.668px" y="316.232px" style="font-family:'ArialMT', 'Arial', sans-serif;font-size:20px;fill:rgb(69,69,69);">123.4.5.6</text>
        </g>
        <g transform="matrix(1,0,0,1,45.2608,76.6012)">
            <g transform="matrix(1,-0,-0,1,-43.2998,-77.1972)">
                <path d="M779.617,242.421L789.956,247.59L779.617,252.759L779.617,242.421Z" style="fill:rgb(88,172,255);"/>
                <path d="M722.489,247.59L781.685,247.59" style="fill:none;stroke:rgb(88,172,255);stroke-width:3.45px;"/>
            </g>
        </g>
        <g transform="matrix(1,0,0,1,45.2608,143.001)">
            <g transform="matrix(1,-0,-0,1,-43.2998,-143.597)">
                <path d="M779.617,308.821L789.956,313.99L779.617,319.159L779.617,308.821Z" style="fill:rgb(255,123,88);"/>
                <path d="M722.489,313.99L781.685,313.99" style="fill:none;stroke:rgb(255,123,88);stroke-width:3.45px;"/>
            </g>
        </g>
        <g transform="matrix(1,0,0,1.53892,477.657,18.2211)">
            <g transform="matrix(1,-0,-0,0.649805,-475.696,-12.2274)">
                <path d="M548.96,169.249L559.424,174.159L549.217,179.584L548.96,169.249Z" style="fill:rgb(255,123,88);"/>
                <path d="M327.464,273.573C398.72,208.418 473.485,177.297 551.155,174.365" style="fill:none;stroke:rgb(255,123,88);stroke-width:3.45px;"/>
            </g>
        </g>
        <g transform="matrix(1,0,0,1.53892,477.657,18.2211)">
            <g transform="matrix(1,-0,-0,0.649805,-475.696,-12.2274)">
                <path d="M856.514,129.757L862.884,139.403L851.345,138.71L856.514,129.757Z" style="fill:rgb(255,123,88);"/>
                <path d="M595.942,169.895C656.615,108.057 772.172,89.452 855.721,135.267" style="fill:none;stroke:rgb(255,123,88);stroke-width:3.45px;"/>
            </g>
        </g>
        <g transform="matrix(1,0,0,0.740519,200.85,203.661)">
            <g transform="matrix(1,-0,-0,1.3504,-198.889,-275.829)">
                <path d="M671.134,181.462L661.757,174.703L672.791,171.257L671.134,181.462Z" style="fill:rgb(88,172,255);"/>
                <path d="M823.165,158.836C777.393,178.565 726.407,184.546 669.921,176.029" style="fill:none;stroke:rgb(88,172,255);stroke-width:3.45px;"/>
            </g>
        </g>
        <g transform="matrix(1,0,0,0.740519,200.85,203.661)">
            <g transform="matrix(1,-0,-0,1.3504,-198.889,-275.829)">
                <path d="M366.223,283.466L355.069,280.431L364.189,273.329L366.223,283.466Z" style="fill:rgb(88,172,255);"/>
                <path d="M551.549,183.412C496.688,232.019 433.939,263.903 363.179,278.804" style="fill:none;stroke:rgb(88,172,255);stroke-width:3.45px;"/>
            </g>
        </g>
        <g transform="matrix(1,0,0,1,143.189,79.8846)">
            <g transform="matrix(0.69937,0,0,0.69937,179.893,0.820652)">
                <text x="574.631px" y="167.064px" style="font-family:'ArialMT', 'Arial', sans-serif;font-size:16.977px;fill:rgb(97,97,97);">SRC 1.2.3.4</text>
                <text x="574.631px" y="184.596px" style="font-family:'ArialMT', 'Arial', sans-serif;font-size:16.977px;fill:rgb(97,97,97);">DST<tspan x="608.278px 612.995px " y="184.596px 184.596px ">  </tspan>123.4.5.6</text>
            </g>
            <g transform="matrix(1.51228,0,0,1.51228,-290.223,-39.4793)">
                <text x="566.183px" y="111.256px" style="font-family:'ArialMT', 'Arial', sans-serif;font-size:16.977px;fill:rgb(99,99,99);">1</text>
            </g>
        </g>
        <g transform="matrix(1,0,0,1,-105.344,143.99)">
            <g transform="matrix(0.69937,0,0,0.69937,179.893,0.820652)">
                <text x="574.631px" y="167.064px" style="font-family:'ArialMT', 'Arial', sans-serif;font-size:16.977px;fill:rgb(97,97,97);">SRC 123.4.5.6</text>
                <text x="574.631px" y="184.596px" style="font-family:'ArialMT', 'Arial', sans-serif;font-size:16.977px;fill:rgb(97,97,97);">DST<tspan x="608.278px 612.995px " y="184.596px 184.596px ">  </tspan>10.1.0.1</text>
            </g>
            <g transform="matrix(1.51228,0,0,1.51228,-290.223,-39.4793)">
                <text x="566.183px" y="111.256px" style="font-family:'ArialMT', 'Arial', sans-serif;font-size:16.977px;fill:rgb(99,99,99);">2</text>
            </g>
        </g>
        <g transform="matrix(1,0,0,1,-155.681,43.7353)">
            <g transform="matrix(0.69937,0,0,0.69937,179.893,0.820652)">
                <text x="574.631px" y="167.064px" style="font-family:'ArialMT', 'Arial', sans-serif;font-size:16.977px;fill:rgb(97,97,97);">SRC 10.1.0.1</text>
                <text x="574.631px" y="184.596px" style="font-family:'ArialMT', 'Arial', sans-serif;font-size:16.977px;fill:rgb(97,97,97);">DST<tspan x="608.278px 612.995px " y="184.596px 184.596px ">  </tspan>123.4.5.6</text>
            </g>
            <g transform="matrix(1.51228,0,0,1.51228,-290.223,-39.4793)">
                <text x="566.183px" y="111.256px" style="font-family:'ArialMT', 'Arial', sans-serif;font-size:16.977px;fill:rgb(99,99,99);">3</text>
            </g>
        </g>
        <g transform="matrix(1,0,0,1,136.948,-27.6066)">
            <g transform="matrix(0.69937,0,0,0.69937,179.893,0.820652)">
                <text x="574.631px" y="167.064px" style="font-family:'ArialMT', 'Arial', sans-serif;font-size:16.977px;fill:rgb(97,97,97);">SRC 123.4.5.6</text>
                <text x="574.631px" y="184.596px" style="font-family:'ArialMT', 'Arial', sans-serif;font-size:16.977px;fill:rgb(97,97,97);">DST<tspan x="608.278px 612.995px " y="184.596px 184.596px ">  </tspan>1.2.3.4</text>
            </g>
            <g transform="matrix(1.51228,0,0,1.51228,-290.223,-39.4793)">
                <text x="566.183px" y="111.256px" style="font-family:'ArialMT', 'Arial', sans-serif;font-size:16.977px;fill:rgb(99,99,99);">4</text>
            </g>
        </g>
        <g transform="matrix(1,0,0,1,57.119,99.0751)">
            <text x="667.36px" y="177.485px" style="font-family:'ArialMT', 'Arial', sans-serif;font-size:20px;fill:rgb(69,69,69);">Rquest</text>
        </g>
        <g transform="matrix(1,0,0,1,57.119,164.179)">
            <text x="667.36px" y="177.485px" style="font-family:'ArialMT', 'Arial', sans-serif;font-size:20px;fill:rgb(69,69,69);">Response</text>
        </g>
        <g id="icon" transform="matrix(0.153972,0,0,0.153972,901.242,346.409)">
            <g transform="matrix(1,0,0,1,-400,-200)">
                <clipPath id="_clip1">
                    <rect x="0" y="0" width="800" height="400"/>
                </clipPath>
                <g clip-path="url(#_clip1)">
                    <g id="left" transform="matrix(1.99005,0,0,1.78108,-101.161,-156.586)">
                        <path d="M176.458,87.917L302.083,312.5L50.833,312.5L176.458,87.917Z" style="fill:rgb(235,235,235);"/>
                    </g>
                    <g id="right" transform="matrix(1.99005,0,0,1.78108,198.839,-156.586)">
                        <path d="M176.458,87.917L302.083,312.5L50.833,312.5L176.458,87.917Z" style="fill:rgb(235,235,235);"/>
                    </g>
                    <path id="nose" d="M500,400L300,400L400,240L500,400Z" style="fill:rgb(2,148,167);"/>
                    <g transform="matrix(1,0,0,1,2.91667,-10.8333)">
                        <circle cx="247.083" cy="215.833" r="25.417" style="fill:rgb(133,133,133);"/>
                    </g>
                    <g transform="matrix(1,0,0,1,302.917,-10.8333)">
                        <circle cx="247.083" cy="215.833" r="25.417" style="fill:rgb(133,133,133);"/>
                    </g>
                </g>
            </g>
        </g>
        <g transform="matrix(1,0,0,1,193.013,72.8537)">
            <rect x="635" y="71.875" width="81.875" height="66.875" style="fill:rgb(45,226,130);fill-opacity:0.58;"/>
        </g>
        <g transform="matrix(1,0,0,1,133.355,23.7423)">
            <text x="710.015px" y="151.25px" style="font-family:'ArialMT', 'Arial', sans-serif;font-size:20px;fill:rgb(69,69,69);">Client</text>
            <text x="705px" y="171.904px" style="font-family:'ArialMT', 'Arial', sans-serif;font-size:20px;fill:rgb(69,69,69);">1.2.3.4</text>
        </g>
    </g>
</svg>
