<svg xmlns="http://www.w3.org/2000/svg" xmlns:xlink="http://www.w3.org/1999/xlink" width="100%" height="100%" version="1.1" viewBox="0 0 1197 464" xml:space="preserve" style="fill-rule:evenodd;clip-rule:evenodd;stroke-linecap:round;stroke-linejoin:round;stroke-miterlimit:1.5"><g id="With-NAT" transform="matrix(1,0,0,1,-1.96099,0.595963)"><rect width="1196.62" height="463.752" x="1.961" y="-.596" style="fill:none"/><g transform="matrix(1.26222,0,0,1.43382,85.4531,-75.8811)"><rect width="140.625" height="170" x="120.625" y="148.75" style="fill:#ebebeb"/></g><g transform="matrix(1,0,0,1,-58.5414,-35.4748)"><rect width="106" height="56" x="332" y="203.5" style="fill:#b2b2b2"/></g><g><text x="369.5" y="163.5" transform="matrix(1,0,0,1,-77.7874,37.6961)" style="font-family:'ArialMT','Arial',sans-serif;font-size:20px;fill:#fff">iptables</text></g><g transform="matrix(0.681034,0,0,1.11475,195.654,36.5871)"><rect width="92.8" height="48.8" x="145.668" y="213.832" style="fill:#62b6ce"/></g><g><text x="190.868" y="230.632" transform="matrix(1,0,0,1,113.301,70.2964)" style="font-family:'ArialMT','Arial',sans-serif;font-size:20px;fill:#fff">Pod1</text></g><g><text x="135.668" y="316.232" transform="matrix(0.848848,0,0,0.848848,181.252,49.1208)" style="font-family:'ArialMT','Arial',sans-serif;font-size:20px;fill:#fff">10.1.0.1</text></g><g><text x="135.668" y="316.232" transform="matrix(1,0,0,1,209.527,33.8838)" style="font-family:'ArialMT','Arial',sans-serif;font-size:20px;fill:#454545">Node1</text></g><g><text x="135.668" y="316.232" transform="matrix(1,0,0,1,182.261,58.3838)" style="font-family:'ArialMT','Arial',sans-serif;font-size:20px;fill:#454545">123.7.8.9</text></g><g transform="matrix(1.26222,0,0,1.43382,366.303,-75.8811)"><rect width="140.625" height="170" x="120.625" y="148.75" style="fill:#ebebeb"/></g><g transform="matrix(1,0,0,1,222.309,-35.4748)"><rect width="106" height="56" x="332" y="203.5" style="fill:#b2b2b2"/></g><g><text x="369.5" y="163.5" transform="matrix(1,0,0,1,203.063,37.6961)" style="font-family:'ArialMT','Arial',sans-serif;font-size:20px;fill:#fff">iptables</text></g><g><text x="135.668" y="316.232" transform="matrix(1,0,0,1,493.127,31.6838)" style="font-family:'ArialMT','Arial',sans-serif;font-size:20px;fill:#454545">Node3</text></g><g><text x="135.668" y="316.232" transform="matrix(1,0,0,1,468.664,56.1838)" style="font-family:'ArialMT','Arial',sans-serif;font-size:20px;fill:#454545">123.4.5.6</text></g><g><g><path d="M779.617,242.421L789.956,247.59L779.617,252.759L779.617,242.421Z" transform="matrix(1,0,0,1,45.2608,76.6012) matrix(1,-0,-0,1,-43.2998,-77.1972)" style="fill:#58acff"/><path d="M722.489,247.59L781.685,247.59" transform="matrix(1,0,0,1,45.2608,76.6012) matrix(1,-0,-0,1,-43.2998,-77.1972)" style="fill:none;stroke:#58acff;stroke-width:3.45px"/></g></g><g><g><path d="M779.617,308.821L789.956,313.99L779.617,319.159L779.617,308.821Z" transform="matrix(1,0,0,1,45.2608,143.001) matrix(1,-0,-0,1,-43.2998,-143.597)" style="fill:#ff7b58"/><path d="M722.489,313.99L781.685,313.99" transform="matrix(1,0,0,1,45.2608,143.001) matrix(1,-0,-0,1,-43.2998,-143.597)" style="fill:none;stroke:#ff7b58;stroke-width:3.45px"/></g></g><g><g><path d="M548.96,169.249L559.424,174.159L549.217,179.584L548.96,169.249Z" transform="matrix(1,0,0,1.53892,477.657,18.2211) matrix(1,-0,-0,0.649805,-475.696,-12.2274)" style="fill:#ff7b58"/><path d="M327.464,273.573C398.72,208.418 473.485,177.297 551.155,174.365" transform="matrix(1,0,0,1.53892,477.657,18.2211) matrix(1,-0,-0,0.649805,-475.696,-12.2274)" style="fill:none;stroke:#ff7b58;stroke-width:3.45px"/></g></g><g><g><path d="M856.514,129.757L862.884,139.403L851.345,138.71L856.514,129.757Z" transform="matrix(1,0,0,1.53892,477.657,18.2211) matrix(1,-0,-0,0.649805,-475.696,-12.2274)" style="fill:#ff7b58"/><path d="M595.942,169.895C656.615,108.057 772.172,89.452 855.721,135.267" transform="matrix(1,0,0,1.53892,477.657,18.2211) matrix(1,-0,-0,0.649805,-475.696,-12.2274)" style="fill:none;stroke:#ff7b58;stroke-width:3.45px"/></g></g><g><g><path d="M671.134,181.462L661.757,174.703L672.791,171.257L671.134,181.462Z" transform="matrix(1,0,0,0.740519,200.85,203.661) matrix(1,-0,-0,1.3504,-198.889,-275.829)" style="fill:#58acff"/><path d="M823.165,158.836C777.393,178.565 726.407,184.546 669.921,176.029" transform="matrix(1,0,0,0.740519,200.85,203.661) matrix(1,-0,-0,1.3504,-198.889,-275.829)" style="fill:none;stroke:#58acff;stroke-width:3.45px"/></g></g><g><g><path d="M366.223,283.466L355.069,280.431L364.189,273.329L366.223,283.466Z" transform="matrix(1,0,0,0.740519,200.85,203.661) matrix(1,-0,-0,1.3504,-198.889,-275.829)" style="fill:#58acff"/><path d="M551.549,183.412C496.688,232.019 433.939,263.903 363.179,278.804" transform="matrix(1,0,0,0.740519,200.85,203.661) matrix(1,-0,-0,1.3504,-198.889,-275.829)" style="fill:none;stroke:#58acff;stroke-width:3.45px"/></g></g><g><g><text x="574.631" y="167.064" transform="matrix(1,0,0,1,143.189,79.8846) matrix(0.69937,0,0,0.69937,179.893,0.820652)" style="font-family:'ArialMT','Arial',sans-serif;font-size:16.977px;fill:#616161">SRC 1.2.3.4</text><text x="574.631" y="184.596" transform="matrix(1,0,0,1,143.189,79.8846) matrix(0.69937,0,0,0.69937,179.893,0.820652)" style="font-family:'ArialMT','Arial',sans-serif;font-size:16.977px;fill:#616161">DST<tspan x="608.278 612.995" y="184.596 184.596"> </tspan>123.4.5.6</text></g><g><text x="566.183" y="111.256" transform="matrix(1,0,0,1,143.189,79.8846) matrix(1.51228,0,0,1.51228,-290.223,-39.4793)" style="font-family:'ArialMT','Arial',sans-serif;font-size:16.977px;fill:#636363">1</text></g></g><g><g><text x="574.631" y="167.064" transform="matrix(1,0,0,1,-105.344,143.99) matrix(0.69937,0,0,0.69937,179.893,0.820652)" style="font-family:'ArialMT','Arial',sans-serif;font-size:16.977px;fill:#616161">SRC 123.4.5.6</text><text x="574.631" y="184.596" transform="matrix(1,0,0,1,-105.344,143.99) matrix(0.69937,0,0,0.69937,179.893,0.820652)" style="font-family:'ArialMT','Arial',sans-serif;font-size:16.977px;fill:#616161">DST<tspan x="608.278 612.995" y="184.596 184.596"> </tspan>10.1.0.1</text></g><g><text x="566.183" y="111.256" transform="matrix(1,0,0,1,-105.344,143.99) matrix(1.51228,0,0,1.51228,-290.223,-39.4793)" style="font-family:'ArialMT','Arial',sans-serif;font-size:16.977px;fill:#636363">2</text></g></g><g><g><text x="574.631" y="167.064" transform="matrix(1,0,0,1,-155.681,43.7353) matrix(0.69937,0,0,0.69937,179.893,0.820652)" style="font-family:'ArialMT','Arial',sans-serif;font-size:16.977px;fill:#616161">SRC 10.1.0.1</text><text x="574.631" y="184.596" transform="matrix(1,0,0,1,-155.681,43.7353) matrix(0.69937,0,0,0.69937,179.893,0.820652)" style="font-family:'ArialMT','Arial',sans-serif;font-size:16.977px;fill:#616161">DST<tspan x="608.278 612.995" y="184.596 184.596"> </tspan>123.4.5.6</text></g><g><text x="566.183" y="111.256" transform="matrix(1,0,0,1,-155.681,43.7353) matrix(1.51228,0,0,1.51228,-290.223,-39.4793)" style="font-family:'ArialMT','Arial',sans-serif;font-size:16.977px;fill:#636363">3</text></g></g><g><g><text x="574.631" y="167.064" transform="matrix(1,0,0,1,136.948,-27.6066) matrix(0.69937,0,0,0.69937,179.893,0.820652)" style="font-family:'ArialMT','Arial',sans-serif;font-size:16.977px;fill:#616161">SRC 123.4.5.6</text><text x="574.631" y="184.596" transform="matrix(1,0,0,1,136.948,-27.6066) matrix(0.69937,0,0,0.69937,179.893,0.820652)" style="font-family:'ArialMT','Arial',sans-serif;font-size:16.977px;fill:#616161">DST<tspan x="608.278 612.995" y="184.596 184.596"> </tspan>1.2.3.4</text></g><g><text x="566.183" y="111.256" transform="matrix(1,0,0,1,136.948,-27.6066) matrix(1.51228,0,0,1.51228,-290.223,-39.4793)" style="font-family:'ArialMT','Arial',sans-serif;font-size:16.977px;fill:#636363">4</text></g></g><g><text x="667.36" y="177.485" transform="matrix(1,0,0,1,57.119,99.0751)" style="font-family:'ArialMT','Arial',sans-serif;font-size:20px;fill:#454545">Rquest</text></g><g><text x="667.36" y="177.485" transform="matrix(1,0,0,1,57.119,164.179)" style="font-family:'ArialMT','Arial',sans-serif;font-size:20px;fill:#454545">Response</text></g><g id="icon"><g transform="matrix(0.153972,0,0,0.153972,901.242,346.409) matrix(1,0,0,1,-400,-200)"><clipPath id="_clip1"><rect width="800" height="400" x="0" y="0"/></clipPath><g clip-path="url(#_clip1)"><g id="left"><path d="M176.458,87.917L302.083,312.5L50.833,312.5L176.458,87.917Z" transform="matrix(1.99005,0,0,1.78108,-101.161,-156.586)" style="fill:#ebebeb"/></g><g id="right"><path d="M176.458,87.917L302.083,312.5L50.833,312.5L176.458,87.917Z" transform="matrix(1.99005,0,0,1.78108,198.839,-156.586)" style="fill:#ebebeb"/></g><path id="nose" d="M500,400L300,400L400,240L500,400Z" style="fill:#0294a7"/><g transform="matrix(1,0,0,1,2.91667,-10.8333)"><circle cx="247.083" cy="215.833" r="25.417" style="fill:#858585"/></g><g transform="matrix(1,0,0,1,302.917,-10.8333)"><circle cx="247.083" cy="215.833" r="25.417" style="fill:#858585"/></g></g></g></g><g transform="matrix(1,0,0,1,193.013,72.8537)"><rect width="81.875" height="66.875" x="635" y="71.875" style="fill:#2de282;fill-opacity:.58"/></g><g><text x="710.015" y="151.25" transform="matrix(1,0,0,1,133.355,23.7423)" style="font-family:'ArialMT','Arial',sans-serif;font-size:20px;fill:#454545">Client</text><text x="705" y="171.904" transform="matrix(1,0,0,1,133.355,23.7423)" style="font-family:'ArialMT','Arial',sans-serif;font-size:20px;fill:#454545">1.2.3.4</text></g></g></svg>