<svg xmlns="http://www.w3.org/2000/svg" xmlns:xlink="http://www.w3.org/1999/xlink" width="100%" height="100%" version="1.1" viewBox="0 0 1000 150" xml:space="preserve" style="fill-rule:evenodd;clip-rule:evenodd;stroke-miterlimit:2"><g><path d="M28.952,24.842L961.239,24.842" style="fill:none;stroke:#0c0a0a;stroke-opacity:.290196;stroke-width:2.02px;stroke-dasharray:2.02,2.02,2.02,2.02"/><g><path d="M28.952,24.842L961.239,24.842" transform="matrix(1,0,0,1,0,100)" style="fill:none;stroke:#0c0a0a;stroke-opacity:.290196;stroke-width:2.02px;stroke-dasharray:2.02,2.02,2.02,2.02"/></g><text x="25.587" y="20.117" style="font-family:'ArialMT','Arial',sans-serif;font-size:12px">1</text><g><text x="31.053" y="120.066" transform="matrix(1,0,0,1,-4,0)" style="font-family:'ArialMT','Arial',sans-serif;font-size:12px">0</text></g><g><text x="850.744" y="134.33" transform="matrix(1,0,0,1,40,6)" style="font-family:'ArialMT','Arial',sans-serif;font-size:12px">blog.cptsai.com</text></g></g><g id="Layer1"><path d="M29.96,24.49L60.621,24.906L60.621,123.19L137.822,123.19L137.822,23.865L171.503,23.865" style="fill:none;stroke:red;stroke-opacity:.439216;stroke-width:2.02px"/><path d="M172.336,24.49L203.779,24.49L203.779,123.45L271.817,123.45L271.817,25.739L327.948,25.739" style="fill:none;stroke:#0095ff;stroke-opacity:.439216;stroke-width:2.02px"/><g><path d="M328.559,24.021L343.656,24.021L343.656,123.294L406.593,123.294L406.593,24.281L429.55,24.281L429.55,122.305L489.884,122.305L489.884,25.739L570.833,25.739L570.833,122.305L583.796,122.305" transform="matrix(1,0,0,1,0,2)" style="fill:none;stroke:#000;stroke-opacity:.439216;stroke-width:2.02px"/></g><path d="M821.169,25.353L821.169,122.571L881.159,122.571L881.159,25.353L899.312,25.353C899.312,25.353 898.957,124.07 899.312,124.414" style="fill:none;stroke:#000;stroke-opacity:.439216;stroke-width:2.02px"/><path d="M899.312,124.414C899.668,124.757 940.823,124.414 940.823,124.414L940.823,26.383L967.485,26.383" style="fill:none;stroke:#fe7400;stroke-opacity:.439216;stroke-width:2.02px"/><circle cx="626.644" cy="79.99" r="5.483" style="fill:#989898"/><g transform="matrix(1,0,0,1,40,0)"><circle cx="626.644" cy="79.99" r="5.483" style="fill:#989898"/></g><g transform="matrix(1,0,0,1,79,0)"><circle cx="626.644" cy="79.99" r="5.483" style="fill:#989898"/></g><g><text x="63.506" y="135.062" transform="matrix(1,0,0,1,11.2777,-17.9463)" style="font-family:'MalgunGothic','Malgun Gothic',sans-serif;font-size:12px;fill:red">起始訊號</text></g><g><text x="63.506" y="135.062" transform="matrix(1,0,0,1,151.278,-17.9463)" style="font-family:'MalgunGothic','Malgun Gothic',sans-serif;font-size:12px;fill:#00c2e8">回應訊號</text></g><g><text x="63.506" y="135.062" transform="matrix(1,0,0,1,841.278,-17.9463)" style="font-family:'MalgunGothic','Malgun Gothic',sans-serif;font-size:12px;fill:#df954a">結束訊號</text></g><g><text x="63.506" y="135.062" transform="matrix(1,0,0,1,299.64,-19.7828)" style="font-family:'MalgunGothic','Malgun Gothic',sans-serif;font-size:12px;fill:#505d5f">資料</text></g><path d="M343.571,135.041L429.778,135.041" style="fill:none;stroke:#0095ff;stroke-opacity:.439216;stroke-width:2.02px"/><path d="M429.778,135.041L571.239,135.041" style="fill:none;stroke:red;stroke-opacity:.439216;stroke-width:2.02px"/><g><text x="386.298" y="129.969" transform="matrix(-0.992832,0,0,-0.992832,770.781,259.321)" style="font-family:'ArialMT','Arial',sans-serif;font-size:12px;fill:#505d5f">0</text></g><g><text x="386.298" y="129.969" transform="matrix(0.992832,1.21587e-16,-1.21587e-16,0.992832,117.129,9.80903)" style="font-family:'ArialMT','Arial',sans-serif;font-size:12px;fill:#505d5f">1</text></g></g></svg>