<?xml version="1.0" encoding="UTF-8" standalone="no"?>
<!DOCTYPE svg PUBLIC "-//W3C//DTD SVG 1.1//EN" "http://www.w3.org/Graphics/SVG/1.1/DTD/svg11.dtd">
<svg width="100%" height="100%" viewBox="0 0 800 300" version="1.1" xmlns="http://www.w3.org/2000/svg" xmlns:xlink="http://www.w3.org/1999/xlink" xml:space="preserve" xmlns:serif="http://www.serif.com/" style="fill-rule:evenodd;clip-rule:evenodd;stroke-linecap:round;stroke-linejoin:round;stroke-miterlimit:1.5;">
    <g transform="matrix(0.552656,0,0,0.577443,12.8298,19.6435)">
        <rect x="37.5" y="50" width="353.646" height="146.354" style="fill:rgb(228,245,234);fill-opacity:0.74;stroke:rgb(87,186,135);stroke-width:1.33px;"/>
    </g>
    <g transform="matrix(0.552656,0,0,0.577443,12.4264,112.424)">
        <rect x="37.5" y="50" width="353.646" height="146.354" style="fill:rgb(228,245,234);fill-opacity:0.74;stroke:rgb(87,186,135);stroke-width:1.33px;"/>
    </g>
    <g transform="matrix(0.655426,0,0,0.655426,18.5443,-59.7841)">
        <rect x="130.208" y="177.083" width="79.688" height="76.042" style="fill:rgb(255,188,159);fill-opacity:0.4;stroke:rgb(255,113,0);stroke-width:1.53px;"/>
    </g>
    <g transform="matrix(1.3725,0,0,1.3725,-147.826,-31.0649)">
        <text x="230.729px" y="113.542px" style="font-family:'ArialMT', 'Arial', sans-serif;font-size:12px;">Node 1</text>
    </g>
    <g transform="matrix(1.3725,0,0,1.3725,-148.633,61.7158)">
        <text x="230.729px" y="113.542px" style="font-family:'ArialMT', 'Arial', sans-serif;font-size:12px;">Node 2</text>
    </g>
    <g transform="matrix(0.655426,0,0,0.655426,-43.4171,-59.7841)">
        <rect x="130.208" y="177.083" width="79.688" height="76.042" style="fill:rgb(255,188,159);fill-opacity:0.4;stroke:rgb(255,113,0);stroke-width:1.53px;"/>
    </g>
    <g transform="matrix(0.655426,0,0,0.655426,18.5443,-59.7841)">
        <rect x="130.208" y="177.083" width="79.688" height="76.042" style="fill:rgb(255,188,159);fill-opacity:0.4;stroke:rgb(255,113,0);stroke-width:1.53px;"/>
    </g>
    <g transform="matrix(1.2002,0,0,1.2002,-67.7389,6.15999)">
        <text x="98.438px" y="66.667px" style="font-family:'ArialMT', 'Arial', sans-serif;font-size:12px;">Pod 1</text>
    </g>
    <g transform="matrix(1.2002,0,0,1.2002,-5.77749,6.15999)">
        <text x="98.438px" y="66.667px" style="font-family:'ArialMT', 'Arial', sans-serif;font-size:12px;">Pod 2</text>
    </g>
    <g transform="matrix(0.655426,0,0,0.655426,-40.1899,32.5126)">
        <rect x="130.208" y="177.083" width="79.688" height="76.042" style="fill:rgb(255,188,159);fill-opacity:0.4;stroke:rgb(255,113,0);stroke-width:1.53px;"/>
    </g>
    <g transform="matrix(1.2002,0,0,1.2002,-64.5117,98.4567)">
        <text x="98.438px" y="66.667px" style="font-family:'ArialMT', 'Arial', sans-serif;font-size:12px;">Pod 3</text>
    </g>
    <g transform="matrix(0.552656,0,0,0.577443,279.08,22.9768)">
        <rect x="37.5" y="50" width="353.646" height="146.354" style="fill:rgb(228,245,234);fill-opacity:0.74;stroke:rgb(87,186,135);stroke-width:1.33px;"/>
    </g>
    <g transform="matrix(0.552656,0,0,0.577443,278.676,115.758)">
        <rect x="37.5" y="50" width="353.646" height="146.354" style="fill:rgb(228,245,234);fill-opacity:0;stroke:rgb(87,186,135);stroke-width:1.33px;stroke-dasharray:13.27,13.27,0,0;"/>
    </g>
    <g transform="matrix(0.655426,0,0,0.655426,284.794,-56.4508)">
        <rect x="130.208" y="177.083" width="79.688" height="76.042" style="fill:rgb(255,188,159);fill-opacity:0.4;stroke:rgb(255,113,0);stroke-width:1.53px;"/>
    </g>
    <g transform="matrix(1.3725,0,0,1.3725,118.424,-27.7316)">
        <text x="230.729px" y="113.542px" style="font-family:'ArialMT', 'Arial', sans-serif;font-size:12px;">Node 1</text>
    </g>
    <g transform="matrix(1.3725,0,0,1.3725,117.617,65.0491)">
        <text x="230.729px" y="113.542px" style="font-family:'ArialMT', 'Arial', sans-serif;font-size:12px;">Node 2</text>
    </g>
    <g transform="matrix(0.655426,0,0,0.655426,222.833,-56.4508)">
        <rect x="130.208" y="177.083" width="79.688" height="76.042" style="fill:rgb(255,188,159);fill-opacity:0.4;stroke:rgb(255,113,0);stroke-width:1.53px;"/>
    </g>
    <g transform="matrix(0.655426,0,0,0.655426,284.794,-56.4508)">
        <rect x="130.208" y="177.083" width="79.688" height="76.042" style="fill:rgb(255,188,159);fill-opacity:0.4;stroke:rgb(255,113,0);stroke-width:1.53px;"/>
    </g>
    <g transform="matrix(1.2002,0,0,1.2002,198.511,9.49332)">
        <text x="98.438px" y="66.667px" style="font-family:'ArialMT', 'Arial', sans-serif;font-size:12px;">Pod 1</text>
    </g>
    <g transform="matrix(1.2002,0,0,1.2002,260.473,9.49332)">
        <text x="98.438px" y="66.667px" style="font-family:'ArialMT', 'Arial', sans-serif;font-size:12px;">Pod 2</text>
    </g>
    <g transform="matrix(0.655426,0,0,0.655426,346.893,-56.6541)">
        <rect x="130.208" y="177.083" width="79.688" height="76.042" style="fill:rgb(255,188,159);fill-opacity:0.4;stroke:rgb(255,113,0);stroke-width:1.53px;"/>
    </g>
    <g transform="matrix(1.2002,0,0,1.2002,322.572,9.28999)">
        <text x="98.438px" y="66.667px" style="font-family:'ArialMT', 'Arial', sans-serif;font-size:12px;">Pod 3&apos;</text>
    </g>
    <g transform="matrix(0.552656,0,0,0.577443,541.684,22.9768)">
        <rect x="37.5" y="50" width="353.646" height="146.354" style="fill:rgb(228,245,234);fill-opacity:0.74;stroke:rgb(87,186,135);stroke-width:1.33px;"/>
    </g>
    <g transform="matrix(0.655426,0,0,0.655426,547.398,-56.4508)">
        <rect x="130.208" y="177.083" width="79.688" height="76.042" style="fill:rgb(255,188,159);fill-opacity:0.4;stroke:rgb(255,113,0);stroke-width:1.53px;"/>
    </g>
    <g transform="matrix(1.3725,0,0,1.3725,381.028,-27.7316)">
        <text x="230.729px" y="113.542px" style="font-family:'ArialMT', 'Arial', sans-serif;font-size:12px;">Node 1</text>
    </g>
    <g transform="matrix(0.655426,0,0,0.655426,485.437,-56.4508)">
        <rect x="130.208" y="177.083" width="79.688" height="76.042" style="fill:rgb(255,188,159);fill-opacity:0.4;stroke:rgb(255,113,0);stroke-width:1.53px;"/>
    </g>
    <g transform="matrix(0.655426,0,0,0.655426,547.398,-56.4508)">
        <rect x="130.208" y="177.083" width="79.688" height="76.042" style="fill:rgb(255,188,159);fill-opacity:0.4;stroke:rgb(255,113,0);stroke-width:1.53px;"/>
    </g>
    <g transform="matrix(1.2002,0,0,1.2002,461.115,9.49332)">
        <text x="98.438px" y="66.667px" style="font-family:'ArialMT', 'Arial', sans-serif;font-size:12px;">Pod 1</text>
    </g>
    <g transform="matrix(1.2002,0,0,1.2002,523.077,9.49332)">
        <text x="98.438px" y="66.667px" style="font-family:'ArialMT', 'Arial', sans-serif;font-size:12px;">Pod 2</text>
    </g>
    <g transform="matrix(0.655426,0,0,0.655426,609.498,-56.6541)">
        <rect x="130.208" y="177.083" width="79.688" height="76.042" style="fill:rgb(255,188,159);fill-opacity:0.4;stroke:rgb(255,113,0);stroke-width:1.53px;"/>
    </g>
    <g transform="matrix(1.2002,0,0,1.2002,585.176,9.28999)">
        <text x="98.438px" y="66.667px" style="font-family:'ArialMT', 'Arial', sans-serif;font-size:12px;">Pod 3&apos;</text>
    </g>
    <g transform="matrix(0.531646,0,0,1,-2.73606,-8.33333)">
        <g transform="matrix(1.88095,-0,-0,1,5.1464,8.33333)">
            <path d="M274.854,139.25L283.854,143.75L274.854,148.25C277.104,146 277.104,141.5 274.854,139.25Z" style="fill:rgb(111,107,107);"/>
            <path d="M240.104,143.75L276.654,143.75" style="fill:none;stroke:rgb(111,107,107);stroke-width:3px;"/>
        </g>
    </g>
    <g transform="matrix(0.531646,0,0,1,267.056,-8.33333)">
        <g transform="matrix(1.88095,-0,-0,1,-502.319,8.33333)">
            <path d="M544.646,139.25L553.646,143.75L544.646,148.25C546.896,146 546.896,141.5 544.646,139.25Z" style="fill:rgb(111,107,107);"/>
            <path d="M509.896,143.75L546.446,143.75" style="fill:none;stroke:rgb(111,107,107);stroke-width:3px;"/>
        </g>
    </g>
    <g transform="matrix(1,0,0,1,73.4375,-34.7917)">
        <text x="336.979px" y="276.563px" style="font-family:'ArialMT', 'Arial', sans-serif;font-size:12px;">blog.cptsai.com</text>
    </g>
    <g transform="matrix(1,0,0,1,-63.86,12.3467)">
        <path d="M553.453,169.437L494.147,169.437L494.147,185.863L553.453,185.863L548.42,177.512L553.453,169.437Z" style="fill:rgb(255,0,33);fill-opacity:0.67;stroke:rgb(255,0,21);stroke-width:1px;"/>
    </g>
    <g transform="matrix(0.826064,0,0,0.826064,16.3196,44.4474)">
        <text x="502.491px" y="181.036px" style="font-family:'ArialMT', 'Arial', sans-serif;font-size:12px;fill:white;">NoSchedule</text>
    </g>
</svg>
