<?xml version="1.0" encoding="UTF-8" standalone="no"?>
<!DOCTYPE svg PUBLIC "-//W3C//DTD SVG 1.1//EN" "http://www.w3.org/Graphics/SVG/1.1/DTD/svg11.dtd">
<svg width="100%" height="100%" viewBox="0 0 800 300" version="1.1" xmlns="http://www.w3.org/2000/svg" xmlns:xlink="http://www.w3.org/1999/xlink" xml:space="preserve" xmlns:serif="http://www.serif.com/" style="fill-rule:evenodd;clip-rule:evenodd;stroke-linecap:round;stroke-linejoin:round;stroke-miterlimit:1.5;">
    <g transform="matrix(0.713549,0,0,0.745552,35.5596,-14.4911)">
        <rect x="37.5" y="50" width="353.646" height="146.354" style="fill:rgb(228,245,234);fill-opacity:0.74;stroke:rgb(87,186,135);stroke-width:1.03px;"/>
    </g>
    <g transform="matrix(1.77208,0,0,1.77208,-171.867,-79.9621)">
        <text x="230.729px" y="113.542px" style="font-family:'ArialMT', 'Arial', sans-serif;font-size:12px;">Node 1</text>
    </g>
    <g transform="matrix(0.846238,0,0,0.846238,-37.0623,-117.042)">
        <rect x="130.208" y="177.083" width="79.688" height="76.042" style="fill:rgb(255,188,159);fill-opacity:0.4;stroke:rgb(255,113,0);stroke-width:1.18px;"/>
    </g>
    <g transform="matrix(0.846238,0,0,0.846238,42.9377,-117.042)">
        <rect x="130.208" y="177.083" width="79.688" height="76.042" style="fill:rgb(255,188,159);fill-opacity:0.4;stroke:rgb(255,113,0);stroke-width:1.18px;"/>
    </g>
    <g transform="matrix(0.846238,0,0,0.846238,122.938,-117.042)">
        <rect x="130.208" y="177.083" width="79.688" height="76.042" style="fill:rgb(255,188,159);fill-opacity:0.4;stroke:rgb(255,113,0);stroke-width:1.18px;"/>
    </g>
    <g transform="matrix(1.54961,0,0,1.54961,-68.4648,-31.9)">
        <text x="98.438px" y="66.667px" style="font-family:'ArialMT', 'Arial', sans-serif;font-size:12px;">Pod 1</text>
    </g>
    <g transform="matrix(0.846238,0,0,0.846238,-35.4998,2.22867)">
        <rect x="130.208" y="177.083" width="79.688" height="76.042" style="fill:rgb(255,159,181);fill-opacity:0.4;stroke:rgb(255,0,21);stroke-width:1.18px;"/>
    </g>
    <g transform="matrix(1.54961,0,0,1.54961,-66.9023,87.3708)">
        <text x="98.438px" y="66.667px" style="font-family:'ArialMT', 'Arial', sans-serif;font-size:12px;">Pod 4</text>
    </g>
    <g transform="matrix(1.54961,0,0,1.54961,11.5352,-31.9)">
        <text x="98.438px" y="66.667px" style="font-family:'ArialMT', 'Arial', sans-serif;font-size:12px;">Pod 2</text>
    </g>
    <g transform="matrix(1.54961,0,0,1.54961,91.5352,-31.9)">
        <text x="98.438px" y="66.667px" style="font-family:'ArialMT', 'Arial', sans-serif;font-size:12px;">Pod 3</text>
    </g>
    <g transform="matrix(0.713549,0,0,0.745552,436.08,-12.9286)">
        <rect x="37.5" y="50" width="353.646" height="146.354" style="fill:rgb(228,245,234);fill-opacity:0.74;stroke:rgb(87,186,135);stroke-width:1.03px;"/>
    </g>
    <g transform="matrix(0.713549,0,0,0.745552,435.56,106.863)">
        <rect x="37.5" y="50" width="353.646" height="146.354" style="fill:rgb(228,245,234);fill-opacity:0.74;stroke:rgb(87,186,135);stroke-width:1.03px;"/>
    </g>
    <g transform="matrix(1.77208,0,0,1.77208,228.654,-78.3996)">
        <text x="230.729px" y="113.542px" style="font-family:'ArialMT', 'Arial', sans-serif;font-size:12px;">Node 1</text>
    </g>
    <g transform="matrix(1.77208,0,0,1.77208,227.612,41.3921)">
        <text x="230.729px" y="113.542px" style="font-family:'ArialMT', 'Arial', sans-serif;font-size:12px;">Node 2</text>
    </g>
    <g transform="matrix(0.846238,0,0,0.846238,363.459,-115.48)">
        <rect x="130.208" y="177.083" width="79.688" height="76.042" style="fill:rgb(255,188,159);fill-opacity:0.4;stroke:rgb(255,113,0);stroke-width:1.18px;"/>
    </g>
    <g transform="matrix(0.846238,0,0,0.846238,443.459,-115.48)">
        <rect x="130.208" y="177.083" width="79.688" height="76.042" style="fill:rgb(255,188,159);fill-opacity:0.4;stroke:rgb(255,113,0);stroke-width:1.18px;"/>
    </g>
    <g transform="matrix(0.846238,0,0,0.846238,523.459,-115.48)">
        <rect x="130.208" y="177.083" width="79.688" height="76.042" style="fill:rgb(255,188,159);fill-opacity:0.4;stroke:rgb(255,113,0);stroke-width:1.18px;"/>
    </g>
    <g transform="matrix(1.54961,0,0,1.54961,332.056,-30.3375)">
        <text x="98.438px" y="66.667px" style="font-family:'ArialMT', 'Arial', sans-serif;font-size:12px;">Pod 1</text>
    </g>
    <g transform="matrix(0.846238,0,0,0.846238,365.021,3.79117)">
        <rect x="130.208" y="177.083" width="79.688" height="76.042" style="fill:rgb(255,159,181);fill-opacity:0.4;stroke:rgb(255,0,21);stroke-width:1.18px;"/>
    </g>
    <g transform="matrix(1.54961,0,0,1.54961,333.619,88.9333)">
        <text x="98.438px" y="66.667px" style="font-family:'ArialMT', 'Arial', sans-serif;font-size:12px;">Pod 4</text>
    </g>
    <g transform="matrix(1.54961,0,0,1.54961,412.056,-30.3375)">
        <text x="98.438px" y="66.667px" style="font-family:'ArialMT', 'Arial', sans-serif;font-size:12px;">Pod 2</text>
    </g>
    <g transform="matrix(1.54961,0,0,1.54961,492.056,-30.3375)">
        <text x="98.438px" y="66.667px" style="font-family:'ArialMT', 'Arial', sans-serif;font-size:12px;">Pod 3</text>
    </g>
    <g transform="matrix(1,0,0,1,-111.25,-6.25)">
        <g transform="matrix(1,-0,-0,1,111.25,6.25)">
            <path d="M418.813,141.333L427.813,145.833L418.813,150.333C421.063,148.083 421.063,143.583 418.813,141.333Z" style="fill:rgb(111,107,107);"/>
            <path d="M345.521,145.833L420.613,145.833" style="fill:none;stroke:rgb(111,107,107);stroke-width:3px;"/>
        </g>
    </g>
    <g transform="matrix(1,0,0,1,293.438,-2.60417)">
        <text x="336.979px" y="276.563px" style="font-family:'ArialMT', 'Arial', sans-serif;font-size:12px;">blog.cptsai.com</text>
    </g>
</svg>
