<?xml version="1.0" encoding="UTF-8" standalone="no"?>
<!DOCTYPE svg PUBLIC "-//W3C//DTD SVG 1.1//EN" "http://www.w3.org/Graphics/SVG/1.1/DTD/svg11.dtd">
<svg width="100%" height="100%" viewBox="0 0 1293 294" version="1.1" xmlns="http://www.w3.org/2000/svg" xmlns:xlink="http://www.w3.org/1999/xlink" xml:space="preserve" xmlns:serif="http://www.serif.com/" style="fill-rule:evenodd;clip-rule:evenodd;stroke-linejoin:round;stroke-miterlimit:2;">
    <g id="Cluster" transform="matrix(1,0,0,0.613419,75.9137,29.7272)">
        <rect x="-75.914" y="-48.462" width="1292.37" height="478.772" style="fill:none;"/>
        <g transform="matrix(0.854394,0,0,1.39284,21.7013,-72.1632)">
            <g id="logo" transform="matrix(0.540633,0,0,0.540633,400.11,191.601)">
                <g transform="matrix(1,0,0,1,-160,-125)">
                    <path d="M296.05,85.9L296.05,100L157.25,185.3L52.65,134L52.85,126.1L156.85,177.3L289.05,96.1L289.05,90.3L164.25,30.1L25.05,116.2L25.05,154.7L156.85,219.9L294.45,135.5L298.35,141.5L157.25,227.9L18.05,159.1L18.05,112.3L163.85,22.1L296.05,85.9Z" style="fill:rgb(34,34,34);fill-rule:nonzero;"/>
                    <path d="M294.25,150.9L296.25,138.3L284.05,136.2L284.85,131.3L301.95,134.2L299.15,151.7L294.25,150.9Z" style="fill:rgb(34,34,34);fill-rule:nonzero;"/>
                </g>
            </g>
            <g id="text-logo" transform="matrix(0.574114,0,0,0.574114,740.863,188.886)">
                <g transform="matrix(1,0,0,1,-400,-150)">
                    <path d="M567.328,43.44L640.192,173.904L640.192,256.56L687.136,256.56L687.136,173.904L759.712,43.44L709.024,43.44L664.384,128.112L619.744,43.44L567.328,43.44Z" style="fill:rgb(34,34,34);fill-rule:nonzero;"/>
                    <path d="M520.672,173.616C543.136,162.96 555.52,141.648 555.52,112.56C555.52,67.92 529.024,43.728 474.304,43.44L391.936,43.44L391.936,256.56L438.592,256.56L438.592,181.392L473.728,181.392L505.12,256.56L557.536,256.56L520.672,173.616ZM474.016,141.072L438.592,141.072L438.592,84.624L474.304,84.624C498.208,84.624 506.272,97.584 506.272,112.56C506.272,127.824 497.92,141.072 474.016,141.072Z" style="fill:rgb(34,34,34);fill-rule:nonzero;"/>
                    <path d="M328.864,150.576C344.416,143.376 357.376,127.536 357.376,102.48C357.376,67.632 332.032,44.016 290.272,44.016L200.128,44.016L200.128,256.56L289.696,256.56C331.744,256.56 359.968,236.976 359.968,200.688C359.968,173.904 344.992,158.64 328.864,150.576ZM285.088,83.472C304.096,83.472 311.008,97.584 311.008,108.816C311.008,120.624 303.808,133.584 285.088,133.584L246.496,133.584L246.496,83.472L285.088,83.472ZM287.68,217.104L246.496,217.104L246.496,167.856L287.68,167.856C302.944,167.856 313.888,177.936 313.888,192.912C313.888,207.888 303.232,217.104 287.68,217.104Z" style="fill:rgb(34,34,34);fill-rule:nonzero;"/>
                    <path d="M87.52,214.8L87.52,43.44L40.288,43.44L40.288,256.56L171.04,256.56L171.04,214.8L87.52,214.8Z" style="fill:rgb(34,34,34);fill-rule:nonzero;"/>
                </g>
            </g>
        </g>
    </g>
</svg>
